<?xml version="1.0" standalone="no"?>
<!DOCTYPE svg PUBLIC "-//W3C//DTD SVG 1.1//EN" "http://www.w3.org/Graphics/SVG/1.1/DTD/svg11.dtd" >
<svg xmlns="http://www.w3.org/2000/svg" xmlns:xlink="http://www.w3.org/1999/xlink" version="1.1">
<metadata></metadata>
<defs>
<font id="itc_korinnaregular" horiz-adv-x="1228" >
<font-face units-per-em="2048" ascent="1638" descent="-410" />
<missing-glyph horiz-adv-x="614" />
<glyph horiz-adv-x="0" />
<glyph horiz-adv-x="682" />
<glyph unicode=" "  horiz-adv-x="614" />
<glyph unicode="&#x09;" horiz-adv-x="614" />
<glyph unicode="&#xa0;" horiz-adv-x="614" />
<glyph unicode="!" horiz-adv-x="573" d="M156 98q0 55 37 94t92 39q56 0 94.5 -38t38.5 -93q0 -53 -37.5 -92t-89.5 -39q-55 0 -95 38t-40 91zM172 1309q-17 184 115 184q131 0 114 -184l-79 -963h-70z" />
<glyph unicode="&#x22;" horiz-adv-x="901" d="M209 1325q-19 168 80 168q113 0 94 -168l-47 -416q-1 -3 -4 -17t-6 -22t-11.5 -16t-19.5 -8t-18.5 8t-10.5 16.5t-6 22t-4 16.5zM516 1325q-19 168 82 168q111 0 92 -168l-47 -416q-1 -3 -4 -16.5t-6 -22t-10.5 -16.5t-18.5 -8t-19.5 8t-11.5 16t-6 22t-4 17z" />
<glyph unicode="#" d="M82 514v123h283l32 225h-262v123h279l67 477h140l-68 -477h209l67 477h140l-68 -477h248v-123h-264l-33 -225h248v-123h-264l-72 -514h-139l71 514h-209l-71 -514h-140l72 514h-266zM504 637h209l32 225h-208z" />
<glyph unicode="$" d="M80 332l192 131l41 -57q-26 -23 -39.5 -43.5t-13.5 -49.5q0 -43 27.5 -80.5t70 -62.5t93.5 -43t97.5 -26.5t82.5 -8.5q67 0 128.5 17.5t113.5 51t83 89.5t31 127q0 45 -17.5 83.5t-41.5 63.5t-65.5 49t-71.5 36.5t-78 29.5l-238 86q-62 23 -107 44t-90.5 53.5t-73.5 70 t-45.5 91t-17.5 118.5q0 88 33.5 158t92.5 116.5t131.5 75t158.5 41.5v219h123v-219q206 -18 407 -207l-145 -190l-57 37q22 42 22 73q0 40 -32.5 73.5t-79.5 52t-93 28.5t-81 10q-55 0 -110 -15t-102.5 -43.5t-77.5 -76.5t-30 -107q0 -45 20.5 -81t59.5 -62t71 -40.5 t80 -31.5l203 -71q73 -25 128 -50t111 -63t92 -82.5t58.5 -108t22.5 -139.5q0 -125 -67 -222t-171.5 -148.5t-228.5 -59.5v-217h-123v217q-184 18 -296 106t-181 257z" />
<glyph unicode="%" horiz-adv-x="1556" d="M84 1149q0 146 83.5 245t227.5 99q147 0 234.5 -90.5t87.5 -239.5q0 -158 -88 -260t-244 -102q-141 0 -221 101.5t-80 246.5zM225 0l951 1462h157l-950 -1462h-158zM236 1137q0 -61 14 -108.5t52.5 -81.5t98.5 -34q44 0 76 18t48.5 43t26 65.5t11.5 71.5t2 75 q0 89 -39.5 141.5t-124.5 52.5q-47 0 -81.5 -22t-51.5 -59.5t-24.5 -77t-7.5 -84.5zM852 317q0 146 83.5 245.5t227.5 99.5q147 0 234.5 -90.5t87.5 -239.5q0 -158 -88 -260.5t-244 -102.5q-141 0 -221 101.5t-80 246.5zM1004 305q0 -44 8 -82t26.5 -70.5t51.5 -51.5t79 -19 q44 0 76 18t48.5 43t26 65t11.5 71t2 75q0 89 -39.5 142t-124.5 53q-47 0 -81.5 -22t-51.5 -59.5t-24.5 -77.5t-7.5 -85z" />
<glyph unicode="&#x26;" horiz-adv-x="1556" d="M113 424q0 143 91.5 247.5t233.5 137.5q-104 34 -176 118.5t-72 188.5q0 81 31.5 146t83 107.5t120 71t139 40.5t143.5 12q223 0 403 -68v-262h-61q-18 67 -72 111.5t-117.5 62t-136.5 17.5q-62 0 -119.5 -13.5t-108.5 -41t-81.5 -77t-30.5 -114.5q0 -52 23.5 -92.5 t60 -64.5t85 -39.5t93 -21t90.5 -5.5h53v-140h-53q-409 0 -409 -313q0 -81 33 -144.5t88.5 -101.5t124.5 -57.5t147 -19.5q65 0 127 12t120 39t102 65.5t70.5 96t26.5 127.5q0 82 -47.5 116.5t-146.5 34.5v62h557v-62q-82 0 -120 -20t-46 -86q-16 -144 -56.5 -229.5 t-146.5 -162.5q-184 -133 -459 -133q-84 0 -165.5 16.5t-158.5 53t-135 88.5t-93 129t-35 168z" />
<glyph unicode="'" horiz-adv-x="573" d="M199 1325q-19 168 80 168q113 0 94 -168l-47 -416q-1 -3 -4 -17t-6 -22t-11.5 -16t-19.5 -8t-18.5 8t-10.5 16.5t-6 22t-4 16.5z" />
<glyph unicode="(" horiz-adv-x="860" d="M201 539q0 240 125 533t299 464l69 -61q-139 -194 -226 -449.5t-87 -486.5q0 -232 87 -487t226 -451l-69 -62q-174 171 -299 464.5t-125 535.5z" />
<glyph unicode=")" horiz-adv-x="860" d="M166 -399q139 194 226 449.5t87 486.5q0 232 -87 487t-226 451l70 61q174 -171 298.5 -464t124.5 -535q0 -241 -124.5 -534t-298.5 -464z" />
<glyph unicode="*" horiz-adv-x="1187" d="M203 1210q13 42 54 61t83 5q36 -12 72.5 -44.5t72.5 -63t74 -40.5q3 47 -34.5 128.5t-37.5 125.5q0 43 31.5 77t75.5 34q43 0 73.5 -33.5t30.5 -77.5t-37 -125.5t-34 -128.5q38 10 74 40.5t72.5 63t72.5 44.5q42 12 84 -7.5t55 -60.5q13 -42 -9.5 -81.5t-64.5 -51.5 q-43 -14 -133 -3.5t-131 -6.5q21 -33 62 -58t83 -49.5t64 -56.5q27 -34 21 -79.5t-41 -71.5q-37 -26 -81 -17t-69 45q-27 36 -44.5 123.5t-47.5 124.5q-30 -38 -47.5 -125.5t-44.5 -124.5q-25 -36 -69.5 -44t-80.5 18t-41 71t21 80t104 78.5t103 83.5q-36 16 -87 13.5 t-89 -9t-89 7.5q-40 14 -62 54t-9 81z" />
<glyph unicode="+" d="M160 393v123h393v393h123v-393h393v-123h-393v-393h-123v393h-393z" />
<glyph unicode="," horiz-adv-x="614" d="M176 94q0 54 34.5 89.5t88.5 35.5q64 0 101.5 -53.5t37.5 -120.5q0 -155 -176 -375l-69 51q40 52 62 84.5t46.5 84.5t30.5 98q-16 -19 -41 -19q-48 0 -81.5 38t-33.5 87z" />
<glyph unicode="-" horiz-adv-x="819" d="M176 424v147h467v-147h-467z" />
<glyph unicode="." horiz-adv-x="614" d="M176 98q0 55 37 94t92 39q56 0 94.5 -38t38.5 -93q0 -53 -37.5 -92t-89.5 -39q-55 0 -95 38t-40 91z" />
<glyph unicode="/" horiz-adv-x="860" d="M47 -291l631 1753h133l-631 -1753h-133z" />
<glyph unicode="0" d="M96 735q0 98 15.5 197t52.5 202t92.5 181t143.5 128t196 50q114 0 207 -47t153 -122.5t100 -176t57 -202t17 -206.5q0 -103 -16.5 -205.5t-56 -206t-98 -182t-151 -127.5t-206.5 -49t-204.5 49.5t-145.5 127t-91.5 181.5t-50.5 204t-14 204zM289 696q0 -587 319 -587 q65 0 117.5 26t86 65.5t58.5 100t37.5 116t20 127.5t9 120t1.5 108q0 71 -6.5 140t-27.5 152.5t-54.5 145t-93.5 103t-138 41.5q-62 0 -112.5 -25.5t-84.5 -66t-59 -99t-38.5 -116t-21.5 -126t-10.5 -119.5t-2.5 -106z" />
<glyph unicode="1" d="M279 1235v68q239 50 358 159h106v-1312q0 -52 36.5 -69t121.5 -20v-61h-520v61q45 3 72.5 6.5t49.5 12t33 18.5t17.5 32t8 45t1.5 63v1065q-119 -54 -284 -68z" />
<glyph unicode="2" d="M98 0v33q0 78 32 156.5t80 140.5t117.5 126t130 107.5t132.5 89.5q7 4 20 13q130 84 181 135q108 107 108 252q0 139 -99 220t-241 81q-119 0 -208.5 -57.5t-125.5 -166.5h-80v248q232 115 439 115q98 0 190 -30.5t165.5 -85.5t118 -140t44.5 -186q0 -71 -21.5 -135.5 t-54.5 -114t-84.5 -97.5t-100.5 -82t-114 -73q-10 -6 -48 -29t-53 -32.5t-52 -33t-55.5 -37t-51 -38.5t-51 -43t-44 -44t-40.5 -48.5t-30 -50t-23 -54.5h593q42 0 66 2.5t53 12t46.5 32.5t25.5 60h61v-246h-1026z" />
<glyph unicode="3" d="M98 12v232h78q16 -43 44 -71t66.5 -41.5t75 -18t84.5 -4.5q86 0 166.5 24t146.5 69t106 118.5t40 164.5q0 58 -14 104t-36.5 77t-58 53.5t-72.5 35.5t-86 20t-91.5 8.5t-95.5 0.5v138q399 5 399 243q0 53 -25 94t-66 64t-88 35t-96 12q-113 0 -200.5 -42t-124.5 -136h-74 v209q88 42 201.5 67t214.5 25q78 0 153.5 -17.5t144 -53t110.5 -100t42 -148.5q0 -202 -256 -304q150 -40 241 -137t91 -239q0 -39 -10 -83t-34 -95.5t-60.5 -99.5t-94.5 -93.5t-130.5 -79t-174 -54t-219.5 -20.5q-164 0 -297 43z" />
<glyph unicode="4" d="M41 334v151l733 977h152v-977h186v-151h-186v-146q0 -25 0.5 -37.5t5 -31.5t13 -28.5t25.5 -18.5t42 -11v-61h-359v61q34 3 53 11t27.5 27.5t10 35.5t1.5 53v146h-704zM205 485h540v729z" />
<glyph unicode="5" d="M125 -18v258h61q5 -35 18 -59.5t30.5 -38t44 -21.5t51 -10t59.5 -2q103 0 201 33.5t175.5 94t125 152t47.5 199.5q0 137 -87 222t-226 85q-104 0 -194.5 -51.5t-135.5 -141.5l-115 39l27 721h821l-80 -151h-608l-14 -371q64 51 153.5 77.5t177.5 26.5q126 0 233.5 -53.5 t173.5 -154.5t66 -228q0 -296 -262 -483q-111 -79 -256.5 -117.5t-294.5 -38.5q-55 0 -192 13z" />
<glyph unicode="6" d="M90 686q0 120 24 234.5t76 218.5t126.5 182.5t183 125t237.5 46.5q171 0 293 -49v-211h-61q-25 121 -219 121q-93 0 -171.5 -33.5t-132.5 -89t-92 -130t-57 -155t-21 -164.5l5 -4q49 92 151.5 143.5t216.5 51.5q210 0 342.5 -136.5t132.5 -344.5q0 -149 -60.5 -267.5 t-175.5 -187t-265 -68.5q-114 0 -206.5 43t-152 113t-100 164.5t-57.5 193t-17 203.5zM297 467q0 -148 90.5 -253t237.5 -105q101 0 175.5 54t109 137.5t34.5 182.5q0 151 -84.5 251t-232.5 100q-152 0 -241 -106.5t-89 -260.5z" />
<glyph unicode="7" d="M129 1202v260h963q0 -112 -39.5 -224.5t-104.5 -236.5l-98 -198q-89 -176 -154 -371t-65 -344l4 -88h-203l-4 51q0 112 29 234.5t84.5 250t104 221.5t120.5 218l174 336h-651q-44 -1 -70.5 -32t-28.5 -77h-61z" />
<glyph unicode="8" d="M90 412q0 141 70.5 245.5t201.5 161.5q-96 35 -153 114.5t-57 180.5q0 76 26.5 139t71.5 107t105.5 74.5t127.5 44.5t138 14q65 0 128 -15t120 -45.5t101 -73t69.5 -102.5t25.5 -129q0 -104 -57 -185.5t-154 -123.5q127 -35 206 -143.5t79 -241.5q0 -146 -75 -253.5 t-194 -159.5t-264 -52q-103 0 -195 28.5t-164 82.5t-114.5 140t-42.5 192zM283 432q0 -155 89 -239t244 -84q145 0 237.5 85t92.5 228q0 155 -87.5 241.5t-244.5 86.5q-147 0 -239 -86t-92 -232zM332 1126q0 -115 77.5 -176t196.5 -61q121 0 200 60t79 175q0 81 -41.5 134.5 t-103.5 74.5t-142 21q-114 0 -190 -59t-76 -169z" />
<glyph unicode="9" d="M74 971q0 228 137 375t364 147q114 0 206.5 -43t152 -113t100 -164.5t57.5 -193t17 -203.5q0 -120 -24 -234.5t-76 -218.5t-126.5 -182.5t-183 -125t-237.5 -46.5q-171 0 -293 49v211h61q9 -46 46.5 -74t80 -37t93.5 -9q93 0 171.5 33t132 88.5t92 130t57 154.5t20.5 165 l-4 4q-49 -92 -152 -143.5t-217 -51.5q-210 0 -342.5 137t-132.5 345zM254 979q0 -151 84 -250.5t233 -99.5q152 0 241 106.5t89 259.5q0 148 -90.5 253.5t-237.5 105.5q-101 0 -175.5 -54.5t-109 -138t-34.5 -182.5z" />
<glyph unicode=":" horiz-adv-x="614" d="M176 98q0 55 37 94t92 39q56 0 94.5 -38t38.5 -93q0 -53 -37.5 -92t-89.5 -39q-55 0 -95 38t-40 91zM176 823q0 55 37 94t92 39q56 0 94.5 -38t38.5 -93q0 -53 -37.5 -92t-89.5 -39q-55 0 -95 38t-40 91z" />
<glyph unicode=";" horiz-adv-x="614" d="M176 94q0 54 34.5 89.5t88.5 35.5q64 0 101.5 -53.5t37.5 -120.5q0 -155 -176 -375l-69 51q40 52 62 84.5t46.5 84.5t30.5 98q-16 -19 -41 -19q-48 0 -81.5 38t-33.5 87zM176 823q0 55 37 94t92 39q56 0 94.5 -38t38.5 -93q0 -53 -37.5 -92t-89.5 -39q-55 0 -95 38 t-40 91z" />
<glyph unicode="&#x3c;" d="M246 399v101l737 342v-127l-588 -269l588 -260v-118z" />
<glyph unicode="=" d="M160 225v123h909v-123h-909zM160 561v123h909v-123h-909z" />
<glyph unicode="&#x3e;" d="M246 68v127l588 268l-588 260v119l737 -332v-100z" />
<glyph unicode="?" horiz-adv-x="1064" d="M102 1208v226q145 59 304 59q154 0 282 -76.5t200.5 -207t72.5 -285.5q0 -222 -148.5 -343.5t-390.5 -109.5v-145h-90v313q75 -5 137.5 0t121.5 25.5t99.5 57t65 99t24.5 146.5q0 164 -108 277.5t-271 113.5q-82 0 -151.5 -38t-85.5 -112h-62zM256 98q0 55 37 94t92 39 q56 0 94.5 -38t38.5 -93q0 -53 -37.5 -92t-89.5 -39q-55 0 -95 38t-40 91z" />
<glyph unicode="@" horiz-adv-x="1597" d="M82 659q0 177 64 333.5t172.5 265.5t255.5 172t309 63q101 0 193.5 -23t172.5 -70.5t138.5 -115t92 -163t33.5 -208.5q0 -131 -51 -250t-130 -198.5t-174 -126.5t-185 -47q-59 0 -106.5 27t-51.5 81q-111 -108 -244 -108q-97 0 -148.5 69.5t-51.5 169.5q0 82 23 171 t67.5 172t103 149.5t137 106.5t162.5 40q67 0 124.5 -29.5t68.5 -82.5l37 82h157l-241 -553q-26 -60 -39.5 -101t-15.5 -70.5t10 -43t39 -13.5q63 0 131 41.5t125 111.5t94 174t37 218q0 145 -69 252.5t-181.5 161t-251.5 53.5q-196 0 -349 -91.5t-236 -252t-83 -362.5 q0 -259 147 -415.5t400 -156.5q184 0 344 79t246 228h119q-56 -135 -175 -235t-259 -147.5t-283 -47.5q-194 0 -347 81t-242 239t-89 370zM514 449q0 -46 25 -71.5t71 -25.5q138 0 254 256l123 295q21 50 21.5 96.5t-25.5 79.5t-80 33q-59 0 -119.5 -51.5t-107.5 -131.5 t-84.5 -170.5t-57.5 -173.5t-20 -136z" />
<glyph unicode="A" horiz-adv-x="1515" d="M35 0v61q18 5 30.5 13t22 21.5t14 23.5t13.5 31l551 1312h143l563 -1274q1 -2 8.5 -18.5t9.5 -20.5t10 -19t12.5 -20t13 -16t16 -15.5t18 -10t21.5 -7.5v-61h-338v61l9 3q31 10 41 18t8 32.5t-25 73.5l-187 404h-538l-175 -424q-12 -28 -13.5 -47.5t7 -29t17.5 -14.5 t24 -9t21 -7v-61h-297zM510 731h420l-217 490z" />
<glyph unicode="B" horiz-adv-x="1433" d="M100 0v61q65 12 77.5 30.5t12.5 85.5v11v1086v11q0 67 -12.5 85.5t-77.5 30.5v61h607q81 0 148.5 -7t141 -29t124 -58.5t83.5 -100t33 -149.5q0 -104 -66.5 -188.5t-166.5 -110.5v-4q153 -32 246 -136t93 -257q0 -92 -33.5 -165.5t-88.5 -120.5t-130 -78.5t-153 -44.5 t-162 -13h-676zM383 139h362q62 0 116 7t108.5 27t93.5 51t63.5 83.5t24.5 120.5q0 75 -26 133t-68 93.5t-101 58t-119 31t-128 8.5h-326v-613zM383 885h362q59 0 109 10.5t94.5 34.5t70 69.5t25.5 108.5q0 221 -337 221h-324v-444z" />
<glyph unicode="C" horiz-adv-x="1474" d="M96 813q0 150 60.5 279t162 216t236 136t281.5 49q311 0 544 -219l-186 -180l-49 34q20 27 20 56q0 46 -35.5 80.5t-89.5 52t-103.5 25.5t-92.5 8q-243 0 -389 -150t-146 -393q0 -140 59 -269.5t156 -222t228 -147.5t270 -55q82 0 143 33.5t80 107.5h55v-254 q-130 -31 -253 -31q-173 0 -337 56t-298 163q-145 115 -230.5 280t-85.5 345z" />
<glyph unicode="D" horiz-adv-x="1556" d="M109 0v61q33 7 49 12.5t24.5 21t9.5 30t1 51.5v12v1086q0 73 -7 89q-11 23 -63 35q-7 1 -14 3v61h366q108 0 186.5 -6.5t166.5 -25t167.5 -57.5t155.5 -99q145 -115 228 -287.5t83 -357.5q0 -126 -37.5 -230.5t-104 -177.5t-158 -123.5t-198.5 -74t-227 -23.5h-628z M385 139h313q259 0 405 126.5t146 381.5q0 167 -68.5 312.5t-199.5 240.5q-62 46 -131.5 74t-152.5 40t-147 15.5t-165 3.5v-1194z" />
<glyph unicode="E" horiz-adv-x="1433" d="M113 0v61q31 5 48.5 12t25.5 23.5t9 30t1 47.5v4.5v4.5v5v1086q0 71 -7 87q-12 31 -73 39q-2 1 -4 1v61h1204v-239h-62q-21 65 -52.5 82.5t-104.5 17.5h-709v-428h457q5 0 29.5 -0.5t33 0t29.5 2.5t31 7t23.5 13t21.5 21t12 31h61v-283h-61q-5 21 -14.5 34.5t-18.5 20.5 t-26.5 10.5t-27.5 4t-34 0.5h-14h-502v-617h709h9q34 0 50.5 0.5t44.5 3.5t43.5 11t33.5 21t29 35t17 52h61v-262h-1273z" />
<glyph unicode="F" horiz-adv-x="1310" d="M98 0v61q55 12 65.5 30.5t10.5 83.5v13v1086q0 74 -7 90q-10 23 -59 35q-4 1 -10 2v61h1178v-272h-62q-2 33 -14 57.5t-36 39t-45.5 23t-58.5 11.5t-58.5 3.5t-61.5 -0.5t-53 -1h-520v-428h442h25.5h26.5t23.5 1.5t24 4.5t19 8.5t19 13.5t13.5 20t11 28h61v-289h-61 q-4 22 -12.5 36.5t-17 22t-26 11t-27.5 4t-34 0.5h-12h-475v-568v-16q0 -59 9.5 -76t59.5 -35v-61h-338z" />
<glyph unicode="G" horiz-adv-x="1556" d="M88 801q0 126 39.5 236t110 192.5t165 142.5t207 90.5t234.5 30.5q165 0 317.5 -67.5t247.5 -192.5l-178 -172l-53 39q32 28 32 59q0 47 -42.5 86t-104 61.5t-119.5 35t-98 12.5q-245 0 -395 -157t-150 -404q0 -134 41 -247t113.5 -192.5t171 -135.5t214 -82.5 t242.5 -26.5q52 0 82 10v534v16q0 59 -9.5 76t-59.5 35v62h338v-62q-55 -12 -65.5 -30.5t-10.5 -83.5v-13v-530q0 -33 9.5 -44.5t41.5 -17.5v-61q-143 -31 -287 -31q-211 0 -387 41.5t-319 147.5q-153 113 -240.5 284t-87.5 359z" />
<glyph unicode="H" horiz-adv-x="1474" d="M123 0v61q55 12 65.5 30.5t10.5 83.5v13v1086q0 74 -7 90q-10 23 -59 35q-4 1 -10 2v61h338v-61q-53 -19 -61.5 -37t-8.5 -90v-383h692v383v16q0 59 -9.5 76t-59.5 35v61h338v-61q-55 -12 -65.5 -30.5t-10.5 -83.5v-7v-6v-1086q0 -74 7 -90q10 -23 59 -35q4 -1 10 -2v-61 h-338v61q50 18 59.5 35t9.5 76v16v564h-692v-564q0 -72 8.5 -90t61.5 -37v-61h-338z" />
<glyph unicode="I" horiz-adv-x="532" d="M88 0v61q59 12 70.5 30.5t11.5 84.5v12v1086v12q0 66 -10 82q-13 21 -72 33v61h356v-61q-62 -19 -72 -37t-10 -90v-1086q0 -72 10 -90t72 -37v-61h-356z" />
<glyph unicode="J" horiz-adv-x="1187" d="M29 299l204 156l43 -56q-4 -4 -11 -10.5t-9.5 -9.5t-7.5 -8.5t-7 -9.5t-4 -10.5t-3 -13t-1 -15.5q0 -59 46.5 -106t107 -69t117.5 -22q98 0 164 29t100 85t47.5 122t13.5 157v756v16q0 64 -9 80q-14 19 -66 31v61h338v-61q-53 -19 -61.5 -37t-8.5 -90v-703 q0 -96 -13.5 -179t-49.5 -162.5t-92 -135.5t-146 -90.5t-207 -34.5q-165 0 -290.5 88t-194.5 242z" />
<glyph unicode="K" horiz-adv-x="1474" d="M117 0v61q55 12 65.5 30.5t10.5 83.5v13v1086q0 74 -7 90q-10 23 -59 35q-4 1 -10 2v61h338v-61q-53 -19 -61.5 -37t-8.5 -90v-438l545 460q71 60 71 79.5t-71 25.5v61h418v-61q-38 -3 -76 -20t-57.5 -31t-57.5 -46q-2 -2 -3.5 -3t-3 -2.5t-3.5 -2.5l-334 -280l481 -842 q5 -8 16 -28t14.5 -25.5t13.5 -18t19 -17.5t23 -11.5t33 -10.5v-63h-369v63q57 10 65 17q13 12 -13 57l-430 752l-281 -238v-463q0 -72 8.5 -90t61.5 -37v-61h-338z" />
<glyph unicode="L" horiz-adv-x="1187" d="M111 0v61q57 13 66 31.5t9 95.5v1086v16q0 64 -9 80q-14 19 -66 31v61h338v-61q-53 -19 -61.5 -37t-8.5 -90v-1135h543q89 0 129.5 21.5t56.5 99.5h61v-260h-1058z" />
<glyph unicode="M" horiz-adv-x="1679" d="M12 0v61q21 6 35 16.5t22.5 28.5t12 31t8.5 39l203 1127q8 35 8 54q0 11 -3 16q-7 15 -58 28v61h260l344 -831l319 831h264v-61q-51 -4 -61 -24t2 -58l221 -1155q8 -47 23 -69.5t55 -33.5v-61h-319v61q21 3 34 10t19 14t7 19t-0.5 20t-4.5 21.5t-4 18.5l-193 1048 l-338 -868h-86l-360 868l-178 -1048q-6 -23 -6 -40t6 -30q10 -26 53 -33v-61h-285z" />
<glyph unicode="N" horiz-adv-x="1556" d="M113 0v61q62 12 74 30.5t12 85.5v11v1086v11q0 67 -12 85.5t-74 30.5v61h282l824 -717v529q0 73 -7 89q-11 23 -63 35q-7 1 -14 3v61h307v-61q-55 -12 -65.5 -30.5t-10.5 -83.5v-7v-6v-1086q0 -74 7 -90q10 -23 59 -35q4 -1 10 -2v-61h-307v61q33 7 49 12.5t24.5 21 t9.5 30t1 51.5v12v301l-873 764v-1065v-11q0 -67 12 -85.5t74 -30.5v-61h-319z" />
<glyph unicode="O" horiz-adv-x="1679" d="M90 748q0 214 98.5 385t271 265.5t386.5 94.5q162 0 300.5 -57.5t235.5 -158t152 -241t55 -301.5q0 -216 -93.5 -390.5t-265 -275t-388.5 -100.5q-221 0 -393.5 102.5t-265.5 279.5t-93 397zM303 735q0 -131 33.5 -242.5t99 -198t171.5 -136t241 -49.5q131 0 233.5 47.5 t166 131t96 192.5t32.5 237q0 133 -33 246t-98 201.5t-172 139t-246 50.5q-106 0 -193 -32t-148 -88.5t-102.5 -134.5t-61 -169.5t-19.5 -194.5z" />
<glyph unicode="P" horiz-adv-x="1187" d="M88 0v61q33 7 49 12.5t24.5 21t9.5 30t1 51.5v12v1086q0 73 -7 89q-11 23 -63 35q-7 1 -14 3v61h535q81 0 154 -9.5t148.5 -36t129.5 -67.5t88.5 -110t34.5 -158q0 -64 -19.5 -122.5t-56.5 -107t-82.5 -91t-105.5 -79t-116.5 -66.5t-125 -57.5t-122 -47t-114.5 -41.5 q-49 -17 -71 -25v-256v-11q0 -63 11.5 -80t72.5 -36v-61h-361zM365 590q202 75 283 114q337 162 337 375q0 64 -25.5 111.5t-63 73.5t-93.5 41t-104.5 19.5t-108.5 4.5h-225v-739z" />
<glyph unicode="Q" horiz-adv-x="1679" d="M90 725q0 209 99 385t273 279.5t384 103.5q154 0 292.5 -60t237.5 -161.5t157 -241t58 -293.5q0 -144 -54 -282t-151 -250q23 -30 84 -65.5t95 -35.5q26 0 41.5 20.5t15.5 47.5h51v-213q-35 -14 -84 -14q-153 0 -323 151q-91 -67 -191.5 -97t-243.5 -30 q-207 0 -377.5 102t-267 275t-96.5 379zM303 719q0 -126 34.5 -235.5t100 -193.5t170 -132.5t236.5 -48.5q191 0 303 96q-149 145 -289 145q-105 0 -205 -84l-67 78q49 64 129 103.5t162 39.5q187 0 380 -170q61 83 91 194t30 226q0 124 -35 234.5t-101 196t-170 136 t-232 50.5q-132 0 -237 -52.5t-169 -142t-97.5 -201.5t-33.5 -239z" />
<glyph unicode="R" horiz-adv-x="1351" d="M113 0v61q57 13 66 31.5t9 95.5v1086v16q0 64 -9 80q-14 19 -66 31v61h614q81 0 151 -12t133.5 -40.5t108 -72t71 -110.5t26.5 -152q0 -128 -61.5 -221t-161 -140.5t-226.5 -54.5l375 -489q22 -29 31.5 -40.5t28.5 -30t39.5 -27t47.5 -11.5v-61h-250l-487 659h-172v-471 q0 -72 8.5 -90t61.5 -37v-61h-338zM381 793h229q46 0 84 2t84 9t82 18.5t72 32t59.5 48t38 68.5t14.5 92q0 77 -27 131t-77 82.5t-108 40.5t-132 12h-319v-536z" />
<glyph unicode="S" horiz-adv-x="1310" d="M57 332l215 131l41 -57q-2 -2 -10.5 -10t-11 -10t-9.5 -9.5t-9.5 -11t-7 -11t-6.5 -13t-3.5 -13t-1.5 -15.5q0 -57 46 -100t116 -64t132.5 -30.5t113.5 -9.5q71 0 137.5 13t128.5 42t99.5 84t37.5 129q0 60 -32.5 106.5t-87 77t-125 56t-149 47.5t-157 46.5t-149 58 t-125 76.5t-87 108.5t-32.5 148.5q0 81 32.5 147.5t86 111t123.5 75t143 44t147 13.5q150 0 272 -51t242 -156l-161 -190l-58 37q25 48 25 73q0 43 -37 74.5t-93 46t-103.5 21t-86.5 6.5q-53 0 -111 -11t-116 -34t-95.5 -66t-37.5 -100q0 -56 32.5 -100t87 -73.5t125 -53.5 t149 -47t157 -48.5t149 -62t125 -83t87 -117.5t32.5 -159q0 -75 -25 -139.5t-69.5 -110.5t-101.5 -81.5t-124 -56.5t-134.5 -31.5t-135.5 -10.5q-453 0 -590 363z" />
<glyph unicode="T" horiz-adv-x="1310" d="M33 1219v243h1245v-243h-61q-2 26 -6 44t-13.5 29.5t-16.5 18t-25 9t-29 3t-38 0.5h-8.5h-7.5h-321v-1135v-11q0 -67 12 -85.5t74 -30.5v-61h-365v61q62 12 74 30.5t12 85.5v11v1135h-307h-19q-31 0 -45 -0.5t-33.5 -5.5t-28.5 -16t-18 -31t-14 -51h-61z" />
<glyph unicode="U" horiz-adv-x="1474" d="M90 588q0 329 252 753q9 15 9 26q0 19 -26 26q-12 3 -53 8v61h367v-61q-25 -5 -48.5 -20t-38 -28t-36 -44.5t-27.5 -41.5t-26 -47q-5 -9 -8 -14q-152 -285 -152 -602q0 -225 125 -350q40 -41 83 -65.5t97 -34.5t93 -12.5t110 -2.5h266v1135q0 74 -7 90q-10 23 -59 35 q-4 1 -10 2v61h349v-61q-58 -19 -69 -36t-11 -79v-12v-1086v-12q0 -66 11 -84.5t69 -30.5v-61h-615q-292 0 -454 135q-95 78 -143 199.5t-48 253.5z" />
<glyph unicode="V" horiz-adv-x="1310" d="M20 1401v61h357v-61q-61 -5 -69 -27q-2 -6 -2 -13q0 -21 17 -56q1 -3 1.5 -5t1.5 -5t2 -5l364 -985l352 952q1 4 8 21t11.5 30t6.5 31.5t-3 30.5t-21.5 21.5t-44.5 9.5v61h306v-61q-14 0 -25 -3.5t-20 -11.5t-15 -13.5t-12.5 -19.5t-9 -19.5t-8.5 -22.5t-7 -21 l-489 -1290h-121l-489 1296q-22 60 -40 79q-19 21 -51 26z" />
<glyph unicode="W" horiz-adv-x="1925" d="M10 1401v61h338v-61q-19 1 -32 -2t-19 -9.5t-9.5 -13t-1.5 -17.5t3.5 -17t6 -18t5.5 -15l348 -1030l248 743l-84 270q-10 29 -15 42.5t-16.5 30.5t-27.5 24.5t-41 11.5v61h340v-61q-17 -1 -28.5 -4.5t-19.5 -6t-11.5 -9.5t-5.5 -10.5t0.5 -15.5t4 -17t7.5 -22t8 -24 l325 -1013l322 954q29 84 29 105q0 39 -51 57q-8 3 -19 6v61h291v-61q-13 -3 -23.5 -7t-18.5 -11.5t-13 -12.5t-10.5 -17t-8 -17t-7.5 -21t-7 -21l-437 -1294h-149l-266 803l-267 -803h-145l-442 1294q-16 50 -36 75t-65 32z" />
<glyph unicode="X" horiz-adv-x="1392" d="M18 0v61q33 4 63.5 25t47.5 41.5t41 54.5l412 586l-355 504q-3 4 -22.5 31.5t-27.5 37t-26 27t-36 25t-39 8.5v61h387v-61q-56 0 -56 -28q0 -14 15 -36l295 -419l268 389q14 21 20 35t8.5 22.5t-6.5 14.5t-14 8t-25.5 6.5t-29.5 7.5v61h362v-61q-17 -1 -32 -5 t-28.5 -13.5t-22.5 -16t-21.5 -22t-18 -22t-19 -27t-17.5 -25.5l-334 -477l412 -590q52 -77 80 -103q37 -32 75 -39v-61h-399v61q63 22 69 32t-22 50l-350 500l-305 -440q-6 -9 -16.5 -23.5t-16 -22.5t-12 -19.5t-8.5 -18t-3 -15t3.5 -13.5t12.5 -11t21.5 -10.5t32.5 -8.5 v-61h-363z" />
<glyph unicode="Y" horiz-adv-x="1269" d="M16 1401v61h346v-61q-57 -7 -57 -25q0 -16 25 -57l336 -614l297 573q36 68 39 81q6 28 -32 38q-11 2 -26 4v61h307v-61q-11 -2 -21 -5t-18.5 -8.5t-15.5 -10t-14.5 -14t-11.5 -14.5t-11 -17.5t-9.5 -17t-10 -18.5t-9.5 -18l-389 -735v-355q0 -69 7 -84q10 -22 59 -38 q6 -3 14 -5v-61h-358v61q62 12 74 30.5t12 85.5v11v342l-406 750q-14 24 -23.5 39t-26.5 35.5t-36 32t-41 14.5z" />
<glyph unicode="Z" d="M82 0v88l792 1235h-442q-7 0 -33.5 0.5t-34 0t-29 -2t-30 -5.5t-24 -11t-23 -17t-16 -25.5t-13.5 -35.5h-61v235h954v-88l-786 -1235h567q10 0 32.5 -0.5t30.5 0t25.5 1.5t24 4t19.5 8t19 13t15 19.5t14.5 27.5t10.5 36h61v-248h-1073z" />
<glyph unicode="[" horiz-adv-x="655" d="M184 -446v1939h336v-143h-48.5t-36 -2t-28.5 -4t-18.5 -8.5t-13.5 -13.5l-6 -21t-4 -28v-38v-1423q0 -32 0.5 -49t8 -32t13.5 -20t29 -9.5t41 -4.5h63v-143h-336z" />
<glyph unicode="\" horiz-adv-x="614" d="M-25 1462h134l532 -1462h-133z" />
<glyph unicode="]" horiz-adv-x="655" d="M135 -303h49t36.5 2t28.5 4t18 8.5t13.5 13.5t6 20.5t4 28t0.5 38.5v1423q0 24 -0.5 38.5t-4 28t-6 20.5t-13.5 13.5t-18 8.5t-28.5 4t-36.5 2h-49v143h336v-1939h-336v143z" />
<glyph unicode="^" d="M233 702l328 760h101l333 -760h-139l-248 570l-235 -570h-140z" />
<glyph unicode="_" horiz-adv-x="1024" d="M0 -160h1024v-147h-1024v147z" />
<glyph unicode="`" horiz-adv-x="655" d="M143 1382q0 27 22.5 53.5t49.5 26.5q7 0 14.5 -2t13.5 -4t14 -7t12.5 -8t12.5 -11l11 -11t11 -12t10 -11t10 -12l8 -10l174 -217l-27 -31l-227 144q-1 1 -13 8.5t-16 9.5t-15.5 10t-16.5 12.5t-14.5 12t-14 14t-10 14t-7.5 15.5t-2 16z" />
<glyph unicode="a" horiz-adv-x="1146" d="M100 291q0 68 26.5 124.5t63.5 95t102 70.5t116.5 49.5t134 33.5t128 22.5t122.5 15.5v5q1 37 -13 67q-14 32 -38.5 51t-57.5 32t-66 18.5t-69 5.5q-96 0 -179 -33.5t-114 -108.5h-61v166q154 99 374 99q182 0 289 -68q72 -45 93.5 -108t21.5 -166v-504q0 -26 0.5 -36 t3.5 -24.5t10.5 -20.5t21 -12t35.5 -10v-55h-251v121q-81 -76 -157 -114t-169 -38q-94 0 -176.5 37.5t-136.5 112.5t-54 172zM281 293q0 -82 66.5 -133t148.5 -51q83 0 161.5 47t135.5 120v306q-49 -4 -96.5 -11.5t-109.5 -21t-113 -35.5t-96.5 -51.5t-71 -73.5t-25.5 -96z " />
<glyph unicode="b" horiz-adv-x="1187" d="M70 1407v55h270v-553q69 47 158 71t176 24q193 0 318.5 -127t125.5 -318q0 -134 -51 -242t-139.5 -176.5t-202.5 -104.5t-244 -36h-397v55q53 6 64.5 25.5t11.5 77.5v1147q0 31 -1.5 44.5t-10 28t-27 20.5t-51.5 9zM340 123h96q101 0 188 25t155.5 74t107.5 130t39 185 q0 146 -75.5 236.5t-219.5 90.5q-79 0 -158.5 -27.5t-132.5 -80.5v-633z" />
<glyph unicode="c" horiz-adv-x="1105" d="M86 528q0 109 44.5 200t118.5 150.5t170.5 92.5t201.5 33q244 0 421 -168l-159 -174l-54 40q27 27 27 58q0 32 -25.5 56.5t-63.5 38t-74 20t-64 6.5q-155 0 -252.5 -96t-97.5 -250q0 -125 63.5 -227.5t170 -159t230.5 -56.5q36 0 68.5 8t60 30.5t31.5 57.5h55v-196 q-82 -23 -182 -23q-99 0 -197 22.5t-187 69t-157 111.5t-108.5 157.5t-40.5 198.5z" />
<glyph unicode="d" horiz-adv-x="1187" d="M84 436q0 40 7.5 85t28.5 101.5t53 108.5t85.5 102.5t121.5 87.5t166.5 60t215.5 23h98v301q0 26 -0.5 37t-4.5 25.5t-12 20.5t-23 11.5t-38 7.5v55h258v-1284q0 -27 0.5 -39.5t3.5 -29t9 -23.5t17 -14.5t27.5 -11t41.5 -5.5v-55h-279v119q-65 -69 -156.5 -109.5 t-185.5 -40.5q-119 0 -220 66.5t-157.5 174t-56.5 226.5zM264 451q0 -140 86 -241t223 -101q159 0 287 178v594h-98q-101 0 -190 -27.5t-158.5 -79.5t-109.5 -135.5t-40 -187.5z" />
<glyph unicode="e" horiz-adv-x="1105" d="M86 508q0 133 63 246.5t174 181.5t244 68q142 0 249 -66.5t161 -181.5q49 -105 49 -234v-24h-760q8 -179 116 -292.5t286 -113.5q51 0 101 13t94 46.5t59 81.5h51v-186q-169 -78 -330 -78q-156 0 -282.5 66.5t-200.5 190t-74 282.5zM276 621h558q0 114 -72 187t-184 73 q-115 0 -199 -72t-103 -188z" />
<glyph unicode="f" horiz-adv-x="614" d="M53 850v123h121v153q0 82 14.5 145.5t47.5 115t92.5 79t144.5 27.5q121 0 199 -37v-182h-56q-10 49 -48 78.5t-89 29.5q-40 0 -66 -14t-38.5 -41t-16.5 -54t-4 -65v-235h234v-123h-234v-692q0 -32 1.5 -45.5t10 -29t27.5 -21.5t53 -7v-55h-372v55q37 1 58 7t30 21.5 t10.5 29t1.5 45.5v692h-121z" />
<glyph unicode="g" horiz-adv-x="1187" d="M66 -262l178 158l43 -39q-29 -42 -29 -60q0 -38 29 -66.5t75.5 -43.5t94.5 -22t94 -7q80 0 155.5 25t131 84t55.5 141q0 77 -47 184q-65 -45 -100.5 -66t-92 -39t-118.5 -18q-191 0 -322 127.5t-131 319.5q0 127 53 234t141.5 176.5t202 108t236.5 38.5h397v-55 q-32 -2 -49.5 -7.5t-25.5 -20t-9.5 -28t-1.5 -45.5v-518q0 -137 16 -219q23 -117 23 -152q0 -82 -29.5 -149.5t-78.5 -112.5t-116.5 -75.5t-141.5 -44t-154 -13.5q-141 0 -266 51.5t-213 153.5zM262 422q0 -127 82 -228.5t203 -101.5q89 0 168 50.5t131 131.5v576h-164 q-66 0 -138 -29t-135.5 -81.5t-105 -136t-41.5 -181.5z" />
<glyph unicode="h" horiz-adv-x="1187" d="M68 0v55q26 1 42 6.5t25 11.5t13.5 21.5t5 26.5t0.5 37v1147q0 31 -1.5 44.5t-9.5 28t-25.5 20.5t-49.5 9v55h266v-588q62 65 151 97.5t183 32.5q168 0 264 -91t96 -258v-497q0 -32 1.5 -45.5t10 -29t27.5 -21.5t53 -7v-55h-358v55q26 1 42 6.5t25 11.5t13.5 21.5t5 26.5 t0.5 37v426q0 64 -9.5 110.5t-33 87t-69.5 61.5t-113 21q-89 0 -166 -43.5t-123 -120.5v-542q0 -32 1.5 -45.5t10 -29t27.5 -21.5t53 -7v-55h-358z" />
<glyph unicode="i" horiz-adv-x="532" d="M80 0v55q40 1 62.5 7t32.5 22t11.5 29t1.5 45v659q0 32 -1 44.5t-8 28t-23 21.5t-45 9v55h258v-817q0 -26 0.5 -37t4.5 -26.5t12.5 -21.5t24.5 -11.5t40 -6.5v-55h-371zM154 1288q0 50 35 83.5t83 33.5q52 0 87.5 -35t35.5 -86q0 -52 -37.5 -86.5t-89.5 -34.5 q-50 0 -82 36.5t-32 88.5z" />
<glyph unicode="j" horiz-adv-x="532" d="M-80 -254h55q8 -39 36 -62.5t69 -23.5q26 0 45.5 8t31 25.5t18.5 33t9.5 43t3 42t0.5 43.5v962q0 26 -0.5 37t-4.5 25.5t-12.5 21t-24 12t-40.5 7.5v55h263v-1014q0 -72 -8 -131t-29.5 -116t-57 -95.5t-93 -62t-134.5 -23.5q-72 0 -127 16v197zM154 1288q0 50 35 83.5 t83 33.5q52 0 87.5 -35t35.5 -86q0 -52 -37.5 -86.5t-89.5 -34.5q-50 0 -82 36.5t-32 88.5z" />
<glyph unicode="k" horiz-adv-x="1187" d="M78 1407v55h270v-909l381 309q31 23 31 37q0 13 -21 17.5t-49 1.5v55h389v-39q-38 -6 -66 -21t-71 -47l-301 -219l360 -493q33 -47 60.5 -69t75.5 -30v-55h-389v55q20 3 32 6t23.5 13t11.5 26q0 6 -3 14t-6.5 13.5t-9.5 14.5l-8 12l-280 399l-160 -139v-256 q0 -32 1.5 -45.5t9.5 -29t27 -21.5t52 -7v-55h-356v55q26 1 42 6.5t25 11.5t13.5 21.5t5 26.5t0.5 37v1147q0 31 -1.5 44.5t-10 28t-27 20.5t-51.5 9z" />
<glyph unicode="l" horiz-adv-x="532" d="M88 1407v55h270v-1304q0 -26 0.5 -37t5 -26.5t13.5 -21.5t25 -11.5t42 -6.5v-55h-354v55q61 3 74.5 23.5t13.5 79.5v1147q0 31 -1.5 44.5t-10 28t-27 20.5t-51.5 9z" />
<glyph unicode="m" horiz-adv-x="1884" d="M68 0v55q26 1 42 6.5t25 11.5t13.5 21.5t5 26.5t0.5 37v659q0 31 -1.5 44.5t-8.5 28.5t-23.5 21t-46.5 9v55h260v-101q62 65 151 97.5t183 32.5q105 0 190.5 -40.5t130.5 -123.5q58 80 159 122t212 42q182 0 272 -101.5t90 -284.5v-460q0 -31 1.5 -45t10 -29.5t28 -21.5 t53.5 -7v-55h-359v55q26 1 42 6.5t25 11.5t13.5 21.5t5 26.5t0.5 37v426v17q0 135 -45 197q-48 66 -180 66q-117 0 -203 -66.5t-86 -179.5v-460q0 -32 1.5 -45.5t10 -29t27.5 -21.5t53 -7v-55h-358v55q26 1 42 6.5t25 11.5t13.5 21.5t5 26.5t0.5 37v426q0 64 -9.5 110.5 t-33 87t-69.5 61.5t-113 21q-89 0 -166 -43.5t-123 -120.5v-542q0 -32 1.5 -45.5t10 -29t27.5 -21.5t53 -7v-55h-358z" />
<glyph unicode="n" horiz-adv-x="1187" d="M68 0v55q26 1 42 6.5t25 11.5t13.5 21.5t5 26.5t0.5 37v659q0 31 -1.5 44.5t-9.5 28.5t-25.5 21t-49.5 9v55h266v-101q62 65 151 97.5t183 32.5q168 0 264 -91t96 -258v-497q0 -32 1.5 -45.5t10 -29t27.5 -21.5t53 -7v-55h-358v55q26 1 42 6.5t25 11.5t13.5 21.5t5 26.5 t0.5 37v426q0 64 -9.5 110.5t-33 87t-69.5 61.5t-113 21q-89 0 -166 -43.5t-123 -120.5v-542q0 -32 1.5 -45.5t10 -29t27.5 -21.5t53 -7v-55h-358z" />
<glyph unicode="o" horiz-adv-x="1187" d="M74 494q0 224 151 367t375 143q223 0 367.5 -149t144.5 -374q0 -224 -148.5 -368t-371.5 -144q-224 0 -371 149.5t-147 375.5zM256 485q0 -165 92 -279t252 -114q157 0 244.5 110t87.5 271q0 110 -37 200.5t-116.5 149t-188.5 58.5q-106 0 -183.5 -56.5t-114 -145 t-36.5 -194.5z" />
<glyph unicode="p" d="M80 920v55h270v-111q51 64 150 102t190 38q196 0 327.5 -132t131.5 -329q0 -111 -40 -205.5t-109 -161.5t-160 -114.5t-193 -70t-209 -22.5q-17 0 -48 3.5t-40 4.5v-270q0 -32 1.5 -45.5t10 -28.5t27.5 -21t53 -7v-56h-356v56q31 1 48.5 7t25 21t9 28.5t1.5 45.5v1110 q0 31 -1.5 44.5t-9.5 28.5t-27 21t-52 9zM350 109h90q239 0 384 109.5t145 309.5q0 141 -89 238.5t-229 97.5q-94 0 -177.5 -44.5t-123.5 -123.5v-587z" />
<glyph unicode="q" d="M92 406q0 82 21.5 158.5t76 152.5t138 131.5t219 90t307.5 34.5h281v-55q-22 -3 -36 -8.5t-21.5 -11t-10.5 -20.5t-3.5 -24.5t-0.5 -36.5v-1110q0 -32 1.5 -45.5t9.5 -28.5t27 -21t52 -7v-56h-371v56q37 1 58 7t30 21t11 29t2 45v375q-43 -32 -76.5 -52t-104.5 -40.5 t-153 -20.5q-124 0 -228.5 55t-166.5 156t-62 226zM272 428q0 -138 88.5 -228.5t229.5 -90.5q91 0 171 39t122 112v590h-84q-117 0 -210 -26t-151.5 -67.5t-96.5 -98t-53.5 -113.5t-15.5 -117z" />
<glyph unicode="r" horiz-adv-x="737" d="M82 920v55h258v-76q53 53 105.5 79t119.5 26q81 0 146 -29v-205h-56q-7 44 -45.5 69t-85.5 25q-35 0 -70.5 -18t-58.5 -47q-28 -31 -35.5 -64.5t-7.5 -87.5v-489q0 -31 2 -45t11.5 -29.5t32 -21.5t61.5 -7v-55h-373v55q26 1 42 6.5t25 11.5t13.5 21.5t5 26.5t0.5 37v659 q0 31 -1.5 44.5t-9.5 28.5t-27 21t-52 9z" />
<glyph unicode="s" horiz-adv-x="983" d="M66 137l155 168l47 -41q-20 -26 -20 -57q0 -41 39.5 -68.5t89 -37t104.5 -9.5q37 0 76.5 9t77.5 27t62 51t24 75q0 30 -13.5 55t-30.5 40t-48.5 29.5t-50.5 20t-54 15.5l-86 20q-42 11 -75 21.5t-72 27t-67 37.5t-53 48.5t-37.5 65t-12.5 81.5q0 73 35 131t92 91 t122.5 50t133.5 17q96 0 192 -36t164 -100l-133 -178l-51 37q22 26 22 53q0 29 -22.5 50t-57 31.5t-65.5 15t-57 4.5q-89 0 -150 -30t-61 -93q0 -17 5 -32.5t17 -28t22 -22.5t31 -19.5t32 -15t36.5 -13l34 -10t35 -9t28.5 -6.5q46 -11 74 -18t72 -22t72 -29.5t61 -38.5 t51.5 -51t31.5 -65t13 -83q0 -67 -26 -123t-69 -93t-100 -62.5t-117 -36.5t-122 -11q-114 0 -221.5 42.5t-179.5 125.5z" />
<glyph unicode="t" horiz-adv-x="655" d="M35 850v123h129v274l180 41v-315h236v-123h-236v-549v-37.5t2 -37.5t5.5 -41t11.5 -34t19.5 -32t30 -18.5t42.5 -8.5q43 0 74 24.5t32 65.5h55v-182q-84 -31 -163 -31q-153 0 -221 68t-68 221v592h-129z" />
<glyph unicode="u" horiz-adv-x="1187" d="M70 920v55h270v-606q0 -119 52 -189.5t169 -70.5q74 0 159 49.5t138 115.5v543q0 31 -1.5 44.5t-9.5 28.5t-27 21t-52 9v55h270v-817q0 -26 0.5 -37t4.5 -25.5t12 -21t23 -12t38 -7.5v-55h-258v127q-63 -70 -162 -114t-192 -44q-184 0 -264 100.5t-80 284.5v463 q0 31 -1.5 44.5t-9.5 28.5t-27 21t-52 9z" />
<glyph unicode="v" horiz-adv-x="1105" d="M45 918v55h332v-55q-55 -10 -60 -26q-1 -2 -1 -7q0 -19 23 -72q3 -8 5 -12l231 -576l230 576q11 29 15.5 41.5t7 31t-4.5 25.5t-23.5 13t-45.5 6v55h307v-55q-18 0 -32.5 -6t-23 -12t-17.5 -20.5t-12.5 -22.5t-11 -28.5t-10.5 -27.5l-325 -801h-162l-313 801 q-13 34 -23 55t-34 43t-52 19z" />
<glyph unicode="w" horiz-adv-x="1515" d="M27 918v55h319v-55q-54 -5 -60 -24q-1 -4 -1 -9q0 -24 22 -82l217 -572l168 465l-39 107q-1 2 -5.5 16t-6 18t-6.5 16.5t-8 17t-9 14.5t-12 14t-13.5 9.5t-16.5 7.5t-19 2v55h307v-55q-16 -1 -26.5 -4.5t-17 -7t-9 -10.5t-3.5 -12.5t2.5 -16.5t6 -18t8.5 -22t9 -24 l208 -572l195 553q1 2 4.5 13t5.5 18t5.5 20t4 22t0.5 20t-4.5 18.5t-11 14t-19 8.5t-28.5 0v55h279v-55q-11 -2 -21 -6.5t-16.5 -8.5t-13.5 -13.5t-10.5 -14t-9 -17.5t-7 -17t-7 -19.5t-6.5 -18.5l-284 -803h-148l-190 510l-182 -510h-148l-317 829q-8 24 -13 34.5 t-15 26.5t-24 22.5t-34 5.5z" />
<glyph unicode="x" horiz-adv-x="1105" d="M43 0v55q19 3 35.5 10.5t27 14t24.5 22t19.5 22.5t20.5 28l20 28l246 346l-252 330q-3 4 -10 13t-9 11.5t-8 9.5t-8.5 9t-8 7t-9 6t-9.5 3.5t-11.5 3t-13 0.5t-15.5 -1v55h389v-55q-25 -3 -36 -5.5t-21 -9t-7 -19t17 -32.5l164 -227l127 190q2 3 7.5 10.5t10.5 14.5 t11 16.5t9 17t5.5 16.5t0 14t-8.5 10.5t-19 5t-31 -1.5v55h316v-55q-10 1 -19.5 -0.5t-17.5 -3t-16.5 -7t-14 -8.5t-14 -12t-12.5 -12.5t-12 -14.5t-10.5 -13.5t-11 -15t-9.5 -14.5l-211 -291l270 -379q2 -3 11.5 -16t11.5 -15.5t10 -13t11.5 -12.5t11.5 -9.5t13.5 -9.5 t14.5 -6.5t18.5 -6.5t20.5 -3v-55h-375v55q27 0 43.5 4.5t21.5 10.5t3 16.5t-6 16.5t-12 16.5t-9 11.5l-207 289l-174 -240q-40 -55 -40 -86q0 -39 63 -39v-55h-326z" />
<glyph unicode="y" horiz-adv-x="1146" d="M57 918v55h330v-55q-45 -4 -53 -11q-13 -12 6 -59l264 -658l240 621q16 40 16 61q0 9 -3 14q-9 20 -60 32v55h290v-55q-17 -2 -32 -10t-23 -14t-18.5 -24.5t-13.5 -24t-12.5 -30t-10.5 -27.5l-326 -827q-27 -70 -51.5 -122.5t-64.5 -113.5t-83 -100t-104.5 -65.5 t-132.5 -26.5h-106v234h55q15 -44 34.5 -68.5t55.5 -24.5q59 0 116 55t90 124.5t42 128.5l-355 847q-12 28 -20 43t-26.5 30t-43.5 16z" />
<glyph unicode="z" horiz-adv-x="901" d="M57 0v119l500 731h-225h-18q-31 0 -45.5 -0.5t-36 -5.5t-32 -15t-21.5 -29t-17 -48h-56v221h676v-99l-503 -735h296q84 0 105 6q41 13 62 72q5 14 10 31h55v-248h-750z" />
<glyph unicode="{" horiz-adv-x="819" d="M164 518v4q77 14 109 74.5t32 198.5v393q0 123 27.5 187.5t96 92.5t198.5 25v-4q-82 -30 -112 -88.5t-30 -173.5v-391q0 -69 -5 -114t-20 -89t-46.5 -71t-81.5 -40v-4q153 -19 153 -291v-422q0 -115 30 -173.5t112 -88.5v-4q-130 -3 -198.5 25t-96 92.5t-27.5 187.5v422 q0 84 -16.5 133.5t-44 73.5t-80.5 45z" />
<glyph unicode="|" horiz-adv-x="614" d="M246 0v1462h123v-1462h-123z" />
<glyph unicode="}" horiz-adv-x="819" d="M193 -457q82 30 111.5 88.5t29.5 173.5v392q0 69 5 114t20 89t46.5 70.5t81.5 39.5v4q-153 19 -153 291v422q0 115 -29.5 173.5t-111.5 88.5v4q78 2 132 -7t91.5 -29t58.5 -57.5t30 -87.5t9 -124v-422q0 -84 16.5 -133.5t44 -73.5t80.5 -45v-4q-77 -14 -109 -74t-32 -198 v-394q0 -74 -9 -124t-30 -87.5t-58.5 -57.5t-91.5 -29t-132 -7v4z" />
<glyph unicode="~" d="M129 381q60 94 122.5 144t154.5 50q74 0 227 -61q6 -3 28.5 -11.5t30 -11.5t26.5 -10.5t27.5 -10t24 -7.5t25.5 -7t21.5 -3.5t21.5 -1.5q31 0 57.5 10t49.5 32t37.5 40t35.5 49l82 -54q-32 -44 -52 -68.5t-53 -55t-70.5 -44.5t-82.5 -14q-33 0 -77 11.5t-69.5 21 t-81.5 31.5q-150 61 -211 61q-45 0 -83 -22.5t-59 -48.5t-50 -72z" />
<glyph unicode="&#xa1;" horiz-adv-x="573" d="M156 870q0 55 37 94.5t92 39.5q56 0 94.5 -38.5t38.5 -93.5q0 -53 -37.5 -92t-89.5 -39q-55 0 -95 38t-40 91zM172 -336l80 963h70l79 -963q17 -184 -114 -184q-132 0 -115 184z" />
<glyph unicode="&#xa2;" d="M154 782q0 122 62.5 227.5t167 168.5t226.5 69v260h129v-260q169 -22 303 -110l-118 -217l-62 43q8 24 8 36q0 39 -39 69t-84 43t-81 13q-146 0 -233 -96t-87 -242q0 -176 127 -300t305 -124q121 0 146 84h61v-204q-60 -17 -151 -17l-95 6v-268h-129v297 q-197 49 -326.5 191t-129.5 331z" />
<glyph unicode="&#xa3;" d="M23 176q0 92 68 146.5t163 54.5q79 0 201 -37l20 -4q-11 63 -33 127.5t-59.5 153.5t-50.5 124h-164v123h131q-33 82 -33 185q0 121 53 222.5t151 161.5t220 60q111 0 214 -59t183 -152l-163 -192l-39 30q20 29 20 66q0 75 -64 129.5t-141 54.5q-114 0 -185 -85t-71 -202 q0 -93 45 -219h252v-123h-209q7 -23 35.5 -100.5t41 -129.5t12.5 -105q0 -48 -15 -125q5 -2 54.5 -26t69.5 -32t61 -24t72 -22.5t59 -6.5q61 0 106 38.5t45 98.5q0 42 -33.5 74.5t-76.5 32.5q-49 0 -99 -58l-53 76q26 38 69.5 64t86.5 26q104 0 170.5 -82.5t66.5 -189.5 q0 -111 -75 -196t-185 -85q-26 0 -60 9.5t-60.5 20.5t-68.5 34.5t-61.5 35.5t-63 40t-50.5 32l-21 15q-44 -87 -124.5 -137t-176.5 -50q-102 0 -168.5 54t-66.5 153zM121 172q0 -45 37.5 -68.5t85.5 -23.5q66 0 124 35t85 94q-33 25 -94 41t-107 16t-88.5 -25.5t-42.5 -68.5 z" />
<glyph unicode="&#xa4;" d="M180 256l103 102q-99 118 -100 276.5t100 276.5l-103 101l56 55l100 -100q120 97 279.5 99.5t277.5 -99.5l100 100l56 -55l-101 -101q99 -119 99 -276.5t-99 -276.5l101 -102l-56 -53l-100 100q-126 -104 -277.5 -102.5t-279.5 102.5l-100 -100zM305 637q0 -140 85 -232 t222 -92q139 0 225.5 89.5t86.5 230.5q0 142 -84 231.5t-224 89.5q-139 0 -225 -88.5t-86 -228.5z" />
<glyph unicode="&#xa5;" d="M47 1401v61h332v-61q-52 -6 -55.5 -22.5t24.5 -57.5l289 -471l252 430q16 28 25.5 46t11.5 31t2.5 19.5t-10.5 12t-18 7t-28 5.5v61h308v-61q-16 -2 -30.5 -9t-24 -14t-20.5 -22t-16 -23t-15.5 -27t-14.5 -26l-176 -301h178v-123h-250l-96 -166v-90h332v-123h-332v-289 q0 -25 0.5 -37.5t4.5 -31.5t11.5 -28.5t22.5 -18.5t37 -11v-61h-338v61q24 2 40 10t24.5 16.5t12.5 27.5t4.5 32t0.5 41v289h-355v123h355v76l-109 180h-260v123h188l-180 301q-44 71 -69 93q-28 24 -58 28z" />
<glyph unicode="&#xa6;" horiz-adv-x="614" d="M246 0v584h123v-584h-123zM246 879v583h123v-583h-123z" />
<glyph unicode="&#xa7;" horiz-adv-x="1187" d="M127 530q0 109 77 208.5t183 146.5q-78 41 -129 110t-51 152q0 146 115.5 246t265.5 100q203 0 391 -154v-188h-61q-35 109 -119.5 176.5t-198.5 67.5q-62 0 -119 -23t-96 -71.5t-39 -110.5q0 -31 15 -59t36 -47.5t54.5 -39.5t58.5 -31.5t62 -27t51 -22.5l149 -70 q44 -21 69 -33t62 -34t58.5 -39.5t47 -45t38.5 -55.5t22.5 -66t9.5 -81q0 -58 -16.5 -106t-52 -89t-67.5 -68t-87 -67q84 -46 133 -127t49 -176q0 -112 -63.5 -197.5t-160 -127.5t-206.5 -42q-241 0 -452 176v240h61q17 -130 137.5 -223.5t253.5 -93.5q106 0 186 61t80 164 q0 41 -18 77t-43 61t-65 48.5t-70.5 36.5t-73.5 29q-13 5 -40 15q-44 16 -67 25t-65.5 26.5t-67.5 31t-61.5 35t-58 41t-46.5 47t-38.5 56t-23 64t-9.5 74.5zM291 590q0 -42 18 -78t42.5 -59.5t65.5 -46.5t69.5 -34.5t72.5 -27.5l225 -90q16 18 49.5 50.5t53 53.5t36.5 55.5 t17 71.5q0 25 -6.5 48t-21 44t-28 37.5t-38 34t-40.5 29t-46 26.5l-43 21.5t-43.5 20t-36.5 16.5l-174 82l-31 -29q-74 -69 -98 -101q-43 -59 -43 -124z" />
<glyph unicode="&#xa8;" horiz-adv-x="901" d="M145 1288q0 49 39 82t88 33q51 0 87 -34t36 -85q0 -53 -37.5 -87t-89.5 -34t-87.5 36.5t-35.5 88.5zM510 1288q0 49 39 82t88 33q51 0 87 -34t36 -85q0 -53 -37.5 -87t-89.5 -34t-87.5 36.5t-35.5 88.5z" />
<glyph unicode="&#xa9;" horiz-adv-x="1597" d="M49 727q0 157 54 297.5t149.5 244t235 164t303.5 60.5q166 0 308 -59t240 -161t153.5 -242t55.5 -298q0 -218 -95 -392t-269 -273t-396 -99q-215 0 -385 100.5t-262 273t-92 384.5zM188 735q0 -286 169 -464.5t448 -178.5q273 0 438.5 178t165.5 463q0 284 -168.5 460.5 t-447.5 176.5q-272 0 -438.5 -176.5t-166.5 -458.5zM346 727q0 209 128 340t333 131q155 0 317 -61v-242h-65q-6 107 -68 171t-166 64q-76 0 -135 -32t-94 -86t-52.5 -119t-17.5 -137q0 -104 33 -194.5t107 -152t176 -61.5q158 0 258 160l51 -19q-26 -69 -88 -120 t-134.5 -74t-146.5 -23q-197 0 -316.5 128.5t-119.5 326.5z" />
<glyph unicode="&#xaa;" horiz-adv-x="1187" d="M193 563v113h802v-113h-802zM225 987q0 38 12 71.5t30.5 58.5t50 46.5t60.5 36.5t73 28.5t76 21t81 15t77.5 11t74.5 8.5q-1 40 -31.5 66.5t-69 35.5t-84.5 9q-73 0 -135.5 -23.5t-83.5 -75.5h-61v125q132 72 301 72q64 0 114.5 -8.5t83.5 -21.5t56.5 -35t35.5 -41 t18.5 -48t7.5 -48.5t1 -49.5v-342v-14.5v-13.5t0.5 -10.5t2 -9.5t4 -7t7 -6.5t10.5 -4.5t13.5 -4.5t18.5 -3.5v-55h-209v84q-69 -44 -122 -64t-124 -20q-72 0 -137 25t-108.5 75.5t-43.5 116.5zM377 993q0 -52 48.5 -82t109.5 -30q65 0 124 28.5t101 75.5v203q-37 -3 -73 -8 t-82 -14.5t-84.5 -24.5t-72 -35t-52.5 -49t-19 -64z" />
<glyph unicode="&#xab;" horiz-adv-x="737" d="M113 496l163 342l80 -37l-80 -305l80 -291l-80 -47zM381 496l164 342l80 -37l-80 -305l80 -291l-80 -47z" />
<glyph unicode="&#xac;" d="M160 561v123h909v-530h-123v407h-786z" />
<glyph unicode="&#xad;" horiz-adv-x="819" d="M176 424v147h467v-147h-467z" />
<glyph unicode="&#xae;" horiz-adv-x="1597" d="M49 727q0 157 54 297.5t149.5 244t235 164t303.5 60.5q166 0 308 -59t240 -161t153.5 -242t55.5 -298q0 -218 -95 -392t-269 -273t-396 -99q-215 0 -385 100.5t-262 273t-92 384.5zM188 735q0 -286 169 -464.5t448 -178.5q273 0 438.5 178t165.5 463q0 284 -168.5 460.5 t-447.5 176.5q-272 0 -438.5 -176.5t-166.5 -458.5zM434 324v45q69 0 86 13t17 52v670q0 39 -17 52t-86 13v45h357q83 0 141.5 -9t107.5 -32t74 -68t25 -112q0 -96 -72 -161t-168 -70v-4q25 -3 49 -19t41 -34.5t37.5 -52.5t31 -54.5t29.5 -60.5q4 -9 15 -34.5t15.5 -34.5 t14.5 -28.5t16 -27.5t17.5 -20.5t21.5 -17t24 -8.5t30 -4v-38h-59q-7 0 -36 -1t-41.5 0t-34 7t-38.5 18q-25 19 -45.5 59t-33 83t-34.5 89.5t-48.5 81t-76.5 54t-118 12.5v-293q0 -38 19.5 -51.5t90.5 -13.5v-45h-352zM676 780h39q50 0 86 3t76 15t64.5 32.5t41 57 t16.5 87.5q0 186 -211 186q-33 0 -46.5 -1t-30 -5t-22 -14t-9.5 -27t-4 -45v-289z" />
<glyph unicode="&#xaf;" horiz-adv-x="983" d="M145 1223v133h703v-133h-703z" />
<glyph unicode="&#xb0;" horiz-adv-x="819" d="M102 1186q-1 126 89.5 216.5t218.5 90.5q126 0 216.5 -90.5t90.5 -216.5q0 -127 -90.5 -217t-216.5 -90q-128 0 -218 90t-90 217zM184 1186q0 -94 66 -159.5t160 -65.5q93 0 159 66t66 159q0 92 -66.5 158.5t-160.5 66.5q-92 0 -158.5 -66.5t-65.5 -158.5z" />
<glyph unicode="&#xb1;" d="M160 0v123h909v-123h-909zM160 485v123h393v301h123v-301h393v-123h-393v-301h-123v301h-393z" />
<glyph unicode="&#xb2;" horiz-adv-x="737" d="M35 598v18q0 184 319 373q37 22 50.5 30.5t44.5 29.5t44 36t31 38.5t24.5 49.5t6.5 56q0 83 -64.5 131.5t-156.5 48.5q-78 0 -135.5 -33.5t-81.5 -99.5h-51v147q150 70 284 70t235 -73t101 -193q0 -53 -19 -98.5t-56 -82t-75 -63.5t-92 -57q-7 -4 -20 -11 q-53 -29 -83 -47t-75 -50t-73.5 -66.5t-40.5 -71.5h387q21 0 33.5 0.5t29.5 4t27.5 10t19.5 19.5t13 31h40v-147h-667z" />
<glyph unicode="&#xb3;" horiz-adv-x="737" d="M37 604v139h51q20 -49 64 -65t112 -16q119 0 208 60t89 167q0 48 -17.5 82.5t-44 53t-67.5 29t-78.5 12.5t-87.5 1v84q260 0 260 145q0 61 -54.5 92t-123.5 31q-167 0 -213 -106h-47v125q123 55 270 55q51 0 100 -11t93.5 -32.5t72 -60.5t27.5 -89q0 -120 -166 -180 q97 -24 156 -82.5t59 -144.5q0 -34 -12.5 -72t-46.5 -82t-84.5 -78.5t-135 -57.5t-190.5 -23q-110 0 -194 24z" />
<glyph unicode="&#xb4;" horiz-adv-x="655" d="M145 1157l174 217q22 26 33.5 39.5t37.5 31t48 17.5q27 0 48.5 -26.5t21.5 -53.5q0 -8 -2 -16t-7.5 -15.5t-10 -14t-14 -14t-14.5 -12t-16.5 -12.5t-15.5 -10t-16 -9.5t-13 -8.5l-225 -144z" />
<glyph unicode="&#xb5;" horiz-adv-x="1187" d="M70 920v55h270v-606q0 -119 52 -189.5t169 -70.5q74 0 159 49.5t138 115.5v543q0 31 -1.5 44.5t-9.5 28.5t-27 21t-52 9v55h270v-817q0 -26 0.5 -37t4.5 -25.5t12 -21t23 -12t38 -7.5v-55h-258v127q-64 -71 -163 -112.5t-189 -32.5l-146 14q-14 3 -20 -5.5t-4.5 -24 t8.5 -36.5q33 -92 33 -180q0 -76 -38 -138.5t-89 -62.5q-41 0 -65.5 61t-24.5 140q0 42 7 74.5t18.5 61t13.5 36.5q2 13 9.5 40.5t12 46.5t4.5 42t-8 39q-57 114 -57 264v463q0 31 -1.5 44.5t-9.5 28.5t-27 21t-52 9z" />
<glyph unicode="&#xb6;" horiz-adv-x="1187" d="M82 1075q0 78 26 146t77.5 122.5t138 86.5t198.5 32h582v-61q-23 -3 -38 -12t-23 -19t-12 -28.5t-4.5 -30.5t-0.5 -37v-1518q0 -25 0.5 -37t4.5 -30.5t12 -28.5t23 -19t38 -12v-61h-217v1823h-162v-1823h-217v61q23 3 38 12t23 19t12 28.5t4.5 30.5t0.5 37v906 q-99 -6 -189.5 18.5t-160.5 75.5t-112 133.5t-42 185.5z" />
<glyph unicode="&#xb7;" horiz-adv-x="614" d="M176 453q0 55 37 94t92 39q56 0 94.5 -38t38.5 -93q0 -53 -37.5 -92t-89.5 -39q-55 0 -95 38t-40 91z" />
<glyph unicode="&#xb8;" horiz-adv-x="696" d="M145 -244l72 11q4 -51 36 -79t83 -28q43 0 68.5 25.5t25.5 68.5q0 42 -31 71.5t-73 29.5q-9 0 -26 -3t-21 -4l-37 50l59 102h86l-59 -102q42 6 45 6q68 0 117 -44.5t49 -111.5q0 -75 -59.5 -117.5t-137.5 -42.5q-82 0 -138 44t-59 124z" />
<glyph unicode="&#xb9;" horiz-adv-x="737" d="M166 1356v41q154 29 233 96h70v-788q0 -30 23 -40t79 -12v-37h-338v37q82 4 100.5 21.5t18.5 83.5v639q-71 -30 -186 -41z" />
<glyph unicode="&#xba;" horiz-adv-x="1187" d="M193 1137q0 153 115.5 254.5t285.5 101.5q181 0 291 -101.5t110 -265.5q0 -157 -112 -256.5t-289 -99.5q-170 0 -285.5 105t-115.5 262zM199 563v113h790v-113h-790zM350 1137q0 -106 65.5 -185.5t178.5 -79.5q117 0 180.5 70t63.5 182q0 116 -61.5 191.5t-182.5 75.5 q-117 0 -180.5 -72.5t-63.5 -181.5z" />
<glyph unicode="&#xbb;" horiz-adv-x="737" d="M113 195l80 305l-80 291l80 47l163 -338l-163 -342zM381 195l80 305l-80 291l80 47l164 -338l-164 -342z" />
<glyph unicode="&#xbc;" horiz-adv-x="1843" d="M92 1356v41q155 30 234 96h69v-788q0 -30 23.5 -40t79.5 -12v-37h-338v37q82 4 100.5 21.5t18.5 83.5v639q-71 -30 -187 -41zM375 0l952 1462h143l-952 -1462h-143zM1055 201v90l477 586h98v-586h121v-90h-121v-88q0 -24 2 -36.5t15 -25t39 -14.5v-37h-234v37q22 1 35 6 t18.5 16.5t6.5 21.5t1 32v88h-458zM1161 291h352v438z" />
<glyph unicode="&#xbd;" horiz-adv-x="1843" d="M92 1356v41q155 30 234 96h69v-788q0 -30 23.5 -40t79.5 -12v-37h-338v37q82 4 100.5 21.5t18.5 83.5v639q-71 -30 -187 -41zM260 0l952 1462h144l-953 -1462h-143zM1083 0v18q0 58 29.5 114.5t81.5 105t100 83t109 70.5q37 22 50.5 30.5t44.5 29.5t44 36t31 38.5 t24.5 49.5t6.5 56q0 83 -65 131.5t-157 48.5q-78 0 -135.5 -33.5t-81.5 -99.5h-51v147q150 70 285 70q134 0 235 -73t101 -193q0 -53 -19 -98.5t-56 -82t-75 -63.5t-92 -57q-3 -1 -31 -16.5t-35 -19.5t-33.5 -19.5t-36.5 -22.5t-33.5 -23t-34 -26t-28 -26t-27 -29.5 t-19.5 -30t-15 -33.5h387q21 0 33.5 0.5t29.5 4t27.5 10t19.5 19.5t13 31h41v-147h-668z" />
<glyph unicode="&#xbe;" horiz-adv-x="1843" d="M92 604v139h51q20 -49 64 -65t112 -16q119 0 208 60t89 167q0 48 -17.5 82.5t-43.5 53t-67.5 29t-78.5 12.5t-87 1v84q260 0 260 145q0 61 -55 92t-124 31q-167 0 -213 -106h-47v125q123 55 271 55q51 0 100 -11t93.5 -32.5t72 -60.5t27.5 -89q0 -120 -166 -180 q97 -24 156 -82.5t59 -144.5q0 -34 -12.5 -72t-46.5 -82t-84.5 -78.5t-135 -57.5t-190.5 -23q-111 0 -195 24zM451 0l952 1462h143l-952 -1462h-143zM1055 201v90l477 586h98v-586h121v-90h-121v-88q0 -24 2 -36.5t15 -25t39 -14.5v-37h-234v37q22 1 35 6t18.5 16.5 t6.5 21.5t1 32v88h-458zM1161 291h352v438z" />
<glyph unicode="&#xbf;" horiz-adv-x="1064" d="M102 49q0 222 148.5 343.5t390.5 109.5v145h90v-313q-75 5 -137.5 0t-121.5 -25.5t-99.5 -57t-65 -99t-24.5 -146.5q0 -164 108 -277.5t271 -113.5q83 0 152 37.5t85 111.5h62v-225q-145 -59 -304 -59q-154 0 -282 76.5t-200.5 207t-72.5 285.5zM543 870q0 55 37 94.5 t92 39.5q56 0 94.5 -38.5t38.5 -93.5q0 -53 -37.5 -92t-89.5 -39q-55 0 -95 38t-40 91z" />
<glyph unicode="&#xc0;" horiz-adv-x="1515" d="M35 0v61q18 5 30.5 13t22 21.5t14 23.5t13.5 31l551 1312h143l563 -1274q1 -2 8.5 -18.5t9.5 -20.5t10 -19t12.5 -20t13 -16t16 -15.5t18 -10t21.5 -7.5v-61h-338v61l9 3q31 10 41 18t8 32.5t-25 73.5l-187 404h-538l-175 -424q-12 -28 -13.5 -47.5t7 -29t17.5 -14.5 t24 -9t21 -7v-61h-297zM510 731h420l-217 490zM573 1872q0 27 22.5 53.5t49.5 26.5q7 0 14.5 -2t13.5 -4t14 -7t12.5 -8t12.5 -11l11 -11t11 -12t10 -11t10 -12l8 -10l174 -217l-27 -31l-227 143q-71 44 -91 70q-18 22 -18 43z" />
<glyph unicode="&#xc1;" horiz-adv-x="1515" d="M35 0v61q18 5 30.5 13t22 21.5t14 23.5t13.5 31l551 1312h143l563 -1274q1 -2 8.5 -18.5t9.5 -20.5t10 -19t12.5 -20t13 -16t16 -15.5t18 -10t21.5 -7.5v-61h-338v61l9 3q31 10 41 18t8 32.5t-25 73.5l-187 404h-538l-175 -424q-12 -28 -13.5 -47.5t7 -29t17.5 -14.5 t24 -9t21 -7v-61h-297zM510 731h420l-217 490zM575 1647l175 217q23 28 33.5 40t36.5 30t48 18q27 0 48.5 -26.5t21.5 -53.5q0 -46 -102 -108q-5 -4 -7 -5l-225 -143z" />
<glyph unicode="&#xc2;" horiz-adv-x="1515" d="M35 0v61q18 5 30.5 13t22 21.5t14 23.5t13.5 31l551 1312h143l563 -1274q1 -2 8.5 -18.5t9.5 -20.5t10 -19t12.5 -20t13 -16t16 -15.5t18 -10t21.5 -7.5v-61h-338v61l9 3q31 10 41 18t8 32.5t-25 73.5l-187 404h-538l-175 -424q-12 -28 -13.5 -47.5t7 -29t17.5 -14.5 t24 -9t21 -7v-61h-297zM387 1667l311 258l308 -258l-37 -45l-273 152l-276 -152zM510 731h420l-217 490z" />
<glyph unicode="&#xc3;" horiz-adv-x="1515" d="M35 0v61q18 5 30.5 13t22 21.5t14 23.5t13.5 31l551 1312h143l563 -1274q1 -2 8.5 -18.5t9.5 -20.5t10 -19t12.5 -20t13 -16t16 -15.5t18 -10t21.5 -7.5v-61h-338v61l9 3q31 10 41 18t8 32.5t-25 73.5l-187 404h-538l-175 -424q-12 -28 -13.5 -47.5t7 -29t17.5 -14.5 t24 -9t21 -7v-61h-297zM453 1706q37 71 84.5 109t117.5 38q58 0 148 -32q93 -33 117 -33q7 0 13 1t12 4l10 5t10 7.5t9 8.5t9 10.5t8.5 10.5t9.5 12.5t9 12.5l49 -31q-53 -89 -94 -124.5t-119 -35.5q-48 0 -135 35q-82 33 -117 33q-20 0 -33.5 -8t-34 -30.5t-24.5 -25.5z M510 731h420l-217 490z" />
<glyph unicode="&#xc4;" horiz-adv-x="1515" d="M35 0v61q18 5 30.5 13t22 21.5t14 23.5t13.5 31l551 1312h143l563 -1274q1 -2 8.5 -18.5t9.5 -20.5t10 -19t12.5 -20t13 -16t16 -15.5t18 -10t21.5 -7.5v-61h-338v61l9 3q31 10 41 18t8 32.5t-25 73.5l-187 404h-538l-175 -424q-12 -28 -13.5 -47.5t7 -29t17.5 -14.5 t24 -9t21 -7v-61h-297zM412 1778q0 49 38.5 81.5t88.5 32.5q52 0 87.5 -33.5t35.5 -84.5q0 -53 -37.5 -87t-89.5 -34t-87.5 36.5t-35.5 88.5zM510 731h420l-217 490zM776 1778q0 49 38.5 81.5t88.5 32.5q52 0 87.5 -33.5t35.5 -84.5q0 -53 -37.5 -87t-89.5 -34t-87.5 36.5 t-35.5 88.5z" />
<glyph unicode="&#xc5;" horiz-adv-x="1515" d="M35 0v61q18 5 30.5 13t22 21.5t14 23.5t13.5 31l551 1312h143l563 -1274q1 -2 8.5 -18.5t9.5 -20.5t10 -19t12.5 -20t13 -16t16 -15.5t18 -10t21.5 -7.5v-61h-338v61l9 3q31 10 41 18t8 32.5t-25 73.5l-187 404h-538l-175 -424q-12 -28 -13.5 -47.5t7 -29t17.5 -14.5 t24 -9t21 -7v-61h-297zM510 731h420l-217 490zM530 1812q0 80 56 138.5t137 58.5q82 0 138.5 -57.5t56.5 -139.5q0 -78 -56.5 -134t-134.5 -56q-81 0 -139 54.5t-58 135.5zM618 1815q0 -46 31 -75.5t80 -29.5q43 0 71.5 30t28.5 77t-29 75.5t-75 28.5q-47 0 -77 -28.5 t-30 -77.5z" />
<glyph unicode="&#xc6;" horiz-adv-x="2498" d="M23 0v61q25 4 43 10.5t36 24t24 25l30 37.5l1044 1304h1182v-237h-62q-6 29 -17.5 48t-24 29t-36.5 15t-40 5.5t-50 0.5h-669v-432h442h37.5t32 2t34 6.5t24 13t23.5 23.5t13 35h61v-297h-61q-3 17 -8 29.5t-10 21t-15.5 14t-17 8.5t-21.5 4t-22 1.5t-26 0t-27 -0.5h-459 v-613h676h13q33 0 50 0.5t44.5 3.5t43 11t34 21.5t29 36t15.5 52.5h61v-264h-1245v61q26 3 42.5 9t25.5 12t13 22.5t4.5 27t0.5 38.5v18v404h-592l-333 -434q-8 -10 -22.5 -27.5t-18.5 -22.5t-9.5 -15.5t-2 -13t11.5 -7.5t23 -7t40 -4v-61h-364zM809 731h481v598z" />
<glyph unicode="&#xc7;" horiz-adv-x="1474" d="M96 813q0 150 60.5 279t162 216t236 136t281.5 49q311 0 544 -219l-186 -180l-49 34q20 27 20 56q0 46 -35.5 80.5t-89.5 52t-103.5 25.5t-92.5 8q-243 0 -389 -150t-146 -393q0 -140 59 -269.5t156 -222t228 -147.5t270 -55q82 0 143 33.5t80 107.5h55v-254 q-130 -31 -253 -31q-173 0 -337 56t-298 163q-145 115 -230.5 280t-85.5 345zM535 -244l71 11q4 -51 36 -79t83 -28q43 0 68.5 25.5t25.5 68.5q0 42 -31 71.5t-73 29.5q-9 0 -26 -3t-21 -4l-37 50l59 102h86l-59 -102q42 6 45 6q68 0 117 -44.5t49 -111.5 q0 -75 -59.5 -117.5t-137.5 -42.5q-82 0 -137.5 44t-58.5 124z" />
<glyph unicode="&#xc8;" horiz-adv-x="1433" d="M113 0v61q31 5 48.5 12t25.5 23.5t9 30t1 47.5v4.5v4.5v5v1086q0 71 -7 87q-12 31 -73 39q-2 1 -4 1v61h1204v-239h-62q-21 65 -52.5 82.5t-104.5 17.5h-709v-428h457q5 0 29.5 -0.5t33 0t29.5 2.5t31 7t23.5 13t21.5 21t12 31h61v-283h-61q-5 21 -14.5 34.5t-18.5 20.5 t-26.5 10.5t-27.5 4t-34 0.5h-14h-502v-617h709h9q34 0 50.5 0.5t44.5 3.5t43.5 11t33.5 21t29 35t17 52h61v-262h-1273zM532 1872q0 27 22.5 53.5t49.5 26.5q7 0 14.5 -2t13.5 -4t14 -7t12.5 -8t12.5 -11l11 -11t11 -12t10 -11t10 -12l8 -10l174 -217l-27 -31l-227 143 q-71 44 -91 70q-18 22 -18 43z" />
<glyph unicode="&#xc9;" horiz-adv-x="1433" d="M113 0v61q31 5 48.5 12t25.5 23.5t9 30t1 47.5v4.5v4.5v5v1086q0 71 -7 87q-12 31 -73 39q-2 1 -4 1v61h1204v-239h-62q-21 65 -52.5 82.5t-104.5 17.5h-709v-428h457q5 0 29.5 -0.5t33 0t29.5 2.5t31 7t23.5 13t21.5 21t12 31h61v-283h-61q-5 21 -14.5 34.5t-18.5 20.5 t-26.5 10.5t-27.5 4t-34 0.5h-14h-502v-617h709h9q34 0 50.5 0.5t44.5 3.5t43.5 11t33.5 21t29 35t17 52h61v-262h-1273zM535 1647l174 217q23 28 33.5 40t36.5 30t48 18q27 0 48.5 -26.5t21.5 -53.5q0 -46 -102 -108q-5 -4 -7 -5l-225 -143z" />
<glyph unicode="&#xca;" horiz-adv-x="1433" d="M113 0v61q31 5 48.5 12t25.5 23.5t9 30t1 47.5v4.5v4.5v5v1086q0 71 -7 87q-12 31 -73 39q-2 1 -4 1v61h1204v-239h-62q-21 65 -52.5 82.5t-104.5 17.5h-709v-428h457q5 0 29.5 -0.5t33 0t29.5 2.5t31 7t23.5 13t21.5 21t12 31h61v-283h-61q-5 21 -14.5 34.5t-18.5 20.5 t-26.5 10.5t-27.5 4t-34 0.5h-14h-502v-617h709h9q34 0 50.5 0.5t44.5 3.5t43.5 11t33.5 21t29 35t17 52h61v-262h-1273zM412 1667l311 258l307 -258l-37 -45l-272 152l-277 -152z" />
<glyph unicode="&#xcb;" horiz-adv-x="1433" d="M113 0v61q31 5 48.5 12t25.5 23.5t9 30t1 47.5v4.5v4.5v5v1086q0 71 -7 87q-12 31 -73 39q-2 1 -4 1v61h1204v-239h-62q-21 65 -52.5 82.5t-104.5 17.5h-709v-428h457q5 0 29.5 -0.5t33 0t29.5 2.5t31 7t23.5 13t21.5 21t12 31h61v-283h-61q-5 21 -14.5 34.5t-18.5 20.5 t-26.5 10.5t-27.5 4t-34 0.5h-14h-502v-617h709h9q34 0 50.5 0.5t44.5 3.5t43.5 11t33.5 21t29 35t17 52h61v-262h-1273zM412 1778q0 49 38.5 81.5t88.5 32.5q52 0 87.5 -33.5t35.5 -84.5q0 -53 -37.5 -87t-89.5 -34t-87.5 36.5t-35.5 88.5zM776 1778q0 49 38.5 81.5 t88.5 32.5q52 0 87.5 -33.5t35.5 -84.5q0 -53 -37.5 -87t-89.5 -34t-87.5 36.5t-35.5 88.5z" />
<glyph unicode="&#xcc;" horiz-adv-x="532" d="M82 1872q0 27 22.5 53.5t49.5 26.5q8 0 16 -1.5t15.5 -6t14 -8t14.5 -10.5t12.5 -11.5t12.5 -13.5t11 -12.5t11 -13t9 -11.5l174 -217l-26 -31l-228 143q-73 45 -93 74q-15 20 -15 39zM88 0v61q59 12 70.5 30.5t11.5 84.5v12v1086v12q0 66 -10 82q-13 21 -72 33v61h356 v-61q-62 -19 -72 -37t-10 -90v-1086q0 -72 10 -90t72 -37v-61h-356z" />
<glyph unicode="&#xcd;" horiz-adv-x="532" d="M84 1647l174 217q22 26 33.5 39.5t37.5 31t48 17.5q27 0 48 -26t21 -54q0 -46 -102 -109q-4 -3 -6 -4l-225 -143zM88 0v61q59 12 70.5 30.5t11.5 84.5v12v1086v12q0 66 -10 82q-13 21 -72 33v61h356v-61q-62 -19 -72 -37t-10 -90v-1086q0 -72 10 -90t72 -37v-61h-356z " />
<glyph unicode="&#xce;" horiz-adv-x="532" d="M-80 1667l311 258l308 -258l-37 -45l-273 152l-276 -152zM88 0v61q59 12 70.5 30.5t11.5 84.5v12v1086v12q0 66 -10 82q-13 21 -72 33v61h356v-61q-62 -19 -72 -37t-10 -90v-1086q0 -72 10 -90t72 -37v-61h-356z" />
<glyph unicode="&#xcf;" horiz-adv-x="532" d="M-80 1778q0 49 38.5 81.5t88.5 32.5q52 0 87.5 -33.5t35.5 -84.5q0 -53 -37.5 -87t-89.5 -34t-87.5 36.5t-35.5 88.5zM88 0v61q59 12 70.5 30.5t11.5 84.5v12v1086v12q0 66 -10 82q-13 21 -72 33v61h356v-61q-62 -19 -72 -37t-10 -90v-1086q0 -72 10 -90t72 -37v-61h-356 zM285 1778q0 49 38.5 81.5t88.5 32.5q52 0 87.5 -33.5t35.5 -84.5q0 -53 -37.5 -87t-89.5 -34t-87.5 36.5t-35.5 88.5z" />
<glyph unicode="&#xd0;" horiz-adv-x="1556" d="M88 752v139h105v383q0 73 -7 89q-11 23 -63 35q-7 1 -14 3v61h366q108 0 186.5 -6.5t166.5 -25t167.5 -57.5t155.5 -99q145 -115 228 -287.5t83 -357.5q0 -126 -37.5 -230.5t-104 -177.5t-158 -123.5t-198.5 -74t-227 -23.5h-628v61q33 7 49 12.5t24.5 21t9.5 30t1 51.5 v12v564h-105zM385 139h313q259 0 405 126.5t146 381.5q0 167 -68.5 312.5t-199.5 240.5q-62 46 -131.5 74t-152.5 40t-147 15.5t-165 3.5v-442h246v-139h-246v-613z" />
<glyph unicode="&#xd1;" horiz-adv-x="1556" d="M113 0v61q62 12 74 30.5t12 85.5v11v1086v11q0 67 -12 85.5t-74 30.5v61h282l824 -717v529q0 73 -7 89q-11 23 -63 35q-7 1 -14 3v61h307v-61q-55 -12 -65.5 -30.5t-10.5 -83.5v-7v-6v-1086q0 -74 7 -90q10 -23 59 -35q4 -1 10 -2v-61h-307v61q33 7 49 12.5t24.5 21 t9.5 30t1 51.5v12v301l-873 764v-1065v-11q0 -67 12 -85.5t74 -30.5v-61h-319zM473 1706q37 71 85 109t118 38q57 0 147 -32q93 -33 117 -33q7 0 13 1t12 4l10 5t10 7.5t9 8.5t9 10.5t8.5 10.5t9.5 12.5t9 12.5l49 -31q-53 -89 -94 -124.5t-119 -35.5q-48 0 -135 35 q-82 33 -117 33q-20 0 -33.5 -8t-34 -30.5t-24.5 -25.5z" />
<glyph unicode="&#xd2;" horiz-adv-x="1679" d="M90 748q0 214 98.5 385t271 265.5t386.5 94.5q162 0 300.5 -57.5t235.5 -158t152 -241t55 -301.5q0 -216 -93.5 -390.5t-265 -275t-388.5 -100.5q-221 0 -393.5 102.5t-265.5 279.5t-93 397zM303 735q0 -131 33.5 -242.5t99 -198t171.5 -136t241 -49.5q131 0 233.5 47.5 t166 131t96 192.5t32.5 237q0 133 -33 246t-98 201.5t-172 139t-246 50.5q-106 0 -193 -32t-148 -88.5t-102.5 -134.5t-61 -169.5t-19.5 -194.5zM655 1872q0 27 22.5 53.5t49.5 26.5q7 0 14.5 -2t13.5 -4t14 -7t12.5 -8t12.5 -11l11 -11t11 -12t10 -11t10 -12l8 -10 l174 -217l-27 -31l-227 143q-71 44 -91 70q-18 22 -18 43z" />
<glyph unicode="&#xd3;" horiz-adv-x="1679" d="M90 748q0 214 98.5 385t271 265.5t386.5 94.5q162 0 300.5 -57.5t235.5 -158t152 -241t55 -301.5q0 -216 -93.5 -390.5t-265 -275t-388.5 -100.5q-221 0 -393.5 102.5t-265.5 279.5t-93 397zM303 735q0 -131 33.5 -242.5t99 -198t171.5 -136t241 -49.5q131 0 233.5 47.5 t166 131t96 192.5t32.5 237q0 133 -33 246t-98 201.5t-172 139t-246 50.5q-106 0 -193 -32t-148 -88.5t-102.5 -134.5t-61 -169.5t-19.5 -194.5zM657 1647l174 217q22 26 33.5 39.5t37.5 31t48 17.5q27 0 48.5 -26.5t21.5 -53.5q0 -46 -102 -108q-5 -4 -7 -5l-225 -143z" />
<glyph unicode="&#xd4;" horiz-adv-x="1679" d="M90 748q0 214 98.5 385t271 265.5t386.5 94.5q162 0 300.5 -57.5t235.5 -158t152 -241t55 -301.5q0 -216 -93.5 -390.5t-265 -275t-388.5 -100.5q-221 0 -393.5 102.5t-265.5 279.5t-93 397zM303 735q0 -131 33.5 -242.5t99 -198t171.5 -136t241 -49.5q131 0 233.5 47.5 t166 131t96 192.5t32.5 237q0 133 -33 246t-98 201.5t-172 139t-246 50.5q-106 0 -193 -32t-148 -88.5t-102.5 -134.5t-61 -169.5t-19.5 -194.5zM535 1667l311 258l307 -258l-37 -45l-272 152l-277 -152z" />
<glyph unicode="&#xd5;" horiz-adv-x="1679" d="M90 748q0 214 98.5 385t271 265.5t386.5 94.5q162 0 300.5 -57.5t235.5 -158t152 -241t55 -301.5q0 -216 -93.5 -390.5t-265 -275t-388.5 -100.5q-221 0 -393.5 102.5t-265.5 279.5t-93 397zM303 735q0 -131 33.5 -242.5t99 -198t171.5 -136t241 -49.5q131 0 233.5 47.5 t166 131t96 192.5t32.5 237q0 133 -33 246t-98 201.5t-172 139t-246 50.5q-106 0 -193 -32t-148 -88.5t-102.5 -134.5t-61 -169.5t-19.5 -194.5zM535 1706q37 71 84.5 109t117.5 38q58 0 148 -32q93 -33 116 -33q15 0 26 4t25.5 19t17.5 19.5t22 29.5l49 -31 q-53 -89 -94 -124.5t-119 -35.5q-47 0 -135 35q-82 33 -117 33q-20 0 -33.5 -8t-34 -30.5t-24.5 -25.5z" />
<glyph unicode="&#xd6;" horiz-adv-x="1679" d="M90 748q0 214 98.5 385t271 265.5t386.5 94.5q162 0 300.5 -57.5t235.5 -158t152 -241t55 -301.5q0 -216 -93.5 -390.5t-265 -275t-388.5 -100.5q-221 0 -393.5 102.5t-265.5 279.5t-93 397zM303 735q0 -131 33.5 -242.5t99 -198t171.5 -136t241 -49.5q131 0 233.5 47.5 t166 131t96 192.5t32.5 237q0 133 -33 246t-98 201.5t-172 139t-246 50.5q-106 0 -193 -32t-148 -88.5t-102.5 -134.5t-61 -169.5t-19.5 -194.5zM535 1778q0 49 38.5 81.5t88.5 32.5q51 0 86.5 -33.5t35.5 -84.5q0 -53 -37.5 -87t-89.5 -34t-87 36.5t-35 88.5zM899 1778 q0 49 38.5 81.5t88.5 32.5q52 0 87.5 -33.5t35.5 -84.5q0 -53 -37.5 -87t-89.5 -34t-87.5 36.5t-35.5 88.5z" />
<glyph unicode="&#xd7;" d="M160 90l368 365l-368 366l86 88l368 -366l369 366l86 -88l-369 -366l369 -365l-86 -88l-369 367l-368 -367z" />
<glyph unicode="&#xd8;" horiz-adv-x="1679" d="M90 729q0 214 94 388.5t265 275t387 100.5q156 0 290 -45l125 250h135l-151 -299q169 -106 261.5 -278t92.5 -373q0 -161 -54.5 -304.5t-151 -248t-236.5 -165.5t-303 -61q-157 0 -293 45l-133 -270h-139l159 315q-164 93 -256 281t-92 389zM303 733q0 -374 207 -524 l551 1106q-115 39 -211 39q-135 0 -240.5 -48.5t-172 -134t-100.5 -197t-34 -241.5zM616 147q112 -38 228 -38q134 0 238 51t167 140t95 201t32 242q0 159 -49 294.5t-160 215.5z" />
<glyph unicode="&#xd9;" horiz-adv-x="1474" d="M90 588q0 329 252 753q25 40 -17 52q-12 3 -53 8v61h367v-61q-25 -5 -48.5 -20t-38 -28t-36 -44.5t-27.5 -41.5t-26 -47q-5 -9 -8 -14q-152 -285 -152 -602q0 -225 125 -350q40 -41 83 -65.5t97 -34.5t93 -12.5t110 -2.5h266v1135q0 74 -7 90q-10 23 -59 35q-4 1 -10 2 v61h349v-61q-58 -19 -69 -36t-11 -79v-12v-1086v-12q0 -66 11 -84.5t69 -30.5v-61h-615q-292 0 -454 135q-95 78 -143 199.5t-48 253.5zM553 1872q0 27 22.5 53.5t49.5 26.5q8 0 16 -1.5t15.5 -6t14 -8t14.5 -10.5t12.5 -11.5t12.5 -13.5t11 -12.5t11 -13t9 -11.5l174 -217 l-26 -31l-227 143q-71 44 -91 70q-18 22 -18 43z" />
<glyph unicode="&#xda;" horiz-adv-x="1474" d="M90 588q0 329 252 753q25 40 -17 52q-12 3 -53 8v61h367v-61q-25 -5 -48.5 -20t-38 -28t-36 -44.5t-27.5 -41.5t-26 -47q-5 -9 -8 -14q-152 -285 -152 -602q0 -225 125 -350q40 -41 83 -65.5t97 -34.5t93 -12.5t110 -2.5h266v1135q0 74 -7 90q-10 23 -59 35q-4 1 -10 2 v61h349v-61q-58 -19 -69 -36t-11 -79v-12v-1086v-12q0 -66 11 -84.5t69 -30.5v-61h-615q-292 0 -454 135q-95 78 -143 199.5t-48 253.5zM637 1647l174 217q22 26 33.5 39.5t37.5 31t48 17.5q27 0 48 -26t21 -54q0 -46 -102 -109q-4 -3 -6 -4l-225 -143z" />
<glyph unicode="&#xdb;" horiz-adv-x="1474" d="M90 588q0 329 252 753q25 40 -17 52q-12 3 -53 8v61h367v-61q-25 -5 -48.5 -20t-38 -28t-36 -44.5t-27.5 -41.5t-26 -47q-5 -9 -8 -14q-152 -285 -152 -602q0 -225 125 -350q40 -41 83 -65.5t97 -34.5t93 -12.5t110 -2.5h266v1135q0 74 -7 90q-10 23 -59 35q-4 1 -10 2 v61h349v-61q-58 -19 -69 -36t-11 -79v-12v-1086v-12q0 -66 11 -84.5t69 -30.5v-61h-615q-292 0 -454 135q-95 78 -143 199.5t-48 253.5zM432 1667l311 258l308 -258l-37 -45l-273 152l-276 -152z" />
<glyph unicode="&#xdc;" horiz-adv-x="1474" d="M90 588q0 329 252 753q25 40 -17 52q-12 3 -53 8v61h367v-61q-25 -5 -48.5 -20t-38 -28t-36 -44.5t-27.5 -41.5t-26 -47q-5 -9 -8 -14q-152 -285 -152 -602q0 -225 125 -350q40 -41 83 -65.5t97 -34.5t93 -12.5t110 -2.5h266v1135q0 74 -7 90q-10 23 -59 35q-4 1 -10 2 v61h349v-61q-58 -19 -69 -36t-11 -79v-12v-1086v-12q0 -66 11 -84.5t69 -30.5v-61h-615q-292 0 -454 135q-95 78 -143 199.5t-48 253.5zM494 1778q0 49 38.5 81.5t88.5 32.5q51 0 86.5 -33.5t35.5 -84.5q0 -53 -37.5 -87t-89.5 -34t-87 36.5t-35 88.5zM858 1778 q0 49 38.5 81.5t88.5 32.5q52 0 87.5 -33.5t35.5 -84.5q0 -53 -37.5 -87t-89.5 -34t-87.5 36.5t-35.5 88.5z" />
<glyph unicode="&#xdd;" horiz-adv-x="1269" d="M16 1401v61h346v-61q-54 -7 -57 -22t25 -60l336 -614l297 573q36 68 39 81q6 28 -32 38q-11 2 -26 4v61h307v-61q-11 -2 -21 -5t-18.5 -8.5t-15.5 -10t-14.5 -14t-11.5 -14.5t-11 -17.5t-9.5 -17t-10 -18.5t-9.5 -18l-389 -735v-355q0 -69 7 -84q10 -22 59 -38 q6 -3 14 -5v-61h-358v61q62 12 74 30.5t12 85.5v11v342l-406 750q-14 24 -23.5 39t-26.5 35.5t-36 32t-41 14.5zM453 1647l174 217q23 28 33.5 40t36.5 30t48 18q27 0 48.5 -26.5t21.5 -53.5q0 -46 -102 -109q-4 -3 -6 -4l-226 -143z" />
<glyph unicode="&#xde;" horiz-adv-x="1187" d="M88 0v61q33 7 49 12.5t24.5 21t9.5 30t1 51.5v12v1090v11q0 64 -12 82t-72 30v61h361v-61q-60 -12 -72 -30t-12 -82v-5.5v-5.5h258q81 0 154 -9.5t148.5 -36t129.5 -67.5t88.5 -110t34.5 -158q0 -64 -19.5 -122.5t-56.5 -107t-82.5 -91t-105.5 -79t-116.5 -66.5 t-125 -57.5t-122 -47t-114.5 -41.5q-49 -17 -71 -25v-72v-11q0 -63 11.5 -80t72.5 -36v-61h-361zM365 406q202 75 283 114q337 162 337 375q0 64 -25.5 111.5t-63 73.5t-93.5 41t-104.5 19.5t-108.5 4.5h-225v-739z" />
<glyph unicode="&#xdf;" horiz-adv-x="1310" d="M84 0v55q61 4 74.5 25t13.5 78v782q0 121 30.5 218t79 158.5t115 102.5t133.5 57.5t138 16.5q65 0 128.5 -18.5t117 -53t87 -91.5t33.5 -126q0 -48 -19 -91.5t-45 -73.5t-70.5 -61t-75.5 -48t-81 -41q5 -2 16 -6q65 -24 98.5 -37.5t92.5 -40.5t91 -49.5t74 -58.5 t63.5 -73.5t37 -89t15.5 -110.5q0 -108 -47 -196.5t-125 -144t-174.5 -85t-200.5 -29.5q-139 0 -266 62l61 192l47 -14q7 -59 46.5 -79.5t107.5 -20.5q69 0 132.5 20t114 56.5t81 95t30.5 129.5q0 53 -25 100.5t-58 79.5t-89 65t-92 49.5t-94 40.5q-4 2 -25.5 10.5 t-27.5 11.5l-23 11.5t-23 15.5t-15.5 18.5t-13 25t-3.5 30.5q0 60 100 107q40 20 68 37t63.5 44t54.5 61t19 71q0 81 -58 123.5t-141 42.5q-303 0 -303 -402v-952h-268z" />
<glyph unicode="&#xe0;" horiz-adv-x="1146" d="M100 291q0 68 26.5 124.5t63.5 95t102 70.5t116.5 49.5t134 33.5t128 22.5t122.5 15.5q1 40 -13.5 71.5t-38.5 51t-57 32.5t-66 18.5t-69 5.5q-96 0 -179 -33.5t-114 -108.5h-61v166q154 99 374 99q182 0 289 -68q72 -45 93.5 -108t21.5 -166v-504q0 -26 0.5 -36 t3.5 -24.5t10.5 -20.5t21 -12t35.5 -10v-55h-251v121q-81 -76 -157 -114t-169 -38q-94 0 -176.5 37.5t-136.5 112.5t-54 172zM281 293q0 -82 66.5 -133t148.5 -51q83 0 161.5 47t135.5 120v306q-49 -4 -96.5 -11.5t-109.5 -21t-113 -35.5t-96.5 -51.5t-71 -73.5t-25.5 -96z M389 1382q0 27 22.5 53.5t49.5 26.5q7 0 14.5 -2t13.5 -4t14 -7t12.5 -8t12.5 -11l11 -11t11 -12t10 -11t10 -12l8 -10l174 -217l-27 -31l-227 144q-1 1 -13 8.5t-16 9.5t-15.5 10t-16.5 12.5t-14.5 12t-14 14t-10 14t-7.5 15.5t-2 16z" />
<glyph unicode="&#xe1;" horiz-adv-x="1146" d="M100 291q0 68 26.5 124.5t63.5 95t102 70.5t116.5 49.5t134 33.5t128 22.5t122.5 15.5q1 40 -13.5 71.5t-38.5 51t-57 32.5t-66 18.5t-69 5.5q-96 0 -179 -33.5t-114 -108.5h-61v166q154 99 374 99q182 0 289 -68q72 -45 93.5 -108t21.5 -166v-504q0 -26 0.5 -36 t3.5 -24.5t10.5 -20.5t21 -12t35.5 -10v-55h-251v121q-81 -76 -157 -114t-169 -38q-94 0 -176.5 37.5t-136.5 112.5t-54 172zM281 293q0 -82 66.5 -133t148.5 -51q83 0 161.5 47t135.5 120v306q-49 -4 -96.5 -11.5t-109.5 -21t-113 -35.5t-96.5 -51.5t-71 -73.5t-25.5 -96z M391 1157l174 217q22 26 33.5 39.5t37.5 31t48 17.5q27 0 48.5 -26.5t21.5 -53.5q0 -8 -2 -16t-7.5 -15.5t-10 -14t-14 -14t-14.5 -12t-16.5 -12.5t-15.5 -10t-16 -9.5t-13 -8.5l-225 -144z" />
<glyph unicode="&#xe2;" horiz-adv-x="1146" d="M100 291q0 68 26.5 124.5t63.5 95t102 70.5t116.5 49.5t134 33.5t128 22.5t122.5 15.5q1 40 -13.5 71.5t-38.5 51t-57 32.5t-66 18.5t-69 5.5q-96 0 -179 -33.5t-114 -108.5h-61v166q154 99 374 99q182 0 289 -68q72 -45 93.5 -108t21.5 -166v-504q0 -26 0.5 -36 t3.5 -24.5t10.5 -20.5t21 -12t35.5 -10v-55h-251v121q-81 -76 -157 -114t-169 -38q-94 0 -176.5 37.5t-136.5 112.5t-54 172zM227 1178l312 258l307 -258l-37 -45l-272 151l-277 -151zM281 293q0 -82 66.5 -133t148.5 -51q83 0 161.5 47t135.5 120v306q-49 -4 -96.5 -11.5 t-109.5 -21t-113 -35.5t-96.5 -51.5t-71 -73.5t-25.5 -96z" />
<glyph unicode="&#xe3;" horiz-adv-x="1146" d="M100 291q0 68 26.5 124.5t63.5 95t102 70.5t116.5 49.5t134 33.5t128 22.5t122.5 15.5q1 40 -13.5 71.5t-38.5 51t-57 32.5t-66 18.5t-69 5.5q-96 0 -179 -33.5t-114 -108.5h-61v166q154 99 374 99q182 0 289 -68q72 -45 93.5 -108t21.5 -166v-504q0 -26 0.5 -36 t3.5 -24.5t10.5 -20.5t21 -12t35.5 -10v-55h-251v121q-81 -76 -157 -114t-169 -38q-94 0 -176.5 37.5t-136.5 112.5t-54 172zM268 1217q37 71 85 109t118 38q54 0 147 -33t117 -33q7 0 13 1t12 4l10 5t10 7.5t9 8.5t9 10.5t8.5 10.5t9.5 12.5t9 12.5l49 -31 q-53 -89 -93.5 -124t-118.5 -35q-51 0 -136 34q-82 33 -116 33q-20 0 -33.5 -7t-36 -31t-23.5 -25zM281 293q0 -82 66.5 -133t148.5 -51q83 0 161.5 47t135.5 120v306q-49 -4 -96.5 -11.5t-109.5 -21t-113 -35.5t-96.5 -51.5t-71 -73.5t-25.5 -96z" />
<glyph unicode="&#xe4;" horiz-adv-x="1146" d="M100 291q0 68 26.5 124.5t63.5 95t102 70.5t116.5 49.5t134 33.5t128 22.5t122.5 15.5q1 40 -13.5 71.5t-38.5 51t-57 32.5t-66 18.5t-69 5.5q-96 0 -179 -33.5t-114 -108.5h-61v166q154 99 374 99q182 0 289 -68q72 -45 93.5 -108t21.5 -166v-504q0 -26 0.5 -36 t3.5 -24.5t10.5 -20.5t21 -12t35.5 -10v-55h-251v121q-81 -76 -157 -114t-169 -38q-94 0 -176.5 37.5t-136.5 112.5t-54 172zM227 1288q0 49 39 82t88 33q51 0 87 -34t36 -85q0 -53 -37.5 -87t-89.5 -34t-87.5 36.5t-35.5 88.5zM281 293q0 -82 66.5 -133t148.5 -51 q83 0 161.5 47t135.5 120v306q-49 -4 -96.5 -11.5t-109.5 -21t-113 -35.5t-96.5 -51.5t-71 -73.5t-25.5 -96zM592 1288q0 49 39 82t88 33q51 0 87 -34t36 -85q0 -53 -37.5 -87t-89.5 -34t-87.5 36.5t-35.5 88.5z" />
<glyph unicode="&#xe5;" horiz-adv-x="1146" d="M100 291q0 68 26.5 124.5t63.5 95t102 70.5t116.5 49.5t134 33.5t128 22.5t122.5 15.5q1 40 -13.5 71.5t-38.5 51t-57 32.5t-66 18.5t-69 5.5q-96 0 -179 -33.5t-114 -108.5h-61v166q154 99 374 99q182 0 289 -68q72 -45 93.5 -108t21.5 -166v-504q0 -26 0.5 -36 t3.5 -24.5t10.5 -20.5t21 -12t35.5 -10v-55h-251v121q-81 -76 -157 -114t-169 -38q-94 0 -176.5 37.5t-136.5 112.5t-54 172zM281 293q0 -82 66.5 -133t148.5 -51q83 0 161.5 47t135.5 120v306q-49 -4 -96.5 -11.5t-109.5 -21t-113 -35.5t-96.5 -51.5t-71 -73.5t-25.5 -96z M371 1339q0 81 55.5 139t136.5 58q82 0 138.5 -57.5t56.5 -139.5q0 -78 -56.5 -134t-134.5 -56q-81 0 -138.5 54.5t-57.5 135.5zM459 1341q0 -46 30.5 -75t79.5 -29q43 0 72 29.5t29 76.5t-29.5 76t-75.5 29q-47 0 -76.5 -29t-29.5 -78z" />
<glyph unicode="&#xe6;" horiz-adv-x="1843" d="M125 287q0 48 15 90t38 73t62 57.5t74.5 44.5t89.5 33.5t92 24t97.5 17t91.5 12t87 8.5q7 1 11.5 1.5t9.5 0.5q0 110 -66 171t-174 61q-81 0 -164 -44.5t-106 -117.5h-64v196q176 89 381 89q245 0 336 -154q145 154 352 154q107 0 194.5 -40t144 -108.5t85.5 -160.5 t25 -197h-764q0 -164 118.5 -285t284.5 -121q85 0 160.5 37.5t101.5 110.5h56v-189q-142 -82 -353 -82q-134 0 -257.5 61t-190.5 171q-55 -101 -169.5 -166.5t-231.5 -65.5q-92 0 -175 38t-137.5 112t-54.5 168zM305 283q0 -80 66.5 -135.5t144.5 -55.5t153.5 52.5 t123.5 127.5v248q-45 -2 -75.5 -4.5t-86.5 -9.5t-95 -16.5t-86 -28t-76 -41.5t-49 -58.5t-20 -78.5zM973 621h571q-16 114 -83 187t-173 73q-122 0 -207.5 -70t-107.5 -190z" />
<glyph unicode="&#xe7;" horiz-adv-x="1105" d="M86 528q0 109 44.5 200t118.5 150.5t170.5 92.5t201.5 33q244 0 421 -168l-159 -174l-54 40q27 27 27 58q0 32 -25.5 56.5t-63.5 38t-74 20t-64 6.5q-155 0 -252.5 -96t-97.5 -250q0 -125 63.5 -227.5t170 -159t230.5 -56.5q36 0 68.5 8t60 30.5t31.5 57.5h55v-196 q-82 -23 -182 -23q-99 0 -197 22.5t-187 69t-157 111.5t-108.5 157.5t-40.5 198.5zM350 -244l72 11q4 -51 36 -79t83 -28q43 0 68.5 25.5t25.5 68.5q0 42 -31.5 71.5t-73.5 29.5q-9 0 -26 -3t-21 -4l-37 50l60 102h86l-60 -102q42 6 46 6q68 0 116.5 -44t48.5 -112 q0 -75 -59 -117.5t-137 -42.5q-82 0 -138 44t-59 124z" />
<glyph unicode="&#xe8;" horiz-adv-x="1105" d="M86 508q0 133 63 246.5t174 181.5t244 68q142 0 249 -66.5t161 -181.5t49 -258h-760q8 -179 116 -292.5t286 -113.5q51 0 101 13t94 46.5t59 81.5h51v-186q-169 -78 -330 -78q-156 0 -282.5 66.5t-200.5 190t-74 282.5zM276 621h558q0 114 -72 187t-184 73 q-115 0 -199 -72t-103 -188zM369 1382q0 27 22 53.5t49 26.5q7 0 14.5 -2t13.5 -4t14 -7t12.5 -8t12.5 -11l11 -11t11 -12t10 -11t10 -12l8 -10l174 -217l-26 -31l-228 144q-69 43 -89 68q-19 23 -19 44z" />
<glyph unicode="&#xe9;" horiz-adv-x="1105" d="M86 508q0 133 63 246.5t174 181.5t244 68q142 0 249 -66.5t161 -181.5t49 -258h-760q8 -179 116 -292.5t286 -113.5q51 0 101 13t94 46.5t59 81.5h51v-186q-169 -78 -330 -78q-156 0 -282.5 66.5t-200.5 190t-74 282.5zM276 621h558q0 114 -72 187t-184 73 q-115 0 -199 -72t-103 -188zM371 1157l174 217q22 26 33.5 39.5t37.5 31t48 17.5q27 0 48 -26t21 -54q0 -21 -19.5 -44t-35.5 -34t-45 -29q-5 -3 -8 -5l-226 -144z" />
<glyph unicode="&#xea;" horiz-adv-x="1105" d="M86 508q0 133 63 246.5t174 181.5t244 68q142 0 249 -66.5t161 -181.5t49 -258h-760q8 -179 116 -292.5t286 -113.5q51 0 101 13t94 46.5t59 81.5h51v-186q-169 -78 -330 -78q-156 0 -282.5 66.5t-200.5 190t-74 282.5zM248 1178l311 258l307 -258l-37 -45l-272 151 l-276 -151zM276 621h558q0 114 -72 187t-184 73q-115 0 -199 -72t-103 -188z" />
<glyph unicode="&#xeb;" horiz-adv-x="1105" d="M86 508q0 133 63 246.5t174 181.5t244 68q142 0 249 -66.5t161 -181.5t49 -258h-760q8 -179 116 -292.5t286 -113.5q51 0 101 13t94 46.5t59 81.5h51v-186q-169 -78 -330 -78q-156 0 -282.5 66.5t-200.5 190t-74 282.5zM248 1288q0 49 39 82t88 33q51 0 87 -34t36 -85 q0 -53 -37.5 -87t-89.5 -34t-87.5 36.5t-35.5 88.5zM276 621h558q0 114 -72 187t-184 73q-115 0 -199 -72t-103 -188zM612 1288q0 49 39 82t88 33q51 0 87 -34t36 -85q0 -53 -37.5 -87t-89.5 -34t-87.5 36.5t-35.5 88.5z" />
<glyph unicode="&#xec;" horiz-adv-x="532" d="M80 0v55q40 1 62.5 7t32.5 22t11.5 29t1.5 45v659q0 32 -1 44.5t-8 28t-23 21.5t-45 9v55h258v-817q0 -26 0.5 -37t4.5 -26.5t12.5 -21.5t24.5 -11.5t40 -6.5v-55h-371zM82 1382q0 27 22.5 53.5t49.5 26.5q8 0 16 -1.5t15.5 -6t14 -8t14.5 -10.5t12.5 -11.5t12.5 -13.5 t11 -12.5t11 -13t9 -11.5l174 -217l-26 -31l-228 144q-69 43 -89 68q-19 22 -19 44z" />
<glyph unicode="&#xed;" horiz-adv-x="532" d="M80 0v55q40 1 62.5 7t32.5 22t11.5 29t1.5 45v659q0 32 -1 44.5t-8 28t-23 21.5t-45 9v55h258v-817q0 -26 0.5 -37t4.5 -26.5t12.5 -21.5t24.5 -11.5t40 -6.5v-55h-371zM84 1157l174 217q22 26 33.5 39.5t37.5 31t48 17.5q27 0 48 -26t21 -54q0 -21 -19.5 -44t-35.5 -34 t-45 -29q-5 -3 -8 -5l-225 -144z" />
<glyph unicode="&#xee;" horiz-adv-x="532" d="M-80 1178l311 258l308 -258l-37 -45l-273 151l-276 -151zM80 0v55q40 1 62.5 7t32.5 22t11.5 29t1.5 45v659q0 32 -1 44.5t-8 28t-23 21.5t-45 9v55h258v-817q0 -26 0.5 -37t4.5 -26.5t12.5 -21.5t24.5 -11.5t40 -6.5v-55h-371z" />
<glyph unicode="&#xef;" horiz-adv-x="532" d="M-80 1288q0 49 39 82t88 33q51 0 87 -34t36 -85q0 -53 -37.5 -87t-89.5 -34t-87.5 36.5t-35.5 88.5zM80 0v55q40 1 62.5 7t32.5 22t11.5 29t1.5 45v659q0 32 -1 44.5t-8 28t-23 21.5t-45 9v55h258v-817q0 -26 0.5 -37t4.5 -26.5t12.5 -21.5t24.5 -11.5t40 -6.5v-55h-371z M285 1288q0 49 39 82t88 33q51 0 87 -34t36 -85q0 -53 -37.5 -87t-89.5 -34t-87.5 36.5t-35.5 88.5z" />
<glyph unicode="&#xf0;" horiz-adv-x="1187" d="M74 494q0 224 151 367t375 143q61 0 -17 101q-27 34 -59 66l-61 62l-291 -139l-68 77l283 138q-84 84 -151 129l112 55q46 -26 170 -127l277 127l67 -78l-268 -123q241 -238 375 -438q68 -100 105.5 -186t37.5 -187q0 -224 -148.5 -368t-371.5 -144q-224 0 -371 149.5 t-147 375.5zM256 485q0 -165 92 -279t252 -114q157 0 244.5 110t87.5 271q0 110 -37 200.5t-116.5 149t-188.5 58.5q-106 0 -183.5 -56.5t-114 -145t-36.5 -194.5z" />
<glyph unicode="&#xf1;" horiz-adv-x="1187" d="M68 0v55q26 1 42 6.5t25 11.5t13.5 21.5t5 26.5t0.5 37v659q0 31 -1.5 44.5t-9.5 28.5t-25.5 21t-49.5 9v55h266v-101q62 65 151 97.5t183 32.5q168 0 264 -91t96 -258v-497q0 -32 1.5 -45.5t10 -29t27.5 -21.5t53 -7v-55h-358v55q26 1 42 6.5t25 11.5t13.5 21.5t5 26.5 t0.5 37v426q0 64 -9.5 110.5t-33 87t-69.5 61.5t-113 21q-89 0 -166 -43.5t-123 -120.5v-542q0 -32 1.5 -45.5t10 -29t27.5 -21.5t53 -7v-55h-358zM289 1217q37 71 85 109t118 38q54 0 147 -33t117 -33q7 0 13 1t12 4l10 5t10 7.5t9 8.5t9 10.5t8.5 10.5t9.5 12.5t9 12.5 l49 -31q-53 -89 -94 -124t-119 -35q-50 0 -135 34q-83 33 -117 33q-20 0 -33.5 -7.5t-34.5 -30.5t-24 -25z" />
<glyph unicode="&#xf2;" horiz-adv-x="1187" d="M74 494q0 224 151 367t375 143q223 0 367.5 -149t144.5 -374q0 -224 -148.5 -368t-371.5 -144q-224 0 -371 149.5t-147 375.5zM256 485q0 -165 92 -279t252 -114q157 0 244.5 110t87.5 271q0 110 -37 200.5t-116.5 149t-188.5 58.5q-106 0 -183.5 -56.5t-114 -145 t-36.5 -194.5zM410 1382q0 27 22 53.5t49 26.5q7 0 14.5 -2t13.5 -4t14 -7t12.5 -8t12.5 -11l11 -11t11 -12t10 -11t10 -12l8 -10l174 -217l-27 -31l-227 144q-69 43 -89 68q-19 23 -19 44z" />
<glyph unicode="&#xf3;" horiz-adv-x="1187" d="M74 494q0 224 151 367t375 143q223 0 367.5 -149t144.5 -374q0 -224 -148.5 -368t-371.5 -144q-224 0 -371 149.5t-147 375.5zM256 485q0 -165 92 -279t252 -114q157 0 244.5 110t87.5 271q0 110 -37 200.5t-116.5 149t-188.5 58.5q-106 0 -183.5 -56.5t-114 -145 t-36.5 -194.5zM412 1157l174 217q22 26 33.5 39.5t37.5 31t48 17.5q27 0 48 -26t21 -54q0 -21 -19.5 -44t-35.5 -34t-45 -29q-5 -3 -8 -5l-226 -144z" />
<glyph unicode="&#xf4;" horiz-adv-x="1187" d="M74 494q0 224 151 367t375 143q223 0 367.5 -149t144.5 -374q0 -224 -148.5 -368t-371.5 -144q-224 0 -371 149.5t-147 375.5zM256 485q0 -165 92 -279t252 -114q157 0 244.5 110t87.5 271q0 110 -37 200.5t-116.5 149t-188.5 58.5q-106 0 -183.5 -56.5t-114 -145 t-36.5 -194.5zM264 1178l311 258l308 -258l-37 -45l-273 151l-276 -151z" />
<glyph unicode="&#xf5;" horiz-adv-x="1187" d="M74 494q0 224 151 367t375 143q223 0 367.5 -149t144.5 -374q0 -224 -148.5 -368t-371.5 -144q-224 0 -371 149.5t-147 375.5zM256 485q0 -165 92 -279t252 -114q157 0 244.5 110t87.5 271q0 110 -37 200.5t-116.5 149t-188.5 58.5q-106 0 -183.5 -56.5t-114 -145 t-36.5 -194.5zM289 1217q37 71 85 109t118 38q54 0 147 -33t117 -33q7 0 13 1t12 4l10 5t10 7.5t9 8.5t9 10.5t8.5 10.5t9.5 12.5t9 12.5l49 -31q-53 -89 -94 -124t-119 -35q-50 0 -135 34q-83 33 -117 33q-20 0 -33.5 -7.5t-34.5 -30.5t-24 -25z" />
<glyph unicode="&#xf6;" horiz-adv-x="1187" d="M74 494q0 224 151 367t375 143q223 0 367.5 -149t144.5 -374q0 -224 -148.5 -368t-371.5 -144q-224 0 -371 149.5t-147 375.5zM256 485q0 -165 92 -279t252 -114q157 0 244.5 110t87.5 271q0 110 -37 200.5t-116.5 149t-188.5 58.5q-106 0 -183.5 -56.5t-114 -145 t-36.5 -194.5zM264 1288q0 49 39 82t88 33q51 0 87 -34t36 -85q0 -53 -37.5 -87t-89.5 -34t-87.5 36.5t-35.5 88.5zM629 1288q0 49 39 82t88 33q51 0 87 -34t36 -85q0 -53 -37.5 -87t-89.5 -34t-87.5 36.5t-35.5 88.5z" />
<glyph unicode="&#xf7;" d="M160 393v123h909v-123h-909zM485 129q0 55 37.5 94t93.5 39q54 0 93 -38t39 -93q0 -53 -37.5 -92t-89.5 -39q-55 0 -95.5 38t-40.5 91zM485 776q0 55 37.5 94t93.5 39q54 0 93 -38t39 -93q0 -53 -37.5 -92t-89.5 -39q-55 0 -95.5 38t-40.5 91z" />
<glyph unicode="&#xf8;" horiz-adv-x="1187" d="M74 487q0 230 149.5 373.5t380.5 143.5q66 0 137 -19l74 174h129l-94 -217q123 -59 192.5 -186.5t69.5 -270.5q0 -220 -146.5 -368t-365.5 -148q-62 0 -149 25l-80 -199h-121l94 234q-128 67 -199 189.5t-71 268.5zM254 502q0 -99 37 -189t110 -149l285 686 q-43 14 -94 14q-158 0 -248 -102t-90 -260zM506 119q45 -10 84 -10q160 0 251 103t91 263q0 98 -34.5 187t-104.5 141z" />
<glyph unicode="&#xf9;" horiz-adv-x="1187" d="M70 920v55h270v-606q0 -119 52 -189.5t169 -70.5q74 0 159 49.5t138 115.5v543q0 31 -1.5 44.5t-9.5 28.5t-27 21t-52 9v55h270v-817q0 -26 0.5 -37t4.5 -25.5t12 -21t23 -12t38 -7.5v-55h-258v127q-63 -70 -162 -114t-192 -44q-184 0 -264 100.5t-80 284.5v463 q0 31 -1.5 44.5t-9.5 28.5t-27 21t-52 9zM410 1382q0 27 22 53.5t49 26.5q7 0 14.5 -2t13.5 -4t14 -7t12.5 -8t12.5 -11l11 -11t11 -12t10 -11t10 -12l8 -10l174 -217l-27 -31l-227 144q-69 43 -89 68q-19 23 -19 44z" />
<glyph unicode="&#xfa;" horiz-adv-x="1187" d="M70 920v55h270v-606q0 -119 52 -189.5t169 -70.5q74 0 159 49.5t138 115.5v543q0 31 -1.5 44.5t-9.5 28.5t-27 21t-52 9v55h270v-817q0 -26 0.5 -37t4.5 -25.5t12 -21t23 -12t38 -7.5v-55h-258v127q-63 -70 -162 -114t-192 -44q-184 0 -264 100.5t-80 284.5v463 q0 31 -1.5 44.5t-9.5 28.5t-27 21t-52 9zM412 1157l174 217q22 26 33.5 39.5t37.5 31t48 17.5q27 0 48 -26t21 -54q0 -21 -19.5 -44t-35.5 -34t-45 -29q-5 -3 -8 -5l-226 -144z" />
<glyph unicode="&#xfb;" horiz-adv-x="1187" d="M70 920v55h270v-606q0 -119 52 -189.5t169 -70.5q74 0 159 49.5t138 115.5v543q0 31 -1.5 44.5t-9.5 28.5t-27 21t-52 9v55h270v-817q0 -26 0.5 -37t4.5 -25.5t12 -21t23 -12t38 -7.5v-55h-258v127q-63 -70 -162 -114t-192 -44q-184 0 -264 100.5t-80 284.5v463 q0 31 -1.5 44.5t-9.5 28.5t-27 21t-52 9zM264 1178l311 258l308 -258l-37 -45l-273 151l-276 -151z" />
<glyph unicode="&#xfc;" horiz-adv-x="1187" d="M70 920v55h270v-606q0 -119 52 -189.5t169 -70.5q74 0 159 49.5t138 115.5v543q0 31 -1.5 44.5t-9.5 28.5t-27 21t-52 9v55h270v-817q0 -26 0.5 -37t4.5 -25.5t12 -21t23 -12t38 -7.5v-55h-258v127q-63 -70 -162 -114t-192 -44q-184 0 -264 100.5t-80 284.5v463 q0 31 -1.5 44.5t-9.5 28.5t-27 21t-52 9zM264 1288q0 49 39 82t88 33q51 0 87 -34t36 -85q0 -53 -37.5 -87t-89.5 -34t-87.5 36.5t-35.5 88.5zM629 1288q0 49 39 82t88 33q51 0 87 -34t36 -85q0 -53 -37.5 -87t-89.5 -34t-87.5 36.5t-35.5 88.5z" />
<glyph unicode="&#xfd;" horiz-adv-x="1146" d="M57 918v55h330v-55q-45 -4 -53 -11q-13 -12 6 -59l264 -658l240 621q22 56 13 75.5t-60 31.5v55h290v-55q-17 -2 -32 -10t-23 -14t-18.5 -24.5t-13.5 -24t-12.5 -30t-10.5 -27.5l-326 -827q-27 -70 -51.5 -122.5t-64.5 -113.5t-83 -100t-104.5 -65.5t-132.5 -26.5h-106 v234h55q15 -44 34.5 -68.5t55.5 -24.5q59 0 116 55t90 124.5t42 128.5l-355 847q-12 28 -20 43t-26.5 30t-43.5 16zM391 1157l174 217q22 26 33.5 39.5t37.5 31t48 17.5q27 0 48.5 -26.5t21.5 -53.5q0 -8 -2 -16t-7.5 -15.5t-10 -14t-14 -14t-14.5 -12t-16.5 -12.5 t-15.5 -10t-16 -9.5t-13 -8.5l-225 -144z" />
<glyph unicode="&#xfe;" d="M80 1407v55h270v-598q51 64 150 102t190 38q196 0 327.5 -132t131.5 -329q0 -111 -40 -205.5t-109 -161.5t-160 -114.5t-193 -70t-209 -22.5q-17 0 -48 3.5t-40 4.5v-270q0 -32 1.5 -45.5t10 -28.5t27.5 -21t53 -7v-56h-356v56q31 1 48.5 7t25 21t9 28.5t1.5 45.5v1598 q0 31 -1.5 44.5t-10 28t-27 20.5t-51.5 9zM350 109h90q239 0 384 109.5t145 309.5q0 141 -89 238.5t-229 97.5q-94 0 -177.5 -44.5t-123.5 -123.5v-587z" />
<glyph unicode="&#xff;" horiz-adv-x="1146" d="M57 918v55h330v-55q-45 -4 -53 -11q-13 -12 6 -59l264 -658l240 621q22 56 13 75.5t-60 31.5v55h290v-55q-17 -2 -32 -10t-23 -14t-18.5 -24.5t-13.5 -24t-12.5 -30t-10.5 -27.5l-326 -827q-27 -70 -51.5 -122.5t-64.5 -113.5t-83 -100t-104.5 -65.5t-132.5 -26.5h-106 v234h55q15 -44 34.5 -68.5t55.5 -24.5q59 0 116 55t90 124.5t42 128.5l-355 847q-12 28 -20 43t-26.5 30t-43.5 16zM268 1288q0 49 39 82t88 33q51 0 87 -34t36 -85q0 -53 -37.5 -87t-89.5 -34t-87.5 36.5t-35.5 88.5zM633 1288q0 49 39 82t88 33q51 0 87 -34t36 -85 q0 -53 -37.5 -87t-89.5 -34t-87.5 36.5t-35.5 88.5z" />
<glyph unicode="&#x152;" horiz-adv-x="2580" d="M86 721q0 215 96 391.5t269 278.5t389 102q334 0 538 -231v200h1086v-235h-62q-8 29 -22.5 48t-27 28.5t-39.5 14t-42 5t-53 0.5h-647v-430h442h25.5h28t25.5 1.5t26 4.5t21 8.5t20 14t12.5 21t9.5 28.5h62v-301h-62q-3 15 -7 27.5t-11.5 21t-13 15t-17.5 10.5l-18 6 t-21.5 3t-21.5 1h-25h-25h-450v-615h667h17q31 0 47.5 0.5t43.5 3.5t42 10.5t33 19.5t28.5 33t16.5 50h61v-256h-1149v217q-214 -248 -534 -248q-158 0 -298.5 56.5t-241.5 155.5t-159.5 239t-58.5 301zM299 731q0 -131 34 -242.5t100 -197t170.5 -134t236.5 -48.5 q107 0 195.5 33.5t150 92t103.5 139t61.5 172.5t19.5 195q0 128 -34.5 238t-100.5 194t-170.5 132.5t-235.5 48.5q-133 0 -237 -50t-166.5 -137t-94.5 -197.5t-32 -238.5z" />
<glyph unicode="&#x153;" horiz-adv-x="1925" d="M82 483q0 227 143.5 374t370.5 147q128 0 241 -61t173 -169q61 111 166.5 171.5t234.5 60.5q188 0 317.5 -132.5t129.5 -322.5l-3 -53h-755q3 -171 116.5 -283.5t286.5 -112.5q209 0 258 152h56v-195q-95 -47 -177 -68.5t-178 -21.5q-135 0 -259.5 61t-192.5 171 q-59 -108 -172.5 -170t-239.5 -62q-223 0 -369.5 145.5t-146.5 368.5zM272 483q0 -101 34.5 -185.5t109 -140t176.5 -55.5q79 0 142 34t101 91t58 126.5t20 144.5q0 148 -83.5 257t-227.5 109q-104 0 -181 -54.5t-113 -139.5t-36 -187zM1114 621h549q4 119 -70 187.5 t-192 68.5q-111 0 -188.5 -71t-98.5 -185z" />
<glyph unicode="&#x178;" horiz-adv-x="1269" d="M16 1401v61h346v-61q-54 -7 -57 -22t25 -60l336 -614l297 573q36 68 39 81q6 28 -32 38q-11 2 -26 4v61h307v-61q-11 -2 -21 -5t-18.5 -8.5t-15.5 -10t-14.5 -14t-11.5 -14.5t-11 -17.5t-9.5 -17t-10 -18.5t-9.5 -18l-389 -735v-355q0 -69 7 -84q10 -22 59 -38 q6 -3 14 -5v-61h-358v61q62 12 74 30.5t12 85.5v11v342l-406 750q-14 24 -23.5 39t-26.5 35.5t-36 32t-41 14.5zM330 1778q0 49 38.5 81.5t88.5 32.5q52 0 87.5 -33.5t35.5 -84.5q0 -53 -37.5 -87t-89.5 -34t-87.5 36.5t-35.5 88.5zM694 1778q0 49 38.5 81.5t88.5 32.5 q52 0 87.5 -33.5t35.5 -84.5q0 -53 -37.5 -87t-89.5 -34t-87.5 36.5t-35.5 88.5z" />
<glyph unicode="&#x2c6;" horiz-adv-x="901" d="M145 1178l312 258l307 -258l-37 -45l-272 151l-277 -151z" />
<glyph unicode="&#x2dc;" horiz-adv-x="901" d="M145 1217q37 71 85 109t118 38q55 0 148 -33t116 -33q7 0 13 1t12 4l10 5t10 7.5t9 8.5t9 10.5t8.5 10.5t9.5 12.5t9 12.5l50 -31q-53 -89 -94 -124t-119 -35q-51 0 -136 34q-82 33 -116 33q-20 0 -33.5 -7.5t-34.5 -30.5t-24 -25z" />
<glyph unicode="&#x2000;" horiz-adv-x="1004" />
<glyph unicode="&#x2001;" horiz-adv-x="2009" />
<glyph unicode="&#x2002;" horiz-adv-x="1004" />
<glyph unicode="&#x2003;" horiz-adv-x="2009" />
<glyph unicode="&#x2004;" horiz-adv-x="669" />
<glyph unicode="&#x2005;" horiz-adv-x="502" />
<glyph unicode="&#x2006;" horiz-adv-x="334" />
<glyph unicode="&#x2007;" horiz-adv-x="334" />
<glyph unicode="&#x2008;" horiz-adv-x="251" />
<glyph unicode="&#x2009;" horiz-adv-x="401" />
<glyph unicode="&#x200a;" horiz-adv-x="111" />
<glyph unicode="&#x2010;" horiz-adv-x="819" d="M176 424v147h467v-147h-467z" />
<glyph unicode="&#x2011;" horiz-adv-x="819" d="M176 424v147h467v-147h-467z" />
<glyph unicode="&#x2012;" horiz-adv-x="819" d="M176 424v147h467v-147h-467z" />
<glyph unicode="&#x2013;" horiz-adv-x="1024" d="M0 424v147h1024v-147h-1024z" />
<glyph unicode="&#x2014;" horiz-adv-x="2048" d="M0 424v147h2048v-147h-2048z" />
<glyph unicode="&#x2018;" horiz-adv-x="573" d="M156 1118q0 155 176 375l69 -51q-30 -40 -46.5 -63t-39.5 -60.5t-36 -72.5t-17 -70q15 18 41 18q48 0 81.5 -38t33.5 -87q0 -54 -34.5 -89.5t-88.5 -35.5q-64 0 -101.5 53.5t-37.5 120.5z" />
<glyph unicode="&#x2019;" horiz-adv-x="573" d="M152 1368q0 54 34 89.5t88 35.5q65 0 102.5 -54t37.5 -120q0 -155 -176 -375l-70 51q40 52 62 84.5t46.5 84.5t30.5 98q-16 -19 -41 -19q-48 0 -81 38t-33 87z" />
<glyph unicode="&#x201a;" horiz-adv-x="573" d="M156 94q0 54 34.5 89.5t88.5 35.5q64 0 101.5 -53.5t37.5 -120.5q0 -155 -176 -375l-70 51q40 52 62 84.5t46.5 84.5t30.5 98q-16 -19 -41 -19q-48 0 -81 38t-33 87z" />
<glyph unicode="&#x201c;" horiz-adv-x="901" d="M137 1118q0 155 176 375l70 -51q-30 -40 -46.5 -63t-39.5 -60.5t-36 -72.5t-17 -70q15 18 41 18q48 0 81 -38t33 -87q0 -54 -34.5 -89.5t-88.5 -35.5q-64 0 -101.5 53.5t-37.5 120.5zM502 1118q0 155 176 375l70 -51q-31 -41 -46.5 -63t-39.5 -60.5t-37 -73t-17 -69.5 q15 18 41 18q48 0 81.5 -38t33.5 -87q0 -54 -34.5 -89.5t-88.5 -35.5q-64 0 -101.5 53.5t-37.5 120.5z" />
<glyph unicode="&#x201d;" horiz-adv-x="901" d="M137 1368q0 54 34.5 89.5t88.5 35.5q64 0 101.5 -53.5t37.5 -120.5q0 -155 -176 -375l-69 51q40 52 62 84.5t46.5 84.5t30.5 98q-16 -19 -41 -19q-48 0 -81.5 38t-33.5 87zM502 1368q0 54 34.5 89.5t88.5 35.5q64 0 101.5 -53.5t37.5 -120.5q0 -155 -176 -375l-70 51 q40 52 62 84.5t46.5 84.5t30.5 98q-16 -19 -41 -19q-48 0 -81 38t-33 87z" />
<glyph unicode="&#x201e;" horiz-adv-x="901" d="M137 94q0 54 34.5 89.5t88.5 35.5q64 0 101.5 -53.5t37.5 -120.5q0 -155 -176 -375l-69 51q40 52 62 84.5t46.5 84.5t30.5 98q-16 -19 -41 -19q-48 0 -81.5 38t-33.5 87zM502 94q0 54 34.5 89.5t88.5 35.5q64 0 101.5 -53.5t37.5 -120.5q0 -155 -176 -375l-70 51 q40 52 62 84.5t46.5 84.5t30.5 98q-16 -19 -41 -19q-48 0 -81 38t-33 87z" />
<glyph unicode="&#x2022;" d="M248 731q0 154 104.5 259.5t257.5 105.5q156 0 262.5 -105.5t106.5 -259.5q0 -156 -106 -261t-263 -105q-154 0 -258 105t-104 261z" />
<glyph unicode="&#x2026;" horiz-adv-x="2048" d="M211 98q0 55 37 94t92 39q56 0 94.5 -38t38.5 -93q0 -53 -37.5 -92t-89.5 -39q-55 0 -95 38t-40 91zM893 98q0 55 37 94t92 39q56 0 94.5 -38t38.5 -93q0 -53 -37.5 -92t-89.5 -39q-55 0 -95 38t-40 91zM1575 98q0 55 37 94t92 39q56 0 94.5 -38t38.5 -93 q0 -53 -37.5 -92t-89.5 -39q-55 0 -95 38t-40 91z" />
<glyph unicode="&#x202f;" horiz-adv-x="401" />
<glyph unicode="&#x2039;" horiz-adv-x="450" d="M104 496l164 342l80 -37l-80 -305l80 -291l-80 -47z" />
<glyph unicode="&#x203a;" horiz-adv-x="450" d="M102 195l80 305l-80 291l80 47l164 -338l-164 -342z" />
<glyph unicode="&#x205f;" horiz-adv-x="502" />
<glyph unicode="&#x2122;" horiz-adv-x="1720" d="M47 1292v170h598v-170h-53q0 79 -28.5 101t-104.5 22h-49v-561q0 -15 6.5 -24.5t21 -14t28.5 -6t38 -2.5v-47h-316v47q24 1 38.5 2.5t29 6t21 14t6.5 24.5v561h-35q-44 0 -65 -2.5t-43.5 -13.5t-31 -37t-8.5 -70h-53zM731 760v47q25 1 39.5 2.5t30.5 6t23 14t7 24.5v543 q0 5 -2 8.5t-6 5.5t-8.5 3t-12.5 1h-14h-16.5h-17.5v47h219l217 -518l207 518h235v-47q-44 0 -61 -4t-17 -20v-508q0 -48 15 -61.5t73 -14.5v-47h-303v47q58 1 73 14.5t15 61.5v501h-14l-246 -624h-16l-250 624h-14v-530q0 -15 7 -24.5t23 -14t30.5 -6t39.5 -2.5v-47h-256z " />
<glyph unicode="&#x25fc;" horiz-adv-x="972" d="M0 0v973h973v-973h-973z" />
<glyph unicode="&#xfb01;" horiz-adv-x="1105" d="M59 850v123h121v53q0 61 1 89t7 77t22.5 86.5t43.5 71.5q55 69 154.5 106t199.5 37q40 0 97 -11.5t117 -33t101.5 -61t41.5 -87.5q0 -52 -34.5 -84t-86.5 -32q-42 0 -75.5 26.5t-33.5 59.5q0 14 1 28.5t1 20.5q0 29 -52 46t-89 17q-59 0 -102 -15.5t-68.5 -40t-40.5 -64 t-20 -79.5t-5 -93v-117h582v-815q0 -26 0.5 -37t4.5 -26.5t12.5 -21.5t24.5 -11.5t40 -6.5v-55h-371v55q40 1 63 7t32.5 21.5t11.5 29t2 45.5v553q0 37 -0.5 53t-4 36t-9 26.5t-18 14t-29.5 8.5t-44 1h-297v-692q0 -31 1.5 -45t10 -29.5t28 -21.5t53.5 -7v-55h-373v55 q37 1 58 7t30 21.5t10.5 29t1.5 45.5v692h-121z" />
<glyph unicode="&#xfb02;" horiz-adv-x="1105" d="M53 850v123h121v139q0 69 9 124t31 104t57.5 82t90.5 52t127 19q53 0 125 -14q96 -17 125 -17h199v-1304q0 -26 0.5 -37t5 -26.5t13.5 -21.5t25 -11.5t42 -6.5v-55h-354v55q61 3 74.5 23.5t13.5 79.5v983q0 27 -0.5 42.5t-4.5 44.5t-12 47t-24 40.5t-38 35.5t-57.5 22 t-80.5 9q-60 0 -99 -20t-57 -59t-24.5 -79t-6.5 -98v-153h232v-123h-232v-692q0 -32 1.5 -45.5t10 -29t27.5 -21.5t53 -7v-55h-372v55q37 1 58 7t30 21.5t10.5 29t1.5 45.5v692h-121z" />
</font>
</defs>
</svg>
