<?xml version="1.0" encoding="UTF-8"?><svg xmlns="http://www.w3.org/2000/svg" viewBox="0 0 671.74 289.58"><defs><style>.d{fill:#cececf;}.e{fill:#f5f5f5;}.f{isolation:isolate;opacity:.1;}.g{fill:#0c0c10;}</style></defs><g id="a"/><g id="b"><g id="c"><path class="e" d="M0,0H426.28c135.54,0,245.43,4.56,245.45,10.18h0V279.4c.02,5.62-109.85,10.18-245.39,10.18H0V0Z"/><rect class="d" x="26.15" y="48.05" width="115.02" height="205.58"/><path class="g" d="M143.78,156.2l13.56,17.81,12.53,47.31s118.96-16.95,126.96-8.95,8.21,.79,18.61,2.39,37.83,8.01,37.83,8.01V81.58s-17.05-1.14-20.75,5.82-20.93-6.42-23.81-.73-27.88-2.31-27.88-2.31l-81.85-17.34-36.08,46.11-16.9,7.01-2.22,36.05Z"/><path class="d" d="M227.64,0H498.92c86.26,0,156.19,4.56,156.2,10.18h0V279.4c.01,5.62-69.91,10.18-156.16,10.18H227.64V0Z"/><path class="g" d="M169.75,218.52s-1.46,7.28,11.64,11.64,62.59,20.38,71.32,20.38,47.27-99.71,47.27-99.71l-36.4,10.37-23.97,45.67-69.87,11.64Z"/><path class="g" d="M198.98,67.03s2.91-4.37,16.01-7.28,62.59-21.83,74.23-14.56,24.07,9.43,6.61,34.17l-31.35,34.24-23.29-24.74,7.28-10.19-49.49-11.64Z"/><circle class="e" cx="105.01" cy="137.71" r="29.84"/><polygon class="f" points="246.58 82.94 251.74 77.12 227.64 74.21 246.58 82.94"/><circle class="e" cx="277.59" cy="146.21" r="17"/><polygon class="f" points="221.59 208.21 239.62 206.88 261.79 164.65 236.59 202.21 221.59 208.21"/><circle class="e" cx="245.83" cy="110.36" r="17"/><path class="g" d="M110.96,167.81l-15.59,4.1c-4.07,1.07-8.22,2.15-12.42,1.91s-8.53-2.02-10.81-5.56-1.74-8.94,1.8-11.22c-5.65-.43-9.99-5.57-11.53-11.02s-.93-11.24-.67-16.9,.08-11.63-2.79-16.51c2.3-.77,4.83,.19,6.04,2.29,.69-2.52-.69-5.14-3.16-6,3.27-.04,6.43,1.17,8.85,3.38-2.17-4.37-.67-9.66,3.47-12.25,4.32-2.49,9.75-1.1,14.52,.36l24.48,7.48c-3.72,1.13-7.65,1.35-11.49,1.96s-7.77,1.69-10.72,4.22-4.66,6.85-3.19,10.45c.82,2.02,2.49,3.56,3.69,5.39,2.46,3.75,2.81,8.51,2.31,12.96s-1.77,8.79-2.27,13.24c-.32,2.79-.23,5.9,1.62,8,1.5,1.45,3.41,2.4,5.47,2.74,4.1,.99,8.33,1.38,12.54,1.16"/></g></g></svg>