<?xml version="1.0" encoding="UTF-8"?><svg xmlns="http://www.w3.org/2000/svg" viewBox="0 0 321.73 519"><defs><style>.d{fill:#fff;}.e{fill:#cececf;}.f{fill:#9b9b9b;}.g{fill:#ccc;}</style></defs><g id="a"/><g id="b"><g id="c"><g><path class="f" d="M321.73,519H0V144.5c-.09-30.53,10.67-60.29,30.72-84.94,.74-.9,1.48-1.8,2.24-2.68,9.7-11.42,21.24-21.48,34.24-29.85,.73-.48,1.47-.95,2.22-1.42,10.88-6.76,22.65-12.29,35.04-16.46,.74-.25,1.48-.5,2.23-.74,11.21-3.59,22.82-6.05,34.63-7.34,.73-.09,1.48-.16,2.24-.23,11.51-1.11,23.12-1.11,34.63,0,.75,.07,1.5,.14,2.24,.23,11.81,1.28,23.42,3.74,34.62,7.34,.75,.24,1.5,.49,2.24,.74,12.24,4.12,23.87,9.56,34.63,16.22,.75,.46,1.5,.93,2.23,1.4,7.29,4.67,14.13,9.88,20.47,15.56,5.08,4.56,9.81,9.42,14.17,14.55,.76,.88,1.49,1.77,2.23,2.68,20.05,24.65,30.81,54.41,30.72,84.95v374.5Z"/><ellipse class="e" cx="295.57" cy="335.5" rx="17.81" ry="16"/><path class="d" d="M233.23,410.5H88.5c-3.97,.02-7.21-2.85-7.24-6.42V113.91c.03-3.56,3.27-6.43,7.24-6.42H233.23c3.97-.02,7.21,2.85,7.24,6.42V404.08c-.03,3.56-3.27,6.43-7.24,6.42Z"/><rect class="g" x="81.27" y="201.39" width="159.2" height="2"/><rect class="g" x="81.83" y="315.5" width="159.2" height="2"/><rect class="g" x="131.37" y="107.5" width="2.23" height="304"/><rect class="g" x="187.03" y="107.5" width="2.23" height="304"/></g></g></g></svg>