<?xml version="1.0" encoding="UTF-8"?><svg xmlns="http://www.w3.org/2000/svg" viewBox="0 0 322.16 234.33"><defs><style>.d{fill:#cececf;}.e{fill:#f5f5f5;}.f{fill:#ccc;}.g{isolation:isolate;opacity:.1;}.h{fill:#0c0c10;}</style></defs><g id="a"/><g id="b"><g id="c"><g><path class="e" d="M223.77,41.27c.04-5.39-4.3-9.78-9.68-9.82s-9.78,4.3-9.82,9.68c0,.47,.03,.95,.09,1.42l-28.01,36.69c-2.44,4.89-1.72,10.76,1.84,14.91l2.2,2.56,10.08-2.02,11.43-10.08-1.34-11.43,14.12-22.18-.02-.02c5.13-.33,9.12-4.58,9.12-9.72Z"/><polygon class="e" points="30.04 220.62 25.47 203.64 88.8 177.92 95.55 202.98 30.04 220.62"/><path class="h" d="M14.74,229.38L0,174.62l.69-.19c11.77-3.17,23.88,3.8,27.05,15.58h0l9.01,33.45-22.01,5.93Z"/><polygon class="e" points="117.28 217.91 103.05 207.56 136.18 147.77 157.18 163.04 117.28 217.91"/><path class="h" d="M110.88,234.33l-45.87-33.36,.42-.58c7.17-9.86,20.97-12.04,30.83-4.87h0l28.01,20.37-13.41,18.43Z"/><path class="h" d="M238.19,134.36l-35.79-34.77c-6.46-6.27-16.55-6.84-23.67-1.32l-67.59,75.08,6.05,9.41,64.53-43.69,43.69,57.14,41.68-20.84-28.91-41.01Z"/><path class="e" d="M222.73,141.75l-26.22-2.02-18.99-4.6c-2.91-4.53-8.94-5.85-13.47-2.95-4.53,2.91-5.85,8.94-2.95,13.47,2.91,4.53,8.94,5.85,13.47,2.95,.38-.25,.75-.52,1.1-.82h0l11.43,4.72,49.07,16.81,6.05-4.71-19.49-22.86Z"/><polygon class="h" points="285.92 214.35 271.13 223.76 253.65 223.76 172.32 193.51 53.33 215.02 49.97 189.48 158.87 141.75 254.33 173.34 285.92 214.35"/><circle class="e" cx="253.97" cy="36.67" r="26.22"/><path class="f" d="M322.16,129.46c0,15.82-2.49,31.55-7.39,46.59l-1.96,6.04-9.41,43.02-10.08,2.69-7.39-9.41-14.79-10.76-10.76-17.48-9.22-15.37-2.88-4.8-10.08-50.42-38.32-21.51-12.77-2.02,2.69-7.39,11.43-15.46,11.43-1.34,3.36-2.69,2.69,1.34,14.82,5.71,48.06-20.3,7.03,1.15,24.2,20.17c6.19,16.72,9.35,34.41,9.35,52.24Z"/><polygon class="g" points="314.83 123.6 289.28 140.41 251.15 174.78 248.28 169.98 240.21 129.65 242.23 129.65 263.07 91.33 314.83 123.6"/><polygon class="d" points="263.07 87.3 242.23 125.62 230.13 139.06 219.37 141.75 248.28 173.34 289.28 136.37 314.83 119.57 263.07 87.3"/><path class="h" d="M222.54,45.92s0-.09,.04-.14c.32-1.75,1.21-3.36,2.52-4.6-1.66,.35-3.33,1.11-4.56,2.34-1.54-1.75-3.23-3.63-2.84-5.84,.35-1.98,2.12-3.25,3.28-4.79,1.82-2.41,2.45-5.59,2.58-8.7,.18-3.15-.05-6.23,.5-9.22,.6-3.55,2.27-6.76,4.76-9.36,7.01-7.25,18.5-7.51,25.79-.55,.76-2.06,3.28-2.93,5.45-2.59,2.11,.3,3.82,1.85,5.6,3.13,8.49,5.96,12.89,16.19,14.46,26.85-.73-1.9-3.01-6.23-4.4-7.77-1.98-2.22-4.96,3.6-3.28,4.79l-1.09,8.98c-8.65-2.54-11.8-12.29-15.01-20.65-2.07,7.02,3.82,16.44-3.19,18.87-.84,.29-7.45,3.3-8.3,3.5-.45-1.74-.27-3.62,.38-5.26-1.91,1.23-3.22,3.15-3.65,5.32-.07,.28-.09,.6-.16,.88-.45,.12-.84,.29-1.24,.46-2.34,.95-4.6,2.39-5.7,4.65-1.38,2.79,.84,4.53,1.07,7.61,.23,3.08-1.34,.78-4.15,2.08-9.69-1.49-6.8-6.86-8.85-9.98Z"/></g></g></g></svg>