<?xml version="1.0" encoding="UTF-8"?><svg xmlns="http://www.w3.org/2000/svg" viewBox="0 0 1422.83 846.23"><defs><style>.d{fill:#ffb6b6;}.e{fill:#2f2e41;}.f{fill:#fff;}.g{fill:#3f3d56;}.h{fill:#e6e6e6;}</style></defs><g id="a"/><g id="b"><g id="c"><circle class="g" cx="143.04" cy="334.43" r="121.95"/><circle class="g" cx="1008.76" cy="121.95" r="121.95"/><ellipse class="f" cx="965.48" cy="121.95" rx="64.77" ry="89.1"/><ellipse class="g" cx="944.01" cy="140.83" rx="18.08" ry="28.44"/><ellipse class="f" cx="186.33" cy="334.43" rx="64.77" ry="89.1"/><ellipse class="g" cx="233.45" cy="330.36" rx="17.64" ry="28.44"/><circle class="g" cx="251.1" cy="717.56" r="89.5"/><ellipse class="f" cx="281.6" cy="708.67" rx="47.53" ry="65.39" transform="translate(-186.99 107.06) rotate(-16.24)"/><ellipse class="g" cx="310.12" cy="682.88" rx="12.95" ry="20.87" transform="translate(-178.64 114.01) rotate(-16.24)"/><circle class="g" cx="335.28" cy="179.71" r="38.88"/><ellipse class="f" cx="348.4" cy="183.99" rx="28.41" ry="20.65" transform="translate(65.59 458.31) rotate(-71.97)"/><ellipse class="g" cx="363.09" cy="187.4" rx="9.07" ry="5.62" transform="translate(72.48 474.64) rotate(-71.97)"/><circle class="g" cx="38.89" cy="595.04" r="38.88"/><ellipse class="f" cx="51.65" cy="589.77" rx="20.65" ry="28.41" transform="translate(-221.57 64.56) rotate(-22.48)"/><ellipse class="g" cx="65.03" cy="582.82" rx="5.62" ry="9.07" transform="translate(-217.9 69.15) rotate(-22.48)"/><circle class="g" cx="1317.31" cy="435.28" r="105.53"/><ellipse class="f" cx="1279.85" cy="435.28" rx="56.04" ry="77.09"/><ellipse class="g" cx="1247.58" cy="435.28" rx="15.64" ry="24.6"/><circle class="g" cx="1001.71" cy="533.57" r="69.14"/><ellipse class="f" cx="977.28" cy="531.28" rx="50.51" ry="36.72" transform="translate(357.18 1454.77) rotate(-84.65)"/><ellipse class="g" cx="956.54" cy="524.72" rx="16.12" ry="10.25" transform="translate(344.9 1428.17) rotate(-84.65)"/><circle class="g" cx="1222.36" cy="727.77" r="69.14"/><ellipse class="f" cx="1201.01" cy="715.68" rx="50.51" ry="36.72" transform="translate(-13.46 1408.28) rotate(-60.49)"/><ellipse class="g" cx="1177.97" cy="702.64" rx="16.12" ry="10.25" transform="translate(-13.8 1381.62) rotate(-60.49)"/><path class="e" d="M742.75,765.72s-2.85,51.27-4.16,80.51h-98.14c-2.02-26.61-2.7-46.16-2.7-46.16l-5.37,46.16h-99.2l-6.15-85.49,29.72-73.67s161.06-11.17,176,3c14.93,14.16,10,75.65,10,75.65Z"/><circle class="d" cx="655.96" cy="280.82" r="53.61"/><path class="e" d="M718.45,263.4c-5.51,2.51-9.07,20.69-13.4,16.47s-4.04-9.73-9.87-11.29c-4.71-1.27-9.78,.18-14.08,2.46-.77,.4-1.51,.84-2.24,1.28-.48-.32-.96-.62-1.47-.9-3.84-2.06-8.33-2.56-12.54-1.41,3.32,1.11,6.21,3.24,8.26,6.09-1.44,.96-2.9,1.93-4.39,2.79-12.45,7.18-30.17-8.44-43.27-14.31,8.21,15.4,4.17,21.78-2.96,37.71l-.25,.91c.4-3.99-11.95-6.97-11.23-1.35,.51,3.99,3.96,12.86,5.9,16.38-13.78-15.93-23.19-35.43-21.21-55.54,.43-4.22,.3-8.68,2.48-12.35,2.18-3.65,6.73-6.21,10.75-4.82-1.04-19.6,14-36.34,33.61-37.38,6.97-.37,13.89,1.32,19.9,4.85,5.14,3.02,9.44,7.29,14.16,10.97,4.72,3.68,10.15,6.89,16.13,7.2,3.79,.18,7.92-.74,11.18,1.22,3.77,2.28,4.42,7.05,4.99,11.64-3.37,.33-6.56,1.66-9.17,3.82,3.48-.36,6.99,.4,10.02,2.15,.06,.03,.11,.06,.16,.09,2,7.59,1.79,9.27,8.53,13.31Z"/><path class="h" d="M533.41,713c45.65-53.44,30.23-121.4,12.11-190.01l3.45-101.35c.34-10.09,5.58-19.38,14.03-24.9l46.6-30.45,18.14-26.23,50,5,27.73,29.32,30.69,23.43c15.73,12.01,23.07,32.06,18.79,51.39l-29.37,132.82s12.28,68.86,4.79,76.46-26.81,0-11.49,8.54c18.38,10.24,35.09,8.35,25.79,17.66s2.47,22.23,2.47,22.23l-213.73,6.09Z"/><path class="d" d="M552.93,790.66l7.61-54.22-30.37-8.67-6.01,57.61c-7.46,6.84-7.96,18.44-1.12,25.9,6.84,7.46,18.44,7.96,25.9,1.12,6.04-5.54,7.67-14.42,3.99-21.74h0Z"/><path class="h" d="M610.75,376.07s-86.44,28.13-88.5,48.72-1.38,33.19-10.5,115.56l.48,221.88s57.95,12.41,52.01-.86-3.87-19.51-3.87-19.51c0,0,12.42-4.9,9.31-20.48s12.49-92.77,12.49-92.77l9.84-138.44,18.73-114.1Z"/><path class="d" d="M717.33,787.79l-4.05-54.6,30.87-6.67,2.23,57.88c7,7.31,6.74,18.92-.57,25.91-7.31,7-18.92,6.74-25.91-.57-5.67-5.92-6.71-14.89-2.56-21.96Z"/><path class="h" d="M686.74,370.3s84.41,33.72,85.13,54.4-.79,33.2,2.92,116l-14.98,221.38s-58.64,8.59-51.84-4.26,5.14-19.21,5.14-19.21c0,0-12.08-5.7-7.96-21.04s-6.4-93.39-6.4-93.39l-.77-138.79-11.24-115.08Z"/></g></g></svg>