<?xml version="1.0" encoding="UTF-8"?><svg xmlns="http://www.w3.org/2000/svg" viewBox="0 0 3297.99 635.27"><defs><style>.d{fill:#2f2e41;}.e{fill:#b8b8b8;}.f{fill:#0c0c10;}</style></defs><g id="a"/><g id="b"><g id="c"><path class="f" d="M1724.37,85.53c-7.52-27.4,53.1-50.9,69.02-28.83,2.21-3.14,10.39-5.04,14.15-4.08s6.91,3.37,9.99,5.7c4.23,3.25,8.62,6.62,11.22,11.3,2.62,4.66,3.02,11.01-.5,15.05-2.79,3.21-11.03,5.29-15.22,6.14-2.93,.6-5.39,1.08-7.51,1.42-1.92-2.77-2.81-6.13-2.5-9.49-2.89,1.95-4.75,5.08-5.08,8.55-.06,.71,23.65,87.96,23.65,87.96-2.85,1.62-5.85,2.97-8.95,4.02-6.14-9.38-10.84-19.64-13.95-30.41-.71,7.21-.62,14.47,.27,21.65,.48,4.03,1.16,8.03,2.04,11.99-28.18,6.08-70.56,4.08-89-21.79,0-.11,0-.21,0-.32-.03-2.43-2.03-4.37-4.46-4.34-1.79,.03-3.39,1.13-4.04,2.8-.45,1.14-.86,2.13-1.23,2.91-5.37-19.21,1.58-41.44,22.12-80.24Z"/><path class="d" d="M1676.42,544.93v.9c-.04-.3-.04-.6,0-.9Z"/><path class="d" d="M1704.02,389.86c.72-.19,1.45-.34,2.18-.42-.85,.14-1.57,.28-2.18,.42Z"/><path class="d" d="M1703.38,390.02c.19-.05,.41-.11,.64-.16-.21,.06-.42,.1-.64,.16Z"/><path class="f" d="M1907.25,634.72h-103.29c-3.04-2.42-3.96-6.64-2.21-10.11,2.82-6.47-2.71-12.38-2.71-12.38-3.81-4.47-5.14-10.54-3.54-16.19,2.74-9.56-7.99-36.53-7.99-36.53,0,0-5.78,34.83-12.87,75.23h-98.23c-3.35-5.71-3.35-12.78,0-18.49,5.72-9.71,0-11.57,0-11.57,0,0-5.72-10.86,0-18.75s0-40.09,0-40.09c.22,1.42,1.85-1.16,4.36-6.59,3.82-8.26,9.66-23.11,15.57-40.35,4.22-12.3,8.47-25.84,12.03-39.08h0c.93-3.48,1.81-6.92,2.65-10.34,1.63-6.7,3.03-13.2,4.09-19.31,2.3-13.16,3.06-24.46,1.29-31.81-1.47-6.12-4.68-9.49-10.22-8.91,2.97-.49,7.32-.96,12.68-1.4,.97-.08,1.97-.16,3-.24,39.97-3.02,125.72-4.75,125.72-4.75l26.27,47.04,33.26,59.58s-.91,79.93,.12,145.07Z"/><path class="e" d="M1682.87,567.02c5.06-6.03,4.39-14.99-1.5-20.21-.58-.5-1.21-.95-1.87-1.35l10.12-49.66-23.39-14-6.51,69.52c-2.96,5.88-1.59,13.01,3.34,17.37,5.78,5.02,14.54,4.4,19.56-1.39h0c.08-.1,.16-.19,.25-.29Z"/><path class="f" d="M1755.5,305.28c-.15-1.6-2.18-2.32-5-3.32-2.83-.87-5.53-2.15-8-3.79-6.25-4.51-3.79-9.23-.39-15.76,.66-1.27,1.35-2.59,2-3.96,1.92-4.06-1.14-20.83-9.12-49.84-2.46-8.93-2.45-15.24-4.15-19.42-1.69-4.18-5.08-6.25-14.32-6.68-11.17-.56-22.11,3.32-30.42,10.81-.22,.2-.46,.41-.68,.62-.42,.4-.84,.8-1.24,1.22-7.68,7.73-12.08,18.13-12.27,29.03l-.04,1.86-1.91,88.63-5.36,77.78-7.39,107.14,5.47,.27,21.83,1.09,2.65,.13,6.28-26.35,7.56-31.71,2.78-11.65,8.62-36.14,4.02-16.89,2.46-10.31,1-4.21,4.88-20.47c.11-.43,11.35-44.76,24.3-52.17,4.83-2.76,6.58-4.37,6.44-5.91Z"/><path class="e" d="M1900.81,566.49c-5.67-5.45-5.98-14.43-.68-20.25,.53-.56,1.1-1.08,1.71-1.54l-15.39-48.28,21.75-16.43,13.93,68.42c3.57,5.52,2.98,12.76-1.45,17.62-5.21,5.61-13.98,5.93-19.59,.72h0c-.09-.09-.18-.17-.28-.26Z"/><path class="e" d="M1131.7,567.02c5.06-6.03,4.39-14.99-1.5-20.21-.58-.5-1.21-.95-1.87-1.35l10.12-49.66-23.39-14-6.51,69.52c-2.96,5.88-1.59,13.01,3.34,17.37,5.78,5.02,14.54,4.4,19.56-1.39h0c.08-.1,.16-.19,.25-.29Z"/><path class="e" d="M1349.65,566.49c-5.67-5.45-5.98-14.43-.68-20.25,.53-.56,1.1-1.08,1.71-1.54l-15.39-48.28,21.75-16.43,13.93,68.42c3.57,5.52,2.98,12.76-1.45,17.62-5.21,5.61-13.98,5.93-19.59,.72h0c-.09-.09-.18-.17-.28-.26Z"/><path class="f" d="M1911.45,461.72s-16.96-59.69-11.79-66.15-10.11-7.72-3.52-19.76-2.5-14.05-2.5-14.05l-4.93-27.67-8.82-67.96-.27-2.02-2.56-19.77c-1.45-11.41-7.47-21.74-16.7-28.62-.23-.18-.47-.35-.71-.52-1.09-.78-2.19-1.51-3.33-2.17-8.46-4.99-18.4-6.88-28.11-5.34-18.29,2.85-12.59,9.67-15.56,27.93-4.82,29.7-6.07,46.7-3.72,50.54,.79,1.29,1.62,2.53,2.42,3.72,4.08,6.13,7.03,10.55,1.3,15.72-2.28,1.89-4.82,3.44-7.54,4.62-2.69,1.3-4.64,2.24-4.62,3.84,.03,1.55,1.93,2.96,7.03,5.18,6.18,2.7,12.81,12.92,18.25,23.36,4.31,8.42,8.16,17.06,11.52,25.9l46.7,131.36,7.62,21.42,2.63-.42,21.58-3.42,5.41-.86-9.78-54.87Z"/><path class="f" d="M1797.01,179.74l-60.51-12.84-12.02,24.19-40.46,23.43s26.08,106.64,25.93,121.64c-.38,38.08-61.31,123.44-15.28,116.87s55.37-34.07,70.14-29.72c13.32,3.92,29.59,21.37,40.49,8.89s14.73,1.93,21.62,2.43c3.27,.24,1.3-15.76,9.54,.5s51.9-5.63,37.1-20.43c-24.65-24.65-29.66-206.36-29.66-206.36l-27.44-8.44-19.44-20.15Z"/><circle class="e" cx="1771.47" cy="116.63" r="49.37"/><path class="f" d="M1697.43,89.38c-7.52-27.4,53.1-50.9,69.02-28.83,2.21-3.14,10.39-5.04,14.15-4.08s6.91,3.37,9.99,5.7c4.23,3.25,8.62,6.62,11.22,11.3,2.62,4.66,3.02,11.01-.5,15.05-2.79,3.21-11.03,5.29-15.22,6.14-2.93,.6-5.39,1.08-7.51,1.42-1.92-2.77-2.81-6.13-2.5-9.49-2.89,1.95-4.75,5.08-5.08,8.55-.06,.71,23.65,87.96,23.65,87.96-2.85,1.62-5.85,2.97-8.95,4.02-6.14-9.38-10.84-19.64-13.95-30.41-.71,7.21-.62,14.47,.27,21.65,.48,4.03,1.16,8.03,2.04,11.99-28.18,6.08-70.56,4.08-89-21.79,0-.11,0-.21,0-.32-.03-2.43-2.03-4.37-4.46-4.34-1.79,.03-3.39,1.13-4.04,2.8-.45,1.14-.86,2.13-1.23,2.91-5.37-19.21,1.58-41.44,22.12-80.24Z"/><path class="f" d="M1173.96,85.53c-7.52-27.4,53.1-50.9,69.02-28.83,2.21-3.14,10.39-5.04,14.15-4.08s6.91,3.37,9.99,5.7c4.23,3.25,8.62,6.62,11.22,11.3,2.62,4.66,3.02,11.01-.5,15.05-2.79,3.21-11.03,5.29-15.22,6.14-2.93,.6-5.39,1.08-7.51,1.42-1.92-2.77-2.81-6.13-2.5-9.49-2.89,1.95-4.75,5.08-5.08,8.55-.06,.71,23.65,87.96,23.65,87.96-2.85,1.62-5.85,2.97-8.95,4.02-6.14-9.38-10.84-19.64-13.95-30.41-.71,7.21-.62,14.47,.27,21.65,.48,4.03,1.16,8.03,2.04,11.99-28.18,6.08-70.56,4.08-89-21.79,0-.11,0-.21,0-.32-.03-2.43-2.03-4.37-4.46-4.34-1.79,.03-3.39,1.13-4.04,2.8-.45,1.14-.86,2.13-1.23,2.91-5.37-19.21,1.58-41.44,22.12-80.24Z"/><path class="d" d="M1153.61,389.86c.72-.19,1.45-.34,2.18-.42-.85,.14-1.57,.28-2.18,.42Z"/><path class="d" d="M1152.97,390.02c.19-.05,.41-.11,.64-.16-.21,.06-.42,.1-.64,.16Z"/><path class="f" d="M1356.84,634.72h-103.29c-3.04-2.42-3.96-6.64-2.21-10.11,2.82-6.47-2.71-12.38-2.71-12.38-3.81-4.47-5.14-10.54-3.54-16.19,2.74-9.56-7.99-36.53-7.99-36.53,0,0-5.78,34.83-12.87,75.23h-98.23c-3.35-5.71-3.35-12.78,0-18.49,5.72-9.71,0-11.57,0-11.57,0,0-5.72-10.86,0-18.75s0-40.09,0-40.09c.22,1.42,1.85-1.16,4.36-6.59,3.82-8.26,9.66-23.11,15.57-40.35,4.22-12.3,8.47-25.84,12.03-39.08h0c.93-3.48,1.81-6.92,2.65-10.34,1.63-6.7,3.03-13.2,4.09-19.31,2.3-13.16,3.06-24.46,1.29-31.81-1.47-6.12-4.68-9.49-10.22-8.91,2.97-.49,7.32-.96,12.68-1.4,.97-.08,1.97-.16,3-.24,39.97-3.02,125.72-4.75,125.72-4.75l26.27,47.04,33.26,59.58s-.91,79.93,.12,145.07Z"/><path class="f" d="M1246.6,179.74l-60.51-12.84-12.02,24.19-40.46,23.43s26.08,106.64,25.93,121.64c-.38,38.08-61.31,123.44-15.28,116.87s55.37-34.07,70.14-29.72c13.32,3.92,29.59,21.37,40.49,8.89s14.73,1.93,21.62,2.43c3.27,.24,1.3-15.76,9.54,.5s51.9-5.63,37.1-20.43c-24.65-24.65-29.66-206.36-29.66-206.36l-27.44-8.44-19.44-20.15Z"/><path class="f" d="M1205.09,305.28c-.15-1.6-2.18-2.32-5-3.32-2.83-.87-5.53-2.15-8-3.79-6.25-4.51-3.79-9.23-.39-15.76,.66-1.27,1.35-2.59,2-3.96,1.92-4.06-1.14-20.83-9.12-49.84-2.46-8.93-2.45-15.24-4.15-19.42-1.69-4.18-5.08-6.25-14.32-6.68-11.17-.56-22.11,3.32-30.42,10.81-.22,.2-.46,.41-.68,.62-.42,.4-.84,.8-1.24,1.22-7.68,7.73-12.08,18.13-12.27,29.03l-.04,1.86-1.91,88.63-5.36,77.78-7.39,107.14,5.47,.27,21.83,1.09,2.65,.13,6.28-26.35,7.56-31.71,2.78-11.65,8.62-36.14,4.02-16.89,2.46-10.31,1-4.21,4.88-20.47c.11-.43,11.35-44.76,24.3-52.17,4.83-2.76,6.58-4.37,6.44-5.91Z"/><path class="f" d="M1361.05,461.72s-16.96-59.69-11.79-66.15-10.11-7.72-3.52-19.76-2.5-14.05-2.5-14.05l-4.93-27.67-8.82-67.96-.27-2.02-2.56-19.77c-1.45-11.41-7.47-21.74-16.7-28.62-.23-.18-.47-.35-.71-.52-1.09-.78-2.19-1.51-3.33-2.17-8.46-4.99-18.4-6.88-28.11-5.34-18.29,2.85-12.59,9.67-15.56,27.93-4.82,29.7-6.07,46.7-3.72,50.54,.79,1.29,1.62,2.53,2.42,3.72,4.08,6.13,7.03,10.55,1.3,15.72-2.28,1.89-4.82,3.44-7.54,4.62-2.69,1.3-4.64,2.24-4.62,3.84,.03,1.55,1.93,2.96,7.03,5.18,6.18,2.7,12.81,12.92,18.25,23.36,4.31,8.42,8.16,17.06,11.52,25.9l46.7,131.36,7.62,21.42,2.63-.42,21.58-3.42,5.41-.86-9.78-54.87Z"/><circle class="e" cx="1221.07" cy="116.63" r="49.37"/><path class="f" d="M1147.02,89.38c-7.52-27.4,53.1-50.9,69.02-28.83,2.21-3.14,10.39-5.04,14.15-4.08s6.91,3.37,9.99,5.7c4.23,3.25,8.62,6.62,11.22,11.3,2.62,4.66,3.02,11.01-.5,15.05-2.79,3.21-11.03,5.29-15.22,6.14-2.93,.6-5.39,1.08-7.51,1.42-1.92-2.77-2.81-6.13-2.5-9.49-2.89,1.95-4.75,5.08-5.08,8.55-.06,.71,23.65,87.96,23.65,87.96-2.85,1.62-5.85,2.97-8.95,4.02-6.14-9.38-10.84-19.64-13.95-30.41-.71,7.21-.62,14.47,.27,21.65,.48,4.03,1.16,8.03,2.04,11.99-28.18,6.08-70.56,4.08-89-21.79,0-.11,0-.21,0-.32-.03-2.43-2.03-4.37-4.46-4.34-1.79,.03-3.39,1.13-4.04,2.8-.45,1.14-.86,2.13-1.23,2.91-5.37-19.21,1.58-41.44,22.12-80.24Z"/><path class="f" d="M1519.46,56.7c-.92,2.14-29.2,1.91-30.5,3.81-9.99,14.7,26.02,77.23,16.03,91.95l-1.39,1.66c3.26-1.5,6.39-3.27,9.36-5.28,.27-6.02,.53-12.07,.82-18.09,2.99,3.83,5.41,8.07,7.17,12.6,2.33-1.64,4.23-4.68,14.2-10.66,4.04-4.43,8.69-8.26,13.81-11.37l-29.5-64.62Z"/><path class="e" d="M1540,177.15c-10.84-7.06-25.36-4-32.42,6.84-1.4,2.15-2.44,4.52-3.08,7.02l-42.99,112-73.89-41.95c-.85-12.61-11.75-22.14-24.36-21.29s-22.14,11.75-21.29,24.36c.85,12.61,11.75,22.14,24.36,21.29,2.41-.16,4.78-.7,7.02-1.61,15.56,16.61,83.02,84.7,110.95,58.09,23.47-22.36,57.35-109.03,65.51-138.96,2.68-9.82-1.29-20.25-9.81-25.8Z"/><polygon class="e" points="1459.28 346.6 1472.85 407.92 1572.04 416.89 1581.15 363.5 1459.28 346.6"/><path class="f" d="M1610.8,503.83c-.05,.88-.1,1.75-.16,2.63-.95,12.7-2.04,27.36-3.22,43.41-1.86,25.48-3.93,54.49-6.03,84.85h-208.06l40.35-121.28s16.29-8.97,8-24.04,8.03-3.06,8.18-24.58,14.78-44.42,14.78-44.42l2.4-32.58,1.37,.03,108.27,1.8,1.98,.04,3.33,27.97c20.19,24.03,30.49,54.83,28.81,86.17Z"/><path class="f" d="M1521.19,147.44l49.37-2.54,22.93,36.24s43.15,7.21,40.16,58.06-52.5,95.46-52.5,95.46l2.12-7.26-3.68,10.5,.47,5.9,5.01,6.24,.52,6.46-4.44,10.22h0c1.71,2.74,.87,6.34-1.86,8.04-1.1,.68-2.39,.98-3.67,.86l-71.34-7.15c-1.62-4.47-2.93-9.81-9.44-.91l-6.72-.65-27.94-2.71-1.64-5.99c-1.89-6.9-.5-14.28,3.78-20.01h0c-2.43-7.6-1.79-15.84,1.77-22.98l.13-.27,2.97-2.47s-32.46-48.76,4.8-85.49l14.95-25.42,16.73-20.41,17.51-33.7Z"/><circle class="e" cx="1533.48" cy="79.23" r="46.82"/><path class="f" d="M1569.04,146.68c-3.81-3.19-6.47-7.54-7.55-12.39-.87,5.89-.64,11.88,.67,17.69-2.54,1.91-4.99,3.72-7.32,5.36-1.76-4.53-4.18-8.77-7.17-12.6-.29,6.02-.55,12.07-.82,18.09-2.97,2.01-6.1,3.78-9.36,5.28l1.39-1.66c9.99-14.72-15.86-41.8-5.87-56.5,2.8-4.12-9.86-36.66-19.5-38.12-8.58-1.3-8.22,1.18-16.53,2.99-.86-3.6-2.2-7.07-3.98-10.31,.47,3.62,.36,7.28-.32,10.87-2.95,.11-5.28-1.77-8.43-2.25-20.07-3.07-18.03-24.78-12.45-31.66,5.6-6.86,24.21-8.92,32.79-11.15,.78-.76,2.55-.29,3.34-1.01,16.44-15.04,38.43-17.54,58.21-10.87,21.1,7.11,34.26,20.87,41.01,42.09l1.94,16.98c1.74,5.46-.45,30.86-1.94,36.39-5.79,21.51-18.11,10.77-38.11,32.79Z"/><path class="e" d="M1637.3,368.49l-1.84-143.55c-.2-12.65-10.51-22.81-23.17-22.81h0c-12.8,0-23.17,10.37-23.17,23.17,0,.41,.01,.82,.03,1.23l6.49,149.06,.12,90.74c-10.28,4.36-15.08,16.23-10.72,26.51,4.36,10.28,16.23,15.08,26.51,10.72s15.08-16.23,10.72-26.51c-.47-1.1-1.03-2.16-1.68-3.16l16.72-105.4Z"/><polygon class="e" points="2237.45 346.6 2251.02 407.92 2350.21 416.89 2359.33 363.5 2237.45 346.6"/><path class="f" d="M2388.97,503.83c-.05,.88-.1,1.75-.16,2.63-.95,12.7-2.04,27.36-3.22,43.41-1.86,25.48-3.93,54.49-6.03,84.85h-208.06l40.35-121.28s16.29-8.97,8-24.04,8.03-3.06,8.18-24.58,14.78-44.42,14.78-44.42l2.4-32.58,1.37,.03,108.27,1.8,1.98,.04,3.33,27.97c20.19,24.03,30.49,54.83,28.81,86.17Z"/><path class="f" d="M2299.36,147.44l49.37-2.54,22.93,36.24s43.15,7.21,40.16,58.06-52.5,95.46-52.5,95.46l2.12-7.26-3.68,10.5,.47,5.9,5.01,6.24,.52,6.46-4.44,10.22h0c1.71,2.74,.87,6.34-1.86,8.04-1.1,.68-2.39,.98-3.67,.86l-71.34-7.15c-1.62-4.47-2.93-9.81-9.44-.91l-6.72-.65-27.94-2.71-1.64-5.99c-1.89-6.9-.5-14.28,3.78-20.01h0c-2.43-7.6-1.79-15.84,1.77-22.98l.13-.27,2.97-2.47s-32.46-48.76,4.8-85.49l14.95-25.42,16.73-20.41,17.51-33.7Z"/><circle class="e" cx="2311.65" cy="79.23" r="46.82"/><path class="f" d="M2347.21,146.68c-3.81-3.19-6.47-7.54-7.55-12.39-.87,5.89-.64,11.88,.67,17.69-2.54,1.91-4.99,3.72-7.32,5.36-1.76-4.53-4.18-8.77-7.17-12.6-.29,6.02-.55,12.07-.82,18.09-2.97,2.01-6.1,3.78-9.36,5.28l1.39-1.66c9.99-14.72-15.86-41.8-5.87-56.5,2.8-4.12-9.86-36.66-19.5-38.12-8.58-1.3-8.22,1.18-16.53,2.99-.86-3.6-2.2-7.07-3.98-10.31,.47,3.62,.36,7.28-.32,10.87-2.95,.11-5.28-1.77-8.43-2.25-20.07-3.07-18.03-24.78-12.45-31.66,5.6-6.86,24.21-8.92,32.79-11.15,.78-.76,2.55-.29,3.34-1.01,16.44-15.04,38.43-17.54,58.21-10.87,21.1,7.11,34.26,20.87,41.01,42.09l1.94,16.98c1.74,5.46-.45,30.86-1.94,36.39-5.79,21.51-18.11,10.77-38.11,32.79Z"/><path class="e" d="M2415.48,368.49l-1.84-143.55c-.2-12.65-10.51-22.81-23.17-22.81h0c-12.8,0-23.17,10.37-23.17,23.17,0,.41,.01,.82,.03,1.23l6.49,149.06,.12,90.74c-10.28,4.36-15.08,16.23-10.72,26.51,4.36,10.28,16.23,15.08,26.51,10.72s15.08-16.23,10.72-26.51c-.47-1.1-1.03-2.16-1.68-3.16l16.72-105.4Z"/><path class="f" d="M2192.59,634.73h-111.44l-1.09-4.7-5.96-25.84-5.95,25.84-1.08,4.7h-114.63c-.25-1.58-.49-3.15-.73-4.7-3.34-21.33-6.65-39.1-9.45-44.18-8.12-14.71-.55-5.5,8.11-14.17,8.66-8.66,0,0-5.07-11.12-5.08-11.12,22.44-95.65,22.44-95.65l187.74,2.77s34.68,60.67,35.03,69.04c.2,4.76,1.17,52.78,1.96,93.31,.04,1.57,.06,3.15,.1,4.7Z"/><path class="e" d="M1059.11,600.88c4.79,6.52,13.95,7.93,20.48,3.15,5.57-4.17,7.62-11.56,5.01-18l7.8-106.32-35.01-6.07,6.88,104.5c-.73,.36-1.42,.78-2.08,1.26-6.65,4.99-8.12,14.37-3.32,21.15,.08,.11,.15,.22,.23,.33Z"/><path class="f" d="M2083.09,523.69s79.91,36.76,92.5,8.56c12.59-28.2,6.36-65.89-1.44-70.82s-16.36-27.66-4.95-43.37c11.41-15.71-6.54-42.24-11.56-44.95-3.83-2.06-14.24-118.34-18.99-173.69-1.5-17.48-13.12-32.45-29.68-38.24h0l-18.89-30.51-48.46-.44-24.21,33.56-34.94,13.07-26.23,108.31s-.25,47.84,5.26,98.92c1.71,15.89,3.99,32.1,7,47.28,7.1,35.75-23.81,65.18-6.14,71.95,49.28,18.87,120.74,20.38,120.74,20.38Z"/><path class="e" d="M2157.89,367.88l-1.81,17.33-.42,4.01-.65,6.43-13.94,133.73c2.37,7.93-.91,16.47-7.99,20.77-8.28,4.93-18.99,2.23-23.93-6.04-.08-.14-.14-.28-.23-.42-4.93-8.59-2.13-19.55,6.32-24.72,.84-.48,1.72-.9,2.62-1.24l-.11-3.75-.34-11.77-.25-8.89-.54-17.69-.2-6.86-.65-22.24-.62-21.45-.76-25.99-.59-19.98,7.2-1.83,36.88-9.4Z"/><path class="f" d="M2171.83,345.28c-.65,3.31-1.24,5.45-1.66,6.13-3.64,5.7-5.87-2.26-3.87,13,1.61,12.39-8.04,10.84-4.57,13.49,5.73,4.38-2.17,6.31-5.64,8.68-1.55,1.04,2.75,.8,4.52,2.25,.85,.66-3.17,2.58-2.18,3,3.78,1.78,1.61,3.13-3.41,4.17-8.32,1.7-24.44,2.54-34.17,2.88-2.77,.13-5.02,.18-6.43,.23-1.04,.03-1.64,.03-1.64,.03,0,0-2.46-1.58-3.47-6.39-.73-3.36-.73-8.32,1.3-15.45,1.24-4.38,3.36-7.51,4.6-10.03,.72-1.17,1.06-2.54,.96-3.92v-.03c-.2-1.3-1.13-2.49-3.25-3.77-3.81-2.29-1.69-7.1,1.27-11.63,2.82-4.25,6.38-8.3,6.38-9.77,0-3.13-23.48-69.64-23.48-69.64l8.64-100.43c6.59-4.52,14.58-6.52,22.52-5.62,5.45,.71,11.51,3,17.75,8.14,5.45,4.5,11.03,11.22,16.4,20.94,22.8,41.3,14.31,129.36,9.45,153.74Z"/><circle class="e" cx="2057.96" cy="68.44" r="50.4"/><path class="f" d="M2110.41,94.08s-13.99,11.42-21.65,14.75c2.12-7.37,4.34-20.03,6.45-27.39,1.1-3.87,2.23-7.82,2.05-11.82-.19-4.03-1.92-8.18-5.33-10.27-4.36-2.67-10.06-1.31-12.73,3.05-1.52,2.48-1.79,5.54-.72,8.25-3.34-.23-5.23-4.04-5.64-7.38-.41-3.34-.1-6.97-1.94-9.8-1.78-2.74-5.29-3.99-8.57-3.84-3.26,.14-6.36,1.47-9.28,3-8.35,4.32-15.94,10.29-24.93,13.14-1.8,.57-3.65,.98-5.53,1.2,.07-5.43-1.74-10.73-5.1-14.99-.49,5.06-1.92,9.99-4.21,14.53-4.33-.84-8.18-3.3-10.77-6.88-2.81-4.07-3.5-9.33-2.84-14.23,.32-2.25,.87-4.46,1.64-6.6,1.32-.32,2.61-.76,3.84-1.33,2.72-1.19,5.19-2.91,7.24-5.06-2.78,.12-5.56-.08-8.3-.59,.07-.16,.13-.3,.2-.47,1.57-3.42,3.3-6.95,6.32-9.18,3.02-2.22,7.71-2.66,10.34,.04,14.22-22.35,43.86-28.94,66.21-14.72,.24,.15,.48,.31,.71,.46-1.96,2.23-3.46,4.83-4.42,7.64,2.98-1.53,6.14-2.67,9.41-3.39,2.3,2.57,3.76,5.65,3.13,8.95,3.82,1.86,11.26,4.95,7.74,6.99,18.93,16.95,21.83,45.53,6.68,65.92h0Z"/><path class="e" d="M2047.93,440.28c-.62,9.62-8.92,16.92-18.53,16.31-.16-.03-.31-.05-.47-.06-9.88-.81-17.32-9.33-16.8-19.22,.09-.96,.25-1.92,.47-2.86l-3.15-2.03-9.9-6.41-7.45-4.81-14.89-9.6-5.76-3.71-.77-.49-17.92-11.59-14.39-9.29-1.22-.79-2.41-1.56-21.85-14.1-5.88-3.79s0-.02,0-.02c-.2-.37,12.17-6.51,11.97-6.88-3.12-6.17-7.06-11.36-1.97-33.52l-5.19-9.33,13.25,11.32,3.06,2.62,4.93,4.18,60.96,52.01,41.33,35.25c7.88,2.55,13.04,10.09,12.58,18.36Z"/><path class="f" d="M2036.77,249.2l-68.36,105.11,27.47,30.7-1.85,1.66-23.34,20.72-6.61,5.86-12.22-2.48s-2.43-3.69-15.18-5.58c-12.76-1.89-5.32-6.23,.32-14.71,1.34-2.03-3.86,1.16-4.2,.45-.16-.43-3.31-1.87-3.94-1.97-2.6-.49-.06-1.97-3.81-2.74-6.01-1.22-6.37,3.04-18.02-19.93-.02-.02,0-.02,0-.02-.2-.37-.37-.73-.57-1.1-3.12-6.17-.87-23.32,4.22-45.49,7.77-33.79,22.12-79.22,34.07-114.93,9.05-26.98,38.25-41.51,65.22-32.47,26.98,9.05,41.51,38.25,32.47,65.22-1.38,4.12-3.28,8.06-5.65,11.71h0Z"/><path class="f" d="M67.17,85.53c-7.52-27.4,53.1-50.9,69.02-28.83,2.21-3.14,10.39-5.04,14.15-4.08s6.91,3.37,9.99,5.7c4.23,3.25,8.62,6.62,11.22,11.3,2.62,4.66,3.02,11.01-.5,15.05-2.79,3.21-11.03,5.29-15.22,6.14-2.93,.6-5.39,1.08-7.51,1.42-1.92-2.77-2.81-6.13-2.5-9.49-2.89,1.95-4.75,5.08-5.08,8.55-.06,.71,23.65,87.96,23.65,87.96-2.85,1.62-5.85,2.97-8.95,4.02-6.14-9.38-10.84-19.64-13.95-30.41-.71,7.21-.62,14.47,.27,21.65,.48,4.03,1.16,8.03,2.04,11.99-28.18,6.08-70.56,4.08-89-21.79,0-.11,0-.21,0-.32-.03-2.43-2.03-4.37-4.46-4.34-1.79,.03-3.39,1.13-4.04,2.8-.45,1.14-.86,2.13-1.23,2.91-5.37-19.21,1.58-41.44,22.12-80.24Z"/><path class="d" d="M19.22,544.93v.9c-.04-.3-.04-.6,0-.9Z"/><path class="d" d="M46.81,389.86c.72-.19,1.45-.34,2.18-.42-.85,.14-1.57,.28-2.18,.42Z"/><path class="d" d="M46.17,390.02c.19-.05,.41-.11,.64-.16-.21,.06-.42,.1-.64,.16Z"/><path class="f" d="M250.04,634.72h-103.29c-3.04-2.42-3.96-6.64-2.21-10.11,2.82-6.47-2.71-12.38-2.71-12.38-3.81-4.47-5.14-10.54-3.54-16.19,2.74-9.56-7.99-36.53-7.99-36.53,0,0-5.78,34.83-12.87,75.23H19.22c-3.35-5.71-3.35-12.78,0-18.49,5.72-9.71,0-11.57,0-11.57,0,0-5.72-10.86,0-18.75s0-40.09,0-40.09c.22,1.42,1.85-1.16,4.36-6.59,3.82-8.26,9.66-23.11,15.57-40.35,4.22-12.3,8.47-25.84,12.03-39.08h0c.93-3.48,1.81-6.92,2.65-10.34,1.63-6.7,3.03-13.2,4.09-19.31,2.3-13.16,3.06-24.46,1.29-31.81-1.47-6.12-4.68-9.49-10.22-8.91,2.97-.49,7.32-.96,12.68-1.4,.97-.08,1.97-.16,3-.24,39.97-3.02,125.72-4.75,125.72-4.75l26.27,47.04,33.26,59.58s-.91,79.93,.12,145.07Z"/><path class="e" d="M25.66,567.02c5.06-6.03,4.39-14.99-1.5-20.21-.58-.5-1.21-.95-1.87-1.35l10.12-49.66-23.39-14-6.51,69.52c-2.96,5.88-1.59,13.01,3.34,17.37,5.78,5.02,14.54,4.4,19.56-1.39h0c.08-.1,.16-.19,.25-.29Z"/><path class="f" d="M98.29,305.28c-.15-1.6-2.18-2.32-5-3.32-2.83-.87-5.53-2.15-8-3.79-6.25-4.51-3.79-9.23-.39-15.76,.66-1.27,1.35-2.59,2-3.96,1.92-4.06-1.14-20.83-9.12-49.84-2.46-8.93-2.45-15.24-4.15-19.42-1.69-4.18-5.08-6.25-14.32-6.68-11.17-.56-22.11,3.32-30.42,10.81-.22,.2-.46,.41-.68,.62-.42,.4-.84,.8-1.24,1.22-7.68,7.73-12.08,18.13-12.27,29.03l-.04,1.86-1.91,88.63-5.36,77.78L0,519.6l5.47,.27,21.83,1.09,2.65,.13,6.28-26.35,7.56-31.71,2.78-11.65,8.62-36.14,4.02-16.89,2.46-10.31,1-4.21,4.88-20.47c.11-.43,11.35-44.76,24.3-52.17,4.83-2.76,6.58-4.37,6.44-5.91Z"/><path class="e" d="M243.61,566.49c-5.67-5.45-5.98-14.43-.68-20.25,.53-.56,1.1-1.08,1.71-1.54l-15.39-48.28,21.75-16.43,13.93,68.42c3.57,5.52,2.98,12.76-1.45,17.62-5.21,5.61-13.98,5.93-19.59,.72h0c-.09-.09-.18-.17-.28-.26Z"/><path class="f" d="M254.25,461.72s-16.96-59.69-11.79-66.15-10.11-7.72-3.52-19.76-2.5-14.05-2.5-14.05l-4.93-27.67-8.82-67.96-.27-2.02-2.56-19.77c-1.45-11.41-7.47-21.74-16.7-28.62-.23-.18-.47-.35-.71-.52-1.09-.78-2.19-1.51-3.33-2.17-8.46-4.99-18.4-6.88-28.11-5.34-18.29,2.85-12.59,9.67-15.56,27.93-4.82,29.7-6.07,46.7-3.72,50.54,.79,1.29,1.62,2.53,2.42,3.72,4.08,6.13,7.03,10.55,1.3,15.72-2.28,1.89-4.82,3.44-7.54,4.62-2.69,1.3-4.64,2.24-4.62,3.84,.03,1.55,1.93,2.96,7.03,5.18,6.18,2.7,12.81,12.92,18.25,23.36,4.31,8.42,8.16,17.06,11.52,25.9l46.7,131.36,7.62,21.42,2.63-.42,21.58-3.42,5.41-.86-9.78-54.87Z"/><path class="f" d="M139.8,179.74l-60.51-12.84-12.02,24.19-40.46,23.43s26.08,106.64,25.93,121.64c-.38,38.08-61.31,123.44-15.28,116.87s55.37-34.07,70.14-29.72c13.32,3.92,29.59,21.37,40.49,8.89s14.73,1.93,21.62,2.43c3.27,.24,1.3-15.76,9.54,.5s51.9-5.63,37.1-20.43c-24.65-24.65-29.66-206.36-29.66-206.36l-27.44-8.44-19.44-20.15Z"/><circle class="e" cx="114.27" cy="116.63" r="49.37"/><path class="f" d="M40.22,89.38c-7.52-27.4,53.1-50.9,69.02-28.83,2.21-3.14,10.39-5.04,14.15-4.08s6.91,3.37,9.99,5.7c4.23,3.25,8.62,6.62,11.22,11.3,2.62,4.66,3.02,11.01-.5,15.05-2.79,3.21-11.03,5.29-15.22,6.14-2.93,.6-5.39,1.08-7.51,1.42-1.92-2.77-2.81-6.13-2.5-9.49-2.89,1.95-4.75,5.08-5.08,8.55-.06,.71,23.65,87.96,23.65,87.96-2.85,1.62-5.85,2.97-8.95,4.02-6.14-9.38-10.84-19.64-13.95-30.41-.71,7.21-.62,14.47,.27,21.65,.48,4.03,1.16,8.03,2.04,11.99-28.18,6.08-70.56,4.08-89-21.79,0-.11,0-.21,0-.32-.03-2.43-2.03-4.37-4.46-4.34-1.79,.03-3.39,1.13-4.04,2.8-.45,1.14-.86,2.13-1.23,2.91-5.37-19.21,1.58-41.44,22.12-80.24Z"/><polygon class="e" points="580.25 346.6 593.81 407.92 693.01 416.89 702.12 363.5 580.25 346.6"/><path class="f" d="M731.77,503.83c-.05,.88-.1,1.75-.16,2.63-.95,12.7-2.04,27.36-3.22,43.41-1.86,25.48-3.93,54.49-6.03,84.85h-208.06l40.35-121.28s16.29-8.97,8-24.04,8.03-3.06,8.18-24.58,14.78-44.42,14.78-44.42l2.4-32.58,1.37,.03,108.27,1.8,1.98,.04,3.33,27.97c20.19,24.03,30.49,54.83,28.81,86.17Z"/><path class="f" d="M642.16,147.44l49.37-2.54,22.93,36.24s43.15,7.21,40.16,58.06-52.5,95.46-52.5,95.46l2.12-7.26-3.68,10.5,.47,5.9,5.01,6.24,.52,6.46-4.44,10.22h0c1.71,2.74,.87,6.34-1.86,8.04-1.1,.68-2.39,.98-3.67,.86l-71.34-7.15c-1.62-4.47-2.93-9.81-9.44-.91l-6.72-.65-27.94-2.71-1.64-5.99c-1.89-6.9-.5-14.28,3.78-20.01h0c-2.43-7.6-1.79-15.84,1.77-22.98l.13-.27,2.97-2.47s-32.46-48.76,4.8-85.49l14.95-25.42,16.73-20.41,17.51-33.7Z"/><circle class="e" cx="654.45" cy="79.23" r="46.82"/><path class="f" d="M690.01,146.68c-3.81-3.19-6.47-7.54-7.55-12.39-.87,5.89-.64,11.88,.67,17.69-2.54,1.91-4.99,3.72-7.32,5.36-1.76-4.53-4.18-8.77-7.17-12.6-.29,6.02-.55,12.07-.82,18.09-2.97,2.01-6.1,3.78-9.36,5.28l1.39-1.66c9.99-14.72-15.86-41.8-5.87-56.5,2.8-4.12-9.86-36.66-19.5-38.12-8.58-1.3-8.22,1.18-16.53,2.99-.86-3.6-2.2-7.07-3.98-10.31,.47,3.62,.36,7.28-.32,10.87-2.95,.11-5.28-1.77-8.43-2.25-20.07-3.07-18.03-24.78-12.45-31.66,5.6-6.86,24.21-8.92,32.79-11.15,.78-.76,2.55-.29,3.34-1.01,16.44-15.04,38.43-17.54,58.21-10.87,21.1,7.11,34.26,20.87,41.01,42.09l1.94,16.98c1.74,5.46-.45,30.86-1.94,36.39-5.79,21.51-18.11,10.77-38.11,32.79Z"/><path class="e" d="M758.27,368.49l-1.84-143.55c-.2-12.65-10.51-22.81-23.17-22.81h0c-12.8,0-23.17,10.37-23.17,23.17,0,.41,.01,.82,.03,1.23l6.49,149.06,.12,90.74c-10.28,4.36-15.08,16.23-10.72,26.51,4.36,10.28,16.23,15.08,26.51,10.72s15.08-16.23,10.72-26.51c-.47-1.1-1.03-2.16-1.68-3.16l16.72-105.4Z"/><path class="f" d="M535.39,634.73h-111.44l-1.09-4.7-5.96-25.84-5.95,25.84-1.08,4.7h-114.63c-.25-1.58-.49-3.15-.73-4.7-3.34-21.33-6.65-39.1-9.45-44.18-8.12-14.71-.55-5.5,8.11-14.17,8.66-8.66,0,0-5.07-11.12-5.08-11.12,22.44-95.65,22.44-95.65l187.74,2.77s34.68,60.67,35.03,69.04c.2,4.76,1.17,52.78,1.96,93.31,.04,1.57,.06,3.15,.1,4.7Z"/><path class="f" d="M425.89,523.69s79.91,36.76,92.5,8.56c12.59-28.2,6.36-65.89-1.44-70.82s-16.36-27.66-4.95-43.37c11.41-15.71-6.54-42.24-11.56-44.95-3.83-2.06-14.24-118.34-18.99-173.69-1.5-17.48-13.12-32.45-29.68-38.24h0l-18.89-30.51-48.46-.44-24.21,33.56-34.94,13.07-26.23,108.31s-.25,47.84,5.26,98.92c1.71,15.89,3.99,32.1,7,47.28,7.1,35.75-23.81,65.18-6.14,71.95,49.28,18.87,120.74,20.38,120.74,20.38Z"/><path class="e" d="M500.68,367.88l-1.81,17.33-.42,4.01-.65,6.43-13.94,133.73c2.37,7.93-.91,16.47-7.99,20.77-8.28,4.93-18.99,2.23-23.93-6.04-.08-.14-.14-.28-.23-.42-4.93-8.59-2.13-19.55,6.32-24.72,.84-.48,1.72-.9,2.62-1.24l-.11-3.75-.34-11.77-.25-8.89-.54-17.69-.2-6.86-.65-22.24-.62-21.45-.76-25.99-.59-19.98,7.2-1.83,36.88-9.4Z"/><path class="f" d="M514.62,345.28c-.65,3.31-1.24,5.45-1.66,6.13-3.64,5.7-5.87-2.26-3.87,13,1.61,12.39-8.04,10.84-4.57,13.49,5.73,4.38-2.17,6.31-5.64,8.68-1.55,1.04,2.75,.8,4.52,2.25,.85,.66-3.17,2.58-2.18,3,3.78,1.78,1.61,3.13-3.41,4.17-8.32,1.7-24.44,2.54-34.17,2.88-2.77,.13-5.02,.18-6.43,.23-1.04,.03-1.64,.03-1.64,.03,0,0-2.46-1.58-3.47-6.39-.73-3.36-.73-8.32,1.3-15.45,1.24-4.38,3.36-7.51,4.6-10.03,.72-1.17,1.06-2.54,.96-3.92v-.03c-.2-1.3-1.13-2.49-3.25-3.77-3.81-2.29-1.69-7.1,1.27-11.63,2.82-4.25,6.38-8.3,6.38-9.77,0-3.13-23.48-69.64-23.48-69.64l8.64-100.43c6.59-4.52,14.58-6.52,22.52-5.62,5.45,.71,11.51,3,17.75,8.14,5.45,4.5,11.03,11.22,16.4,20.94,22.8,41.3,14.31,129.36,9.45,153.74Z"/><circle class="e" cx="400.76" cy="68.44" r="50.4"/><path class="f" d="M453.21,94.08s-13.99,11.42-21.65,14.75c2.12-7.37,4.34-20.03,6.45-27.39,1.1-3.87,2.23-7.82,2.05-11.82-.19-4.03-1.92-8.18-5.33-10.27-4.36-2.67-10.06-1.31-12.73,3.05-1.52,2.48-1.79,5.54-.72,8.25-3.34-.23-5.23-4.04-5.64-7.38-.41-3.34-.1-6.97-1.94-9.8-1.78-2.74-5.29-3.99-8.57-3.84-3.26,.14-6.36,1.47-9.28,3-8.35,4.32-15.94,10.29-24.93,13.14-1.8,.57-3.65,.98-5.53,1.2,.07-5.43-1.74-10.73-5.1-14.99-.49,5.06-1.92,9.99-4.21,14.53-4.33-.84-8.18-3.3-10.77-6.88-2.81-4.07-3.5-9.33-2.84-14.23,.32-2.25,.87-4.46,1.64-6.6,1.32-.32,2.61-.76,3.84-1.33,2.72-1.19,5.19-2.91,7.24-5.06-2.78,.12-5.56-.08-8.3-.59,.07-.16,.13-.3,.2-.47,1.57-3.42,3.3-6.95,6.32-9.18,3.02-2.22,7.71-2.66,10.34,.04C377.96-.13,407.61-6.72,429.95,7.5c.24,.15,.48,.31,.71,.46-1.96,2.23-3.46,4.83-4.42,7.64,2.98-1.53,6.14-2.67,9.41-3.39,2.3,2.57,3.76,5.65,3.13,8.95,3.82,1.86,11.26,4.95,7.74,6.99,18.93,16.95,21.83,45.53,6.68,65.92h0Z"/><path class="e" d="M390.72,440.28c-.62,9.62-8.92,16.92-18.53,16.31-.16-.03-.31-.05-.47-.06-9.88-.81-17.32-9.33-16.8-19.22,.09-.96,.25-1.92,.47-2.86l-3.15-2.03-9.9-6.41-7.45-4.81-14.89-9.6-5.76-3.71-.77-.49-17.92-11.59-14.39-9.29-1.22-.79-2.41-1.56-21.85-14.1-5.88-3.79s0-.02,0-.02c-.2-.37,12.17-6.51,11.97-6.88-3.12-6.17-7.06-11.36-1.97-33.52l-5.19-9.33,13.25,11.32,3.06,2.62,4.93,4.18,60.96,52.01,41.33,35.25c7.88,2.55,13.04,10.09,12.58,18.36Z"/><path class="f" d="M379.56,249.2l-68.36,105.11,27.47,30.7-1.85,1.66-23.34,20.72-6.61,5.86-12.22-2.48s-2.43-3.69-15.18-5.58c-12.76-1.89-5.32-6.23,.32-14.71,1.34-2.03-3.86,1.16-4.2,.45-.16-.43-3.31-1.87-3.94-1.97-2.6-.49-.06-1.97-3.81-2.74-6.01-1.22-6.37,3.04-18.02-19.93-.02-.02,0-.02,0-.02-.2-.37-.37-.73-.57-1.1-3.12-6.17-.87-23.32,4.22-45.49,7.77-33.79,22.12-79.22,34.07-114.93,9.05-26.98,38.25-41.51,65.22-32.47,26.98,9.05,41.51,38.25,32.47,65.22-1.38,4.12-3.28,8.06-5.65,11.71h0Z"/><path class="f" d="M825.56,509.18c14.21-14.07,11.58-78.19,11.58-78.19,0,0-14.14-215.32,5-229.75,13.23-9.55,27.32-17.87,42.07-24.85,.85-.38,1.3-.59,1.3-.59l32.43-.62,40.27-7.11,27.98-5.12s2.06,.14,5.28,.59c12.03,1.66,40.32,7.53,37.81,25.84-3.17,23.21,19.23,165.79,26.06,172.92s5.02,33.19-11.84,49.74c-16.87,16.56-4.74,61.59,7.11,80.54,7.11,11.6,10.39,25.14,9.38,38.71,0,0-9.38,51.31-33.07,34.73-9.03-6.32-21.84-7.13-37.26-5.97-21.41,1.59-47.87,6.96-76.18,6.66-4.78-.05-9.59-.26-14.47-.69-42.21-3.67-60.85,7.94-66.33-4.74-5.47-12.67-21.32-38.04-7.11-52.11Z"/><path class="f" d="M1034.16,377.26c2.52,3.54,2.22,13.04,0,24.16s24.27,103.02,24.27,103.02h37.47s6.81-109.4-2.66-123.02c-9.48-13.62,0-2.96,7.11-12.43s-4.74-4.74-16.68-16.9c-11.95-12.16-2.27-6.79,7.21-16.26s-63.96-156.34-63.96-156.34l-54.48-2.37s59.22,196.61,61.73,200.15Z"/><circle class="e" cx="938.85" cy="74.26" r="54.61"/><path class="f" d="M903.85,23.58c9.17-16.96,33.02-24.66,40.91-22.76,.11,.26,.2,.53,.28,.81,.09,.31,.19,.64,.26,.97,.1,.4,.18,.8,.24,1.21,.52,3.22,4.45,6.23,7.08,4.1,.43-.33,.88-.69,1.28-1.02,.31-.26,.59-.52,.88-.81,4.26,3.46-7.32,11.91-7.32,11.91,10-4.25,21.35-3.94,31.1,.83,5,2.46,8.17,7.51,10.16,13.34-2.43,2.25-5.49,3.69-8.76,4.12,2.94,1.67,6.06,3.03,9.29,4.05,.52,.17,1.04,.33,1.56,.47,1.1,7.21,1.37,14.52,.83,21.79-11-5.36-22.91-8.63-35.11-9.64,1.23,2.77,1.3,5.73-2.44,7.44-3.3,1.08-6.79,1.48-10.26,1.18-2.65-2.62-4.29-6.09-4.64-9.81-1.78,2.88-3.25,5.93-4.38,9.12-9.45-1.09-18.43-3.03-18.43-3.03,0,0-16.2,5.33-17.39,20.21s18.95,47.38,18.95,47.38l-21.65-4.15c-56.52-66.92,7.56-97.71,7.56-97.71Z"/><path class="f" d="M833.7,400.95c-2.52,3.54-2.22,13.04,0,24.16,2.22,11.12,34.49,95.92,34.49,95.92l-33.16,16.58s-76.99-128.35-67.51-141.97c9.48-13.62,0-2.96-7.11-12.43s4.74-4.74,16.68-16.9c11.95-12.16,2.27-6.79-7.21-16.26-9.48-9.48,71.06-146.86,71.06-146.86l54.48-2.37s-59.22,196.61-61.73,200.15Z"/><path class="f" d="M885.51,175.8l12.22-34.47,75.3-3.91,13.15,25.54s2.06,.14,5.28,.59l-30.89,189.29-76.37-176.45c.85-.38,1.3-.59,1.3-.59Z"/><path class="f" d="M962.95,428.64l26.7,133.79c-21.41,1.59-47.87,6.96-76.18,6.66l49.48-140.44Z"/><path class="f" d="M832.88,635.27h109.92l2.52-12.16s.88,5.26,1.99,12.16h134.63l2.25-17.47s6.53-18.32,0-18.8-10.22,1.59-8.37-5.37c1.85-6.96-36.05-123.03-36.05-123.03l-196.61,42.64s-19.39,38.52-11.84,56.85c3.03,7.37,2.63,34.71,1.57,65.18Z"/><path class="e" d="M900.2,590.68c-1.29,7.99-8.82,13.41-16.8,12.12-6.85-1.18-12.05-6.82-12.66-13.75l-55.32-91.12,28.41-21.33,41.42,96.19c.81,0,1.62,.05,2.43,.18,8.19,1.42,13.77,9.1,12.58,17.33-.02,.13-.04,.27-.06,.4Z"/><path class="e" d="M2792.39,567.02c5.06-6.03,4.39-14.99-1.5-20.21-.58-.5-1.21-.95-1.87-1.35l10.12-49.66-23.39-14-6.51,69.52c-2.96,5.88-1.59,13.01,3.34,17.37,5.78,5.02,14.54,4.4,19.56-1.39h0c.08-.1,.16-.19,.25-.29Z"/><path class="e" d="M3010.34,566.49c-5.67-5.45-5.98-14.43-.68-20.25,.53-.56,1.1-1.08,1.71-1.54l-15.39-48.28,21.75-16.43,13.93,68.42c3.57,5.52,2.98,12.76-1.45,17.62-5.21,5.61-13.98,5.93-19.59,.72h0c-.09-.09-.18-.17-.28-.26Z"/><path class="f" d="M2834.65,85.53c-7.52-27.4,53.1-50.9,69.02-28.83,2.21-3.14,10.39-5.04,14.15-4.08s6.91,3.37,9.99,5.7c4.23,3.25,8.62,6.62,11.22,11.3,2.62,4.66,3.02,11.01-.5,15.05-2.79,3.21-11.03,5.29-15.22,6.14-2.93,.6-5.39,1.08-7.51,1.42-1.92-2.77-2.81-6.13-2.5-9.49-2.89,1.95-4.75,5.08-5.08,8.55-.06,.71,23.65,87.96,23.65,87.96-2.85,1.62-5.85,2.97-8.95,4.02-6.14-9.38-10.84-19.64-13.95-30.41-.71,7.21-.62,14.47,.27,21.65,.48,4.03,1.16,8.03,2.04,11.99-28.18,6.08-70.56,4.08-89-21.79,0-.11,0-.21,0-.32-.03-2.43-2.03-4.37-4.46-4.34-1.79,.03-3.39,1.13-4.04,2.8-.45,1.14-.86,2.13-1.23,2.91-5.37-19.21,1.58-41.44,22.12-80.24Z"/><path class="d" d="M2814.29,389.86c.72-.19,1.45-.34,2.18-.42-.85,.14-1.57,.28-2.18,.42Z"/><path class="d" d="M2813.66,390.02c.19-.05,.41-.11,.64-.16-.21,.06-.42,.1-.64,.16Z"/><path class="f" d="M3017.53,634.72h-103.29c-3.04-2.42-3.96-6.64-2.21-10.11,2.82-6.47-2.71-12.38-2.71-12.38-3.81-4.47-5.14-10.54-3.54-16.19,2.74-9.56-7.99-36.53-7.99-36.53,0,0-5.78,34.83-12.87,75.23h-98.23c-3.35-5.71-3.35-12.78,0-18.49,5.72-9.71,0-11.57,0-11.57,0,0-5.72-10.86,0-18.75s0-40.09,0-40.09c.22,1.42,1.85-1.16,4.36-6.59,3.82-8.26,9.66-23.11,15.57-40.35,4.22-12.3,8.47-25.84,12.03-39.08h0c.93-3.48,1.81-6.92,2.65-10.34,1.63-6.7,3.03-13.2,4.09-19.31,2.3-13.16,3.06-24.46,1.29-31.81-1.47-6.12-4.68-9.49-10.22-8.91,2.97-.49,7.32-.96,12.68-1.4,.97-.08,1.97-.16,3-.24,39.97-3.02,125.72-4.75,125.72-4.75l26.27,47.04,33.26,59.58s-.91,79.93,.12,145.07Z"/><path class="f" d="M2907.28,179.74l-60.51-12.84-12.02,24.19-40.46,23.43s26.08,106.64,25.93,121.64c-.38,38.08-61.31,123.44-15.28,116.87s55.37-34.07,70.14-29.72c13.32,3.92,29.59,21.37,40.49,8.89s14.73,1.93,21.62,2.43c3.27,.24,1.3-15.76,9.54,.5s51.9-5.63,37.1-20.43c-24.65-24.65-29.66-206.36-29.66-206.36l-27.44-8.44-19.44-20.15Z"/><path class="f" d="M2865.77,305.28c-.15-1.6-2.18-2.32-5-3.32-2.83-.87-5.53-2.15-8-3.79-6.25-4.51-3.79-9.23-.39-15.76,.66-1.27,1.35-2.59,2-3.96,1.92-4.06-1.14-20.83-9.12-49.84-2.46-8.93-2.45-15.24-4.15-19.42-1.69-4.18-5.08-6.25-14.32-6.68-11.17-.56-22.11,3.32-30.42,10.81-.22,.2-.46,.41-.68,.62-.42,.4-.84,.8-1.24,1.22-7.68,7.73-12.08,18.13-12.27,29.03l-.04,1.86-1.91,88.63-5.36,77.78-7.39,107.14,5.47,.27,21.83,1.09,2.65,.13,6.28-26.35,7.56-31.71,2.78-11.65,8.62-36.14,4.02-16.89,2.46-10.31,1-4.21,4.88-20.47c.11-.43,11.35-44.76,24.3-52.17,4.83-2.76,6.58-4.37,6.44-5.91Z"/><path class="f" d="M3021.73,461.72s-16.96-59.69-11.79-66.15-10.11-7.72-3.52-19.76-2.5-14.05-2.5-14.05l-4.93-27.67-8.82-67.96-.27-2.02-2.56-19.77c-1.45-11.41-7.47-21.74-16.7-28.62-.23-.18-.47-.35-.71-.52-1.09-.78-2.19-1.51-3.33-2.17-8.46-4.99-18.4-6.88-28.11-5.34-18.29,2.85-12.59,9.67-15.56,27.93-4.82,29.7-6.07,46.7-3.72,50.54,.79,1.29,1.62,2.53,2.42,3.72,4.08,6.13,7.03,10.55,1.3,15.72-2.28,1.89-4.82,3.44-7.54,4.62-2.69,1.3-4.64,2.24-4.62,3.84,.03,1.55,1.93,2.96,7.03,5.18,6.18,2.7,12.81,12.92,18.25,23.36,4.31,8.42,8.16,17.06,11.52,25.9l46.7,131.36,7.62,21.42,2.63-.42,21.58-3.42,5.41-.86-9.78-54.87Z"/><circle class="e" cx="2881.75" cy="116.63" r="49.37"/><path class="f" d="M2807.7,89.38c-7.52-27.4,53.1-50.9,69.02-28.83,2.21-3.14,10.39-5.04,14.15-4.08s6.91,3.37,9.99,5.7c4.23,3.25,8.62,6.62,11.22,11.3,2.62,4.66,3.02,11.01-.5,15.05-2.79,3.21-11.03,5.29-15.22,6.14-2.93,.6-5.39,1.08-7.51,1.42-1.92-2.77-2.81-6.13-2.5-9.49-2.89,1.95-4.75,5.08-5.08,8.55-.06,.71,23.65,87.96,23.65,87.96-2.85,1.62-5.85,2.97-8.95,4.02-6.14-9.38-10.84-19.64-13.95-30.41-.71,7.21-.62,14.47,.27,21.65,.48,4.03,1.16,8.03,2.04,11.99-28.18,6.08-70.56,4.08-89-21.79,0-.11,0-.21,0-.32-.03-2.43-2.03-4.37-4.46-4.34-1.79,.03-3.39,1.13-4.04,2.8-.45,1.14-.86,2.13-1.23,2.91-5.37-19.21,1.58-41.44,22.12-80.24Z"/><path class="f" d="M3180.14,56.7c-.92,2.14-29.2,1.91-30.5,3.81-9.99,14.7,26.02,77.23,16.03,91.95l-1.39,1.66c3.26-1.5,6.39-3.27,9.36-5.28,.27-6.02,.53-12.07,.82-18.09,2.99,3.83,5.41,8.07,7.17,12.6,2.33-1.64,4.23-4.68,14.2-10.66,4.04-4.43,8.69-8.26,13.81-11.37l-29.5-64.62Z"/><path class="e" d="M3200.68,177.15c-10.84-7.06-25.36-4-32.42,6.84-1.4,2.15-2.44,4.52-3.08,7.02l-42.99,112-73.89-41.95c-.85-12.61-11.75-22.14-24.36-21.29s-22.14,11.75-21.29,24.36c.85,12.61,11.75,22.14,24.36,21.29,2.41-.16,4.78-.7,7.02-1.61,15.56,16.61,83.02,84.7,110.95,58.09,23.47-22.36,57.35-109.03,65.51-138.96,2.68-9.82-1.29-20.25-9.81-25.8Z"/><polygon class="e" points="3119.97 346.6 3133.53 407.92 3232.72 416.89 3241.84 363.5 3119.97 346.6"/><path class="f" d="M3271.48,503.83c-.05,.88-.1,1.75-.16,2.63-.95,12.7-2.04,27.36-3.22,43.41-1.86,25.48-3.93,54.49-6.03,84.85h-208.06l40.35-121.28s16.29-8.97,8-24.04,8.03-3.06,8.18-24.58,14.78-44.42,14.78-44.42l2.4-32.58,1.37,.03,108.27,1.8,1.98,.04,3.33,27.97c20.19,24.03,30.49,54.83,28.81,86.17Z"/><path class="f" d="M3181.88,147.44l49.37-2.54,22.93,36.24s43.15,7.21,40.16,58.06-52.5,95.46-52.5,95.46l2.12-7.26-3.68,10.5,.47,5.9,5.01,6.24,.52,6.46-4.44,10.22h0c1.71,2.74,.87,6.34-1.86,8.04-1.1,.68-2.39,.98-3.67,.86l-71.34-7.15c-1.62-4.47-2.93-9.81-9.44-.91l-6.72-.65-27.94-2.71-1.64-5.99c-1.89-6.9-.5-14.28,3.78-20.01h0c-2.43-7.6-1.79-15.84,1.77-22.98l.13-.27,2.97-2.47s-32.46-48.76,4.8-85.49l14.95-25.42,16.73-20.41,17.51-33.7Z"/><circle class="e" cx="3194.16" cy="79.23" r="46.82"/><path class="f" d="M3229.72,146.68c-3.81-3.19-6.47-7.54-7.55-12.39-.87,5.89-.64,11.88,.67,17.69-2.54,1.91-4.99,3.72-7.32,5.36-1.76-4.53-4.18-8.77-7.17-12.6-.29,6.02-.55,12.07-.82,18.09-2.97,2.01-6.1,3.78-9.36,5.28l1.39-1.66c9.99-14.72-15.86-41.8-5.87-56.5,2.8-4.12-9.86-36.66-19.5-38.12-8.58-1.3-8.22,1.18-16.53,2.99-.86-3.6-2.2-7.07-3.98-10.31,.47,3.62,.36,7.28-.32,10.87-2.95,.11-5.28-1.77-8.43-2.25-20.07-3.07-18.03-24.78-12.45-31.66,5.6-6.86,24.21-8.92,32.79-11.15,.78-.76,2.55-.29,3.34-1.01,16.44-15.04,38.43-17.54,58.21-10.87,21.1,7.11,34.26,20.87,41.01,42.09l1.94,16.98c1.74,5.46-.45,30.86-1.94,36.39-5.79,21.51-18.11,10.77-38.11,32.79Z"/><path class="e" d="M3297.99,368.49l-1.84-143.55c-.2-12.65-10.51-22.81-23.17-22.81h0c-12.8,0-23.17,10.37-23.17,23.17,0,.41,.01,.82,.03,1.23l6.49,149.06,.12,90.74c-10.28,4.36-15.08,16.23-10.72,26.51,4.36,10.28,16.23,15.08,26.51,10.72s15.08-16.23,10.72-26.51c-.47-1.1-1.03-2.16-1.68-3.16l16.72-105.4Z"/><path class="e" d="M2719.8,600.88c4.79,6.52,13.95,7.93,20.48,3.15,5.57-4.17,7.62-11.56,5.01-18l7.8-106.32-35.01-6.07,6.88,104.5c-.73,.36-1.42,.78-2.08,1.26-6.65,4.99-8.12,14.37-3.32,21.15,.08,.11,.15,.22,.23,.33Z"/><path class="f" d="M2486.24,509.18c14.21-14.07,11.58-78.19,11.58-78.19,0,0-14.14-215.32,5-229.75,13.23-9.55,27.32-17.87,42.07-24.85,.85-.38,1.3-.59,1.3-.59l32.43-.62,40.27-7.11,27.98-5.12s2.06,.14,5.28,.59c12.03,1.66,40.32,7.53,37.81,25.84-3.17,23.21,19.23,165.79,26.06,172.92,6.82,7.13,5.02,33.19-11.84,49.74-16.87,16.56-4.74,61.59,7.11,80.54,7.11,11.6,10.39,25.14,9.38,38.71,0,0-9.38,51.31-33.07,34.73-9.03-6.32-21.84-7.13-37.26-5.97-21.41,1.59-47.87,6.96-76.18,6.66-4.78-.05-9.59-.26-14.47-.69-42.21-3.67-60.85,7.94-66.33-4.74-5.47-12.67-21.32-38.04-7.11-52.11Z"/><path class="f" d="M2694.84,377.26c2.52,3.54,2.22,13.04,0,24.16-2.22,11.12,24.27,103.02,24.27,103.02h37.47s6.81-109.4-2.66-123.02c-9.48-13.62,0-2.96,7.11-12.43,7.11-9.48-4.74-4.74-16.68-16.9-11.95-12.16-2.27-6.79,7.21-16.26,9.48-9.48-63.96-156.34-63.96-156.34l-54.48-2.37s59.22,196.61,61.73,200.15Z"/><circle class="e" cx="2599.54" cy="74.26" r="54.61"/><path class="f" d="M2564.53,23.58c9.17-16.96,33.02-24.66,40.91-22.76,.11,.26,.2,.53,.28,.81,.09,.31,.19,.64,.26,.97,.1,.4,.18,.8,.24,1.21,.52,3.22,4.45,6.23,7.08,4.1,.43-.33,.88-.69,1.28-1.02,.31-.26,.59-.52,.88-.81,4.26,3.46-7.32,11.91-7.32,11.91,10-4.25,21.35-3.94,31.1,.83,5,2.46,8.17,7.51,10.16,13.34-2.43,2.25-5.49,3.69-8.76,4.12,2.94,1.67,6.06,3.03,9.29,4.05,.52,.17,1.04,.33,1.56,.47,1.1,7.21,1.37,14.52,.83,21.79-11-5.36-22.91-8.63-35.11-9.64,1.23,2.77,1.3,5.73-2.44,7.44-3.3,1.08-6.79,1.48-10.26,1.18-2.65-2.62-4.29-6.09-4.64-9.81-1.78,2.88-3.25,5.93-4.38,9.12-9.45-1.09-18.43-3.03-18.43-3.03,0,0-16.2,5.33-17.39,20.21s18.95,47.38,18.95,47.38l-21.65-4.15c-56.52-66.92,7.56-97.71,7.56-97.71Z"/><path class="f" d="M2494.39,400.95c-2.52,3.54-2.22,13.04,0,24.16,2.22,11.12,34.49,95.92,34.49,95.92l-33.16,16.58s-76.99-128.35-67.51-141.97c9.48-13.62,0-2.96-7.11-12.43s4.74-4.74,16.68-16.9c11.95-12.16,2.27-6.79-7.21-16.26-9.48-9.48,71.06-146.86,71.06-146.86l54.48-2.37s-59.22,196.61-61.73,200.15Z"/><path class="f" d="M2546.2,175.8l12.22-34.47,75.3-3.91,13.15,25.54s2.06,.14,5.28,.59l-30.89,189.29-76.37-176.45c.85-.38,1.3-.59,1.3-.59Z"/><path class="f" d="M2623.63,428.64l26.7,133.79c-21.41,1.59-47.87,6.96-76.18,6.66l49.48-140.44Z"/><path class="f" d="M2493.56,635.27h109.92l2.52-12.16s.88,5.26,1.99,12.16h134.63l2.25-17.47s6.53-18.32,0-18.8-10.22,1.59-8.37-5.37c1.85-6.96-36.05-123.03-36.05-123.03l-196.61,42.64s-19.39,38.52-11.84,56.85c3.03,7.37,2.63,34.71,1.57,65.18Z"/><path class="e" d="M2560.88,590.68c-1.29,7.99-8.82,13.41-16.8,12.12-6.85-1.18-12.05-6.82-12.66-13.75l-55.32-91.12,28.41-21.33,41.42,96.19c.81,0,1.62,.05,2.43,.18,8.19,1.42,13.77,9.1,12.58,17.33-.02,.13-.04,.27-.06,.4Z"/></g></g></svg>