<?xml version="1.0" encoding="UTF-8"?><svg xmlns="http://www.w3.org/2000/svg" viewBox="0 0 263.04 638.13"><defs><style>.d{fill:#cececf;}.e{fill:#f5f5f5;}.f{fill:#0c0c10;}</style></defs><g id="a"/><g id="b"><g id="c"><path class="f" d="M231,557.62s-2.85,51.27-4.16,80.51h-98.14c-2.02-26.61-2.7-46.16-2.7-46.16l-5.37,46.16H21.43l-6.15-85.49,29.72-73.67s161.06-11.17,176,3c14.93,14.16,10,75.65,10,75.65Z"/><circle class="e" cx="144.22" cy="72.72" r="53.61"/><path class="f" d="M206.7,55.3c-5.51,2.51-9.07,20.69-13.4,16.47s-4.04-9.73-9.87-11.29c-4.71-1.27-9.78,.18-14.08,2.46-.77,.4-1.51,.84-2.24,1.28-.48-.32-.96-.62-1.47-.9-3.84-2.06-8.33-2.56-12.54-1.41,3.32,1.11,6.21,3.24,8.26,6.09-1.44,.96-2.9,1.93-4.39,2.79-12.45,7.18-30.17-8.44-43.27-14.31,8.21,15.4,4.17,21.78-2.96,37.71l-.25,.91c.4-3.99-11.95-6.97-11.23-1.35,.51,3.99,3.96,12.86,5.9,16.38-13.78-15.93-23.19-35.43-21.21-55.54,.43-4.22,.3-8.68,2.48-12.35,2.18-3.65,6.73-6.21,10.75-4.82C96.15,17.83,111.19,1.09,130.79,.05c6.97-.37,13.89,1.32,19.9,4.85,5.14,3.02,9.44,7.29,14.16,10.97,4.72,3.68,10.15,6.89,16.13,7.2,3.79,.18,7.92-.74,11.18,1.22,3.77,2.28,4.42,7.05,4.99,11.64-3.37,.33-6.56,1.66-9.17,3.82,3.48-.36,6.99,.4,10.02,2.15,.06,.03,.11,.06,.16,.09,2,7.59,1.79,9.27,8.53,13.31Z"/><path class="e" d="M41.19,582.56l7.61-54.22-30.37-8.67-6.01,57.61c-7.46,6.84-7.96,18.44-1.12,25.9,6.84,7.46,18.44,7.96,25.9,1.12,6.04-5.54,7.67-14.42,3.99-21.74h0Z"/><path class="d" d="M21.67,504.9c45.65-53.44,30.23-121.4,12.11-190.01l3.45-101.35c.34-10.09,5.58-19.38,14.03-24.9l46.6-30.45,18.14-26.23,50,5,27.73,29.32,30.69,23.43c15.73,12.01,23.07,32.06,18.79,51.39l-29.37,132.82s12.28,68.86,4.79,76.46-26.81,0-11.49,8.54c18.38,10.24,35.09,8.35,25.79,17.66s2.47,22.23,2.47,22.23l-213.73,6.09Z"/><path class="f" d="M100.93,156.23S12.56,196.1,10.5,216.68s-1.38,33.19-10.5,115.56l.48,221.88s57.95,12.41,52.01-.86-3.87-19.51-3.87-19.51c0,0,12.42-4.9,9.31-20.48s12.49-92.77,12.49-92.77l9.84-138.44,20.66-125.84Z"/><path class="e" d="M205.58,579.69l-4.05-54.6,30.87-6.67,2.23,57.88c7,7.31,6.74,18.92-.57,25.91-7.31,7-18.92,6.74-25.91-.57-5.67-5.92-6.71-14.89-2.56-21.96Z"/><path class="f" d="M185.97,160.39s73.44,35.54,74.15,56.21-.79,33.2,2.92,116l-14.98,221.38s-58.64,8.59-51.84-4.26,5.14-19.21,5.14-19.21c0,0-12.08-5.7-7.96-21.04s-6.4-93.39-6.4-93.39l-.77-138.79-.26-116.9Z"/></g></g></svg>