<?xml version="1.0" encoding="UTF-8"?><svg xmlns="http://www.w3.org/2000/svg" viewBox="0 0 289.7 406.9"><defs><style>.d{fill:#cececf;}.e{fill:#f5f5f5;}.f{isolation:isolate;opacity:.1;}.g{fill:#0c0c10;}</style></defs><g id="a"/><g id="b"><g id="c"><path class="e" d="M289.7,0V161.4c0,135.5-4.6,245.4-10.2,245.5H10.2c-5.6,0-10.2-109.8-10.2-245.4V0H289.7Z"/><rect class="d" x="36" y="26.2" width="205.6" height="115"/><path class="g" d="M133.4,143.8l-17.8,13.6-47.3,12.5s17,119,9,127-.8,8.2-2.4,18.6-8,37.8-8,37.8H208.1s1.1-17.1-5.8-20.7c-6.9-3.6,6.4-20.9,.7-23.8s2.3-27.9,2.3-27.9l17.3-81.8-46.1-36.1-7-16.9-36.1-2.3Z"/><path class="d" d="M289.7,227.7v7c0,95.1-4.6,172.1-10.2,172.1H10.2c-5.6,0-10.2-77-10.2-172.1H0v-7H289.7Z"/><path class="g" d="M71.1,169.8s-7.3-1.5-11.6,11.6c-4.4,13.1-20.4,62.6-20.4,71.3s99.7,47.3,99.7,47.3l-10.4-36.4-45.7-24-11.6-69.8Z"/><path class="g" d="M222.6,199s4.4,2.9,7.3,16,21.8,62.6,14.6,74.2-9.4,24.1-34.2,6.6l-34.2-31.4,24.7-23.3,10.2,7.3,11.6-49.4Z"/><circle class="e" cx="151.9" cy="105" r="29.8"/><polygon class="f" points="206.7 246.6 212.5 251.8 215.4 227.7 206.7 246.6"/><circle class="e" cx="143.4" cy="277.6" r="17"/><polygon class="f" points="81.4 221.6 82.8 239.7 125 261.8 87.4 236.6 81.4 221.6"/><circle class="e" cx="179.3" cy="245.9" r="17"/><path class="g" d="M121.8,111l-4.1-15.6c-1.1-4.1-2.1-8.2-1.9-12.4,.2-4.2,2-8.5,5.6-10.8,3.5-2.3,8.9-1.7,11.2,1.8,.4-5.6,5.6-10,11-11.5,5.5-1.5,11.2-.9,16.9-.7s11.6,.1,16.5-2.8c.8,2.3-.2,4.8-2.3,6,2.5,.7,5.1-.7,6-3.2,0,3.3-1.2,6.4-3.4,8.8,4.4-2.2,9.7-.7,12.2,3.5,2.5,4.3,1.1,9.7-.4,14.5l-7.5,24.5c-1.1-3.7-1.3-7.7-2-11.5s-1.7-7.8-4.2-10.7-6.8-4.7-10.5-3.2c-2,.8-3.6,2.5-5.4,3.7-3.7,2.5-8.5,2.8-13,2.3s-8.8-1.8-13.2-2.3c-2.8-.3-5.9-.2-8,1.6-1.4,1.5-2.4,3.4-2.7,5.5-1,4.1-1.4,8.3-1.2,12.5"/></g></g></svg>