<?xml version="1.0" encoding="UTF-8"?><svg xmlns="http://www.w3.org/2000/svg" viewBox="0 0 811.9 549"><defs><style>.d{fill:#3f3d56;}.e{fill:#e6e6e6;}.f{fill:#f2f2f2;}.g{fill:#0c0c10;}</style></defs><g id="a"/><g id="b"><g id="c"><path class="g" d="M0,226.55C0,159.38,54.45,0,121.61,0s121.61,159.38,121.61,226.55c-.02,67.17-54.49,121.6-121.66,121.57C54.44,348.1,.02,293.68,0,226.55h0Z"/><path class="d" d="M121.61,522.42c-.55,0-1-.45-1-1V102.13c0-.55,.45-1,1-1s1,.45,1,1v419.28c0,.55-.45,1-1,1Z"/><path class="d" d="M121.61,183.08c-.27,0-.52-.11-.71-.29l-48.13-48.13c-.39-.39-.4-1.02,0-1.41,.39-.39,1.02-.4,1.41,0h0l48.13,48.14c.39,.39,.39,1.02,0,1.41-.19,.19-.44,.29-.71,.29h0Z"/><path class="d" d="M121.61,266.41c-.55,0-1-.45-1-1,0-.27,.11-.52,.29-.71l80.61-80.61c.39-.39,1.02-.4,1.41,0,.39,.39,.4,1.02,0,1.41h0l-80.61,80.62c-.19,.19-.44,.29-.71,.29Z"/><path class="f" d="M49.27,548.61c.17,.13,.36,.25,.53,.39H198.89c2.92-11.84,3.95-23.69-.41-33.98-6.22-14.66-24.62-23.82-39.25-17.52-3.47,1.53-6.49,3.92-8.77,6.94-5.72-10.23-15.97-17.95-27.81-17.94-14.83,.01-27.16,12.14-31.18,26.15-6.48-10.94-19.28-18.58-31.79-15.29-20.92,5.5-27.53,38.02-10.41,51.25Z"/><path class="e" d="M637,317.29c0-48.26,39.15-162.79,87.45-162.79s87.45,114.53,87.45,162.79c-.03,48.3-39.2,87.42-87.5,87.4-48.26-.03-87.37-39.14-87.4-87.4h0Z"/><path class="g" d="M724.45,529.9c-.4,0-.72-.32-.72-.72h0V227.89c0-.4,.33-.72,.72-.71,.39,0,.71,.32,.71,.71v301.29c0,.4-.32,.72-.72,.72h0Z"/><path class="g" d="M724.45,286.06c-.19,0-.37-.08-.51-.21l-34.61-34.59c-.28-.28-.28-.74,0-1.02,.28-.28,.74-.28,1.02,0l34.61,34.59c.28,.28,.28,.74,0,1.02-.13,.13-.32,.21-.51,.21h0Z"/><path class="g" d="M724.45,345.94c-.4,0-.72-.32-.72-.72,0-.19,.08-.37,.21-.51l57.96-57.92c.28-.28,.74-.28,1.02,0,.28,.28,.28,.74,0,1.02l-57.96,57.92c-.13,.14-.32,.21-.51,.21Z"/><path class="f" d="M672.43,548.72c.12,.1,.26,.18,.38,.28h107.21c2.1-8.51,2.84-17.02-.3-24.41-4.47-10.54-17.7-17.11-28.22-12.59-2.49,1.1-4.66,2.82-6.31,4.99-4.11-7.35-11.48-12.9-20-12.89-10.66,0-19.53,8.72-22.42,18.79-4.66-7.86-13.86-13.35-22.86-10.99-15.05,3.95-19.8,27.32-7.49,36.83Z"/></g></g></svg>