<?xml version="1.0" encoding="UTF-8"?><svg xmlns="http://www.w3.org/2000/svg" viewBox="0 0 304.13 581"><defs><style>.d{fill:#cececf;}.e{fill:#3f3d56;}.f{fill:#f5f5f5;}.g{isolation:isolate;opacity:.1;}.h{fill:#f2f2f2;}.i{fill:#0c0c10;}</style></defs><g id="a"/><g id="b"><g id="c"><path class="d" d="M131.13,276.67v52l7,32s-1,20,0,26-1,16-7,16-9,15-9,15c0,0-2,6-7,7s-5,0-5,0l-4,10-83,55,16,40s25-9,27-12,19,4,19-3,3-25,9-26,56-24,56-24c0,0,26-29,28-40s11-42,11-42l25,42v84l-4,45,44-6s-4-28,0-32,10-52,6-58,2-33,0-37-1-33-6-41-35-90-35-90l-88-13Z"/><path class="i" d="M216.13,551.67s-15,25-5,28,29,0,31,0,38,1,38,1c0,0,24-5,24-12s-15-7-20-8-36-13-36-13l-32,4Z"/><path class="i" d="M27.72,490.79S-1.18,486.97,.04,497.34s11.53,26.61,12.32,28.45c.54,1.24,6.85,16.98,10.88,27.01,2.91,7.35,7.27,14.04,12.84,19.65,3.93,3.93,8.22,7.08,11.03,5.86,6.42-2.78,.46-16.55-.61-21.53s-2.38-38.2-2.38-38.2l-16.39-27.77Z"/><path class="i" d="M228.63,111.17l32-74s-3-7-10-6c0,0-9.5-24.5-27.5-24.5,0,0-27-15-35,0,0,0-17,15-16,29s2,24,2,24c0,0-16,2-13,10s4,8,0,11l-4,3s-83,75-37,185l4,17v16s101,1,101,0-2-7,2-11,4-10,4-10c0,0-4-20-2-26s3-32-1-38-2-54-2-54l9-17-3-10-3-10-.5-14.5Z"/><path class="g" d="M220.13,311.67s-12-33-11-39-2-18-2-18l-4-81s17-72-21-84c0,0-9.62,4.2-17.49,17.7-7.79,3.47-17.24,12.25-19.51,34.3-4,39,14,139,23,156s15,29,15,29l9.41-4.18c.39,.77,.59,1.18,.59,1.18l27-12Z"/><circle class="h" cx="225.63" cy="99.17" r="3"/><rect class="e" x="224.63" y="99.17" width="2" height="47"/><path class="f" d="M189.63,315.17l8,17s18-6,18-9-8-16-8-16l-18,8Z"/><path class="i" d="M178.13,89.67s-23,10-27,49,14,139,23,156c9,17,15,29,15,29l27-12s-12-33-11-39-2-18-2-18l-4-81s17-72-21-84Z"/></g></g></svg>