<?xml version="1.0" encoding="UTF-8"?><svg xmlns="http://www.w3.org/2000/svg" viewBox="0 0 1000 127.98"><defs><style>.e{fill:#eee;}</style></defs><g id="a"/><g id="b"><g id="c"><g id="d"><g><rect class="e" y="112.98" width="1000" height="15"/><rect class="e" width="1000" height="15"/><g><polygon class="e" points="52.91 49.16 29.85 78.83 72.13 78.83 52.91 49.16 52.91 49.16"/><polygon class="e" points="143.83 49.16 120.96 78.83 163.24 78.83 143.83 49.16 143.83 49.16"/><polygon class="e" points="234.75 49.16 212.08 78.83 254.35 78.83 234.75 49.16 234.75 49.16"/><polygon class="e" points="325.67 49.16 303.19 78.83 345.47 78.83 325.67 49.16 325.67 49.16"/><polygon class="e" points="416.59 49.16 394.3 78.83 436.58 78.83 416.59 49.16 416.59 49.16"/><polygon class="e" points="507.51 49.16 485.41 78.83 527.69 78.83 507.51 49.16 507.51 49.16"/><polygon class="e" points="598.43 49.16 576.52 78.83 618.8 78.83 598.43 49.16 598.43 49.16"/><polygon class="e" points="689.35 49.16 667.63 78.83 709.91 78.83 689.35 49.16 689.35 49.16"/><polygon class="e" points="780.27 49.16 758.75 78.83 801.02 78.83 780.27 49.16 780.27 49.16"/><polygon class="e" points="871.19 49.16 849.86 78.83 892.14 78.83 871.19 49.16 871.19 49.16"/><polygon class="e" points="962.11 49.16 940.97 78.83 983.25 78.83 962.11 49.16 962.11 49.16"/></g></g></g></g></g></svg>